G04 #@! TF.GenerationSoftware,KiCad,Pcbnew,7.0.7*
G04 #@! TF.CreationDate,2023-10-01T09:25:35+02:00*
G04 #@! TF.ProjectId,TSALv3,5453414c-7633-42e6-9b69-6361645f7063,rev?*
G04 #@! TF.SameCoordinates,Original*
G04 #@! TF.FileFunction,Soldermask,Top*
G04 #@! TF.FilePolarity,Negative*
%FSLAX46Y46*%
G04 Gerber Fmt 4.6, Leading zero omitted, Abs format (unit mm)*
G04 Created by KiCad (PCBNEW 7.0.7) date 2023-10-01 09:25:35*
%MOMM*%
%LPD*%
G01*
G04 APERTURE LIST*
G04 Aperture macros list*
%AMRoundRect*
0 Rectangle with rounded corners*
0 $1 Rounding radius*
0 $2 $3 $4 $5 $6 $7 $8 $9 X,Y pos of 4 corners*
0 Add a 4 corners polygon primitive as box body*
4,1,4,$2,$3,$4,$5,$6,$7,$8,$9,$2,$3,0*
0 Add four circle primitives for the rounded corners*
1,1,$1+$1,$2,$3*
1,1,$1+$1,$4,$5*
1,1,$1+$1,$6,$7*
1,1,$1+$1,$8,$9*
0 Add four rect primitives between the rounded corners*
20,1,$1+$1,$2,$3,$4,$5,0*
20,1,$1+$1,$4,$5,$6,$7,0*
20,1,$1+$1,$6,$7,$8,$9,0*
20,1,$1+$1,$8,$9,$2,$3,0*%
G04 Aperture macros list end*
%ADD10RoundRect,0.250001X-0.114905X0.768977X-0.768977X0.114905X0.114905X-0.768977X0.768977X-0.114905X0*%
%ADD11RoundRect,0.250001X-1.399999X1.099999X-1.399999X-1.099999X1.399999X-1.099999X1.399999X1.099999X0*%
%ADD12O,3.300000X2.700000*%
%ADD13RoundRect,0.250001X0.462499X0.624999X-0.462499X0.624999X-0.462499X-0.624999X0.462499X-0.624999X0*%
%ADD14RoundRect,0.250001X-0.624999X0.462499X-0.624999X-0.462499X0.624999X-0.462499X0.624999X0.462499X0*%
%ADD15RoundRect,0.250001X-0.462499X-0.624999X0.462499X-0.624999X0.462499X0.624999X-0.462499X0.624999X0*%
%ADD16RoundRect,0.250000X0.325000X0.450000X-0.325000X0.450000X-0.325000X-0.450000X0.325000X-0.450000X0*%
%ADD17RoundRect,0.250000X-0.450000X0.325000X-0.450000X-0.325000X0.450000X-0.325000X0.450000X0.325000X0*%
%ADD18RoundRect,0.250001X0.624999X-0.462499X0.624999X0.462499X-0.624999X0.462499X-0.624999X-0.462499X0*%
%ADD19R,1.600000X1.600000*%
%ADD20O,1.600000X1.600000*%
%ADD21R,0.800000X0.900000*%
%ADD22R,2.500000X1.800000*%
%ADD23R,1.500000X2.000000*%
%ADD24R,3.800000X2.000000*%
%ADD25C,1.000000*%
%ADD26RoundRect,0.250001X-0.499999X0.499999X-0.499999X-0.499999X0.499999X-0.499999X0.499999X0.499999X0*%
%ADD27C,1.500000*%
%ADD28C,3.200000*%
%ADD29RoundRect,0.150000X-0.825000X-0.150000X0.825000X-0.150000X0.825000X0.150000X-0.825000X0.150000X0*%
%ADD30RoundRect,0.150000X0.825000X0.150000X-0.825000X0.150000X-0.825000X-0.150000X0.825000X-0.150000X0*%
%ADD31RoundRect,0.250000X0.450000X-0.325000X0.450000X0.325000X-0.450000X0.325000X-0.450000X-0.325000X0*%
%ADD32C,1.524000*%
G04 APERTURE END LIST*
D10*
X63535821Y-72354179D03*
X61432179Y-74457821D03*
D11*
X58420000Y-61468000D03*
D12*
X52920000Y-61468000D03*
D13*
X58891500Y-75438000D03*
X55916500Y-75438000D03*
D14*
X63500000Y-66838500D03*
X63500000Y-69813500D03*
D13*
X66765500Y-85090000D03*
X63790500Y-85090000D03*
X66802000Y-88138000D03*
X63827000Y-88138000D03*
D15*
X74204500Y-78994000D03*
X77179500Y-78994000D03*
D16*
X75955000Y-81788000D03*
X73905000Y-81788000D03*
D17*
X69342000Y-85598000D03*
X69342000Y-87648000D03*
D15*
X52651000Y-83566000D03*
X55626000Y-83566000D03*
D18*
X53340000Y-74422000D03*
X53340000Y-71447000D03*
X53340000Y-69051500D03*
X53340000Y-66076500D03*
D19*
X59944000Y-79756000D03*
D20*
X52324000Y-79756000D03*
D14*
X63500000Y-61504500D03*
X63500000Y-64479500D03*
D15*
X58239000Y-85090000D03*
X61214000Y-85090000D03*
D21*
X93792000Y-63230000D03*
X95692000Y-63230000D03*
X94742000Y-61230000D03*
D14*
X102108000Y-55154500D03*
X102108000Y-58129500D03*
D22*
X105950000Y-63754000D03*
X109950000Y-63754000D03*
D23*
X94728000Y-58776000D03*
X97028000Y-58776000D03*
D24*
X97028000Y-52476000D03*
D23*
X99328000Y-58776000D03*
D25*
X112239600Y-67104000D03*
X112239600Y-79104000D03*
D26*
X116179600Y-70104000D03*
D27*
X116179600Y-73104000D03*
X116179600Y-76104000D03*
X113179600Y-70104000D03*
X113179600Y-73104000D03*
X113179600Y-76104000D03*
D28*
X116586000Y-89356000D03*
D29*
X72455000Y-84709000D03*
X72455000Y-85979000D03*
X72455000Y-87249000D03*
X72455000Y-88519000D03*
X77405000Y-88519000D03*
X77405000Y-87249000D03*
X77405000Y-85979000D03*
X77405000Y-84709000D03*
D28*
X52578000Y-89408000D03*
X116586000Y-54356000D03*
D14*
X94488000Y-77760500D03*
X94488000Y-80735500D03*
D18*
X102362000Y-75147500D03*
X102362000Y-72172500D03*
D15*
X95540500Y-83566000D03*
X98515500Y-83566000D03*
D18*
X114046000Y-63463500D03*
X114046000Y-60488500D03*
D30*
X102297000Y-81153000D03*
X102297000Y-79883000D03*
X102297000Y-78613000D03*
X102297000Y-77343000D03*
X97347000Y-77343000D03*
X97347000Y-78613000D03*
X97347000Y-79883000D03*
X97347000Y-81153000D03*
D14*
X91948000Y-71664500D03*
X91948000Y-74639500D03*
X74168000Y-64806500D03*
X74168000Y-67781500D03*
D19*
X77978000Y-63754000D03*
D20*
X77978000Y-66294000D03*
X77978000Y-68834000D03*
X85598000Y-68834000D03*
X85598000Y-66294000D03*
X85598000Y-63754000D03*
D16*
X102625000Y-83312000D03*
X100575000Y-83312000D03*
D31*
X105156000Y-81289000D03*
X105156000Y-79239000D03*
D17*
X116840000Y-60951000D03*
X116840000Y-63001000D03*
D23*
X104888000Y-58776000D03*
X107188000Y-58776000D03*
D24*
X107188000Y-52476000D03*
D23*
X109488000Y-58776000D03*
D16*
X91449000Y-63246000D03*
X89399000Y-63246000D03*
D21*
X93792000Y-67802000D03*
X95692000Y-67802000D03*
X94742000Y-65802000D03*
D32*
X89408000Y-58334000D03*
X86868000Y-58334000D03*
X84328000Y-58334000D03*
X79248000Y-58334000D03*
X76708000Y-58334000D03*
X74168000Y-58334000D03*
X71628000Y-58334000D03*
D16*
X99069000Y-75184000D03*
X97019000Y-75184000D03*
D15*
X58202500Y-87884000D03*
X61177500Y-87884000D03*
D28*
X52578000Y-54356000D03*
M02*
