G04 #@! TF.GenerationSoftware,KiCad,Pcbnew,7.0.7*
G04 #@! TF.CreationDate,2023-10-01T09:25:34+02:00*
G04 #@! TF.ProjectId,TSALv3,5453414c-7633-42e6-9b69-6361645f7063,rev?*
G04 #@! TF.SameCoordinates,Original*
G04 #@! TF.FileFunction,Copper,L1,Top*
G04 #@! TF.FilePolarity,Positive*
%FSLAX46Y46*%
G04 Gerber Fmt 4.6, Leading zero omitted, Abs format (unit mm)*
G04 Created by KiCad (PCBNEW 7.0.7) date 2023-10-01 09:25:34*
%MOMM*%
%LPD*%
G01*
G04 APERTURE LIST*
G04 Aperture macros list*
%AMRoundRect*
0 Rectangle with rounded corners*
0 $1 Rounding radius*
0 $2 $3 $4 $5 $6 $7 $8 $9 X,Y pos of 4 corners*
0 Add a 4 corners polygon primitive as box body*
4,1,4,$2,$3,$4,$5,$6,$7,$8,$9,$2,$3,0*
0 Add four circle primitives for the rounded corners*
1,1,$1+$1,$2,$3*
1,1,$1+$1,$4,$5*
1,1,$1+$1,$6,$7*
1,1,$1+$1,$8,$9*
0 Add four rect primitives between the rounded corners*
20,1,$1+$1,$2,$3,$4,$5,0*
20,1,$1+$1,$4,$5,$6,$7,0*
20,1,$1+$1,$6,$7,$8,$9,0*
20,1,$1+$1,$8,$9,$2,$3,0*%
G04 Aperture macros list end*
G04 #@! TA.AperFunction,SMDPad,CuDef*
%ADD10RoundRect,0.250001X-0.114905X0.768977X-0.768977X0.114905X0.114905X-0.768977X0.768977X-0.114905X0*%
G04 #@! TD*
G04 #@! TA.AperFunction,ComponentPad*
%ADD11RoundRect,0.250001X-1.399999X1.099999X-1.399999X-1.099999X1.399999X-1.099999X1.399999X1.099999X0*%
G04 #@! TD*
G04 #@! TA.AperFunction,ComponentPad*
%ADD12O,3.300000X2.700000*%
G04 #@! TD*
G04 #@! TA.AperFunction,SMDPad,CuDef*
%ADD13RoundRect,0.250001X0.462499X0.624999X-0.462499X0.624999X-0.462499X-0.624999X0.462499X-0.624999X0*%
G04 #@! TD*
G04 #@! TA.AperFunction,SMDPad,CuDef*
%ADD14RoundRect,0.250001X-0.624999X0.462499X-0.624999X-0.462499X0.624999X-0.462499X0.624999X0.462499X0*%
G04 #@! TD*
G04 #@! TA.AperFunction,SMDPad,CuDef*
%ADD15RoundRect,0.250001X-0.462499X-0.624999X0.462499X-0.624999X0.462499X0.624999X-0.462499X0.624999X0*%
G04 #@! TD*
G04 #@! TA.AperFunction,SMDPad,CuDef*
%ADD16RoundRect,0.250000X0.325000X0.450000X-0.325000X0.450000X-0.325000X-0.450000X0.325000X-0.450000X0*%
G04 #@! TD*
G04 #@! TA.AperFunction,SMDPad,CuDef*
%ADD17RoundRect,0.250000X-0.450000X0.325000X-0.450000X-0.325000X0.450000X-0.325000X0.450000X0.325000X0*%
G04 #@! TD*
G04 #@! TA.AperFunction,SMDPad,CuDef*
%ADD18RoundRect,0.250001X0.624999X-0.462499X0.624999X0.462499X-0.624999X0.462499X-0.624999X-0.462499X0*%
G04 #@! TD*
G04 #@! TA.AperFunction,ComponentPad*
%ADD19R,1.600000X1.600000*%
G04 #@! TD*
G04 #@! TA.AperFunction,ComponentPad*
%ADD20O,1.600000X1.600000*%
G04 #@! TD*
G04 #@! TA.AperFunction,SMDPad,CuDef*
%ADD21R,0.800000X0.900000*%
G04 #@! TD*
G04 #@! TA.AperFunction,SMDPad,CuDef*
%ADD22R,2.500000X1.800000*%
G04 #@! TD*
G04 #@! TA.AperFunction,SMDPad,CuDef*
%ADD23R,1.500000X2.000000*%
G04 #@! TD*
G04 #@! TA.AperFunction,SMDPad,CuDef*
%ADD24R,3.800000X2.000000*%
G04 #@! TD*
G04 #@! TA.AperFunction,ComponentPad*
%ADD25RoundRect,0.250001X-0.499999X0.499999X-0.499999X-0.499999X0.499999X-0.499999X0.499999X0.499999X0*%
G04 #@! TD*
G04 #@! TA.AperFunction,ComponentPad*
%ADD26C,1.500000*%
G04 #@! TD*
G04 #@! TA.AperFunction,SMDPad,CuDef*
%ADD27RoundRect,0.150000X-0.825000X-0.150000X0.825000X-0.150000X0.825000X0.150000X-0.825000X0.150000X0*%
G04 #@! TD*
G04 #@! TA.AperFunction,SMDPad,CuDef*
%ADD28RoundRect,0.150000X0.825000X0.150000X-0.825000X0.150000X-0.825000X-0.150000X0.825000X-0.150000X0*%
G04 #@! TD*
G04 #@! TA.AperFunction,SMDPad,CuDef*
%ADD29RoundRect,0.250000X0.450000X-0.325000X0.450000X0.325000X-0.450000X0.325000X-0.450000X-0.325000X0*%
G04 #@! TD*
G04 #@! TA.AperFunction,ComponentPad*
%ADD30C,1.524000*%
G04 #@! TD*
G04 #@! TA.AperFunction,ViaPad*
%ADD31C,0.800000*%
G04 #@! TD*
G04 #@! TA.AperFunction,Conductor*
%ADD32C,0.250000*%
G04 #@! TD*
G04 #@! TA.AperFunction,Conductor*
%ADD33C,0.500000*%
G04 #@! TD*
G04 APERTURE END LIST*
D10*
X63535821Y-72354179D03*
X61432179Y-74457821D03*
D11*
X58420000Y-61468000D03*
D12*
X52920000Y-61468000D03*
D13*
X58891500Y-75438000D03*
X55916500Y-75438000D03*
D14*
X63500000Y-66838500D03*
X63500000Y-69813500D03*
D13*
X66765500Y-85090000D03*
X63790500Y-85090000D03*
X66802000Y-88138000D03*
X63827000Y-88138000D03*
D15*
X74204500Y-78994000D03*
X77179500Y-78994000D03*
D16*
X75955000Y-81788000D03*
X73905000Y-81788000D03*
D17*
X69342000Y-85598000D03*
X69342000Y-87648000D03*
D15*
X52651000Y-83566000D03*
X55626000Y-83566000D03*
D18*
X53340000Y-74422000D03*
X53340000Y-71447000D03*
X53340000Y-69051500D03*
X53340000Y-66076500D03*
D19*
X59944000Y-79756000D03*
D20*
X52324000Y-79756000D03*
D14*
X63500000Y-61504500D03*
X63500000Y-64479500D03*
D15*
X58239000Y-85090000D03*
X61214000Y-85090000D03*
D21*
X93792000Y-63230000D03*
X95692000Y-63230000D03*
X94742000Y-61230000D03*
D14*
X102108000Y-55154500D03*
X102108000Y-58129500D03*
D22*
X105950000Y-63754000D03*
X109950000Y-63754000D03*
D23*
X94728000Y-58776000D03*
X97028000Y-58776000D03*
D24*
X97028000Y-52476000D03*
D23*
X99328000Y-58776000D03*
D25*
X116179600Y-70104000D03*
D26*
X116179600Y-73104000D03*
X116179600Y-76104000D03*
X113179600Y-70104000D03*
X113179600Y-73104000D03*
X113179600Y-76104000D03*
D27*
X72455000Y-84709000D03*
X72455000Y-85979000D03*
X72455000Y-87249000D03*
X72455000Y-88519000D03*
X77405000Y-88519000D03*
X77405000Y-87249000D03*
X77405000Y-85979000D03*
X77405000Y-84709000D03*
D14*
X94488000Y-77760500D03*
X94488000Y-80735500D03*
D18*
X102362000Y-75147500D03*
X102362000Y-72172500D03*
D15*
X95540500Y-83566000D03*
X98515500Y-83566000D03*
D18*
X114046000Y-63463500D03*
X114046000Y-60488500D03*
D28*
X102297000Y-81153000D03*
X102297000Y-79883000D03*
X102297000Y-78613000D03*
X102297000Y-77343000D03*
X97347000Y-77343000D03*
X97347000Y-78613000D03*
X97347000Y-79883000D03*
X97347000Y-81153000D03*
D14*
X91948000Y-71664500D03*
X91948000Y-74639500D03*
X74168000Y-64806500D03*
X74168000Y-67781500D03*
D19*
X77978000Y-63754000D03*
D20*
X77978000Y-66294000D03*
X77978000Y-68834000D03*
X85598000Y-68834000D03*
X85598000Y-66294000D03*
X85598000Y-63754000D03*
D16*
X102625000Y-83312000D03*
X100575000Y-83312000D03*
D29*
X105156000Y-81289000D03*
X105156000Y-79239000D03*
D17*
X116840000Y-60951000D03*
X116840000Y-63001000D03*
D23*
X104888000Y-58776000D03*
X107188000Y-58776000D03*
D24*
X107188000Y-52476000D03*
D23*
X109488000Y-58776000D03*
D16*
X91449000Y-63246000D03*
X89399000Y-63246000D03*
D21*
X93792000Y-67802000D03*
X95692000Y-67802000D03*
X94742000Y-65802000D03*
D30*
X89408000Y-58334000D03*
X86868000Y-58334000D03*
X84328000Y-58334000D03*
X79248000Y-58334000D03*
X76708000Y-58334000D03*
X74168000Y-58334000D03*
X71628000Y-58334000D03*
D16*
X99069000Y-75184000D03*
X97019000Y-75184000D03*
D15*
X58202500Y-87884000D03*
X61177500Y-87884000D03*
D31*
X74930000Y-87884000D03*
X74422000Y-83820000D03*
X77724000Y-82804000D03*
X74168000Y-77216000D03*
X71120000Y-79248000D03*
X104394000Y-83058000D03*
X96266000Y-69596000D03*
X98298000Y-66040000D03*
X97282000Y-69596000D03*
X98298000Y-63246000D03*
X111404400Y-60604400D03*
X102671000Y-67984200D03*
D32*
X72455000Y-87249000D02*
X69741000Y-87249000D01*
X69741000Y-87249000D02*
X69342000Y-87648000D01*
X68852000Y-88138000D02*
X66802000Y-88138000D01*
X69342000Y-87648000D02*
X68852000Y-88138000D01*
X69723000Y-85979000D02*
X69342000Y-85598000D01*
X69342000Y-85598000D02*
X67273500Y-85598000D01*
X72455000Y-85979000D02*
X69723000Y-85979000D01*
X67273500Y-85598000D02*
X66765500Y-85090000D01*
X73905000Y-81788000D02*
X72455000Y-83238000D01*
X53340000Y-63563300D02*
X53340000Y-66076500D01*
X52324000Y-79756000D02*
X52324000Y-80881300D01*
X71630400Y-89343600D02*
X72455000Y-88519000D01*
X52324000Y-80881300D02*
X52651000Y-81208300D01*
X72455000Y-88519000D02*
X74295000Y-88519000D01*
X56642000Y-89328773D02*
X56647557Y-89413557D01*
X74422000Y-83820000D02*
X73344000Y-83820000D01*
X72455000Y-60047000D02*
X74168000Y-58334000D01*
X70042000Y-90932000D02*
X72455000Y-88519000D01*
X72455000Y-84709000D02*
X72455000Y-60047000D01*
X56642000Y-87557000D02*
X56642000Y-89328773D01*
X74295000Y-88519000D02*
X74930000Y-87884000D01*
X52920000Y-63143300D02*
X53340000Y-63563300D01*
X52651000Y-82326200D02*
X52651000Y-83566000D01*
X52651000Y-81208300D02*
X52651000Y-82326200D01*
X56647557Y-89413557D02*
X58166000Y-90932000D01*
X73344000Y-83820000D02*
X72455000Y-84709000D01*
X58166000Y-90932000D02*
X70042000Y-90932000D01*
X52651000Y-83566000D02*
X56642000Y-87557000D01*
X72455000Y-83238000D02*
X72455000Y-84709000D01*
X52920000Y-61468000D02*
X52920000Y-63143300D01*
X77724000Y-82804000D02*
X77724000Y-84390000D01*
X76708000Y-58334000D02*
X76708000Y-62266500D01*
X62447500Y-86614000D02*
X73545400Y-86614000D01*
X76708000Y-62266500D02*
X74168000Y-64806500D01*
X75955000Y-81788000D02*
X75955000Y-83259000D01*
X75955000Y-83259000D02*
X77405000Y-84709000D01*
X75450400Y-84709000D02*
X77405000Y-84709000D01*
X61177500Y-87884000D02*
X62447500Y-86614000D01*
X73545400Y-86614000D02*
X75450400Y-84709000D01*
X77724000Y-84390000D02*
X77405000Y-84709000D01*
X97019000Y-75184000D02*
X97019000Y-77015000D01*
X97019000Y-77015000D02*
X97347000Y-77343000D01*
X103505000Y-79883000D02*
X104149000Y-79239000D01*
X95340500Y-78613000D02*
X94488000Y-77760500D01*
X104149000Y-79239000D02*
X105156000Y-79239000D01*
X97347000Y-78613000D02*
X95340500Y-78613000D01*
X102297000Y-79883000D02*
X103505000Y-79883000D01*
X99187000Y-78613000D02*
X100457000Y-79883000D01*
X97347000Y-78613000D02*
X99187000Y-78613000D01*
X100457000Y-79883000D02*
X102297000Y-79883000D01*
X59944000Y-79756000D02*
X70612000Y-79756000D01*
X70612000Y-79756000D02*
X71120000Y-79248000D01*
X63790500Y-82552500D02*
X60994000Y-79756000D01*
X74168000Y-77216000D02*
X74168000Y-78957500D01*
X55916500Y-76778500D02*
X55916500Y-76413000D01*
X60994000Y-79756000D02*
X59944000Y-79756000D01*
X55916500Y-75438000D02*
X54356000Y-75438000D01*
X55916500Y-76413000D02*
X55916500Y-75438000D01*
X74168000Y-78957500D02*
X74204500Y-78994000D01*
X58894000Y-79756000D02*
X55916500Y-76778500D01*
X59944000Y-79756000D02*
X58894000Y-79756000D01*
X63790500Y-85090000D02*
X63790500Y-82552500D01*
X54356000Y-75438000D02*
X53340000Y-74422000D01*
X96926000Y-58776000D02*
X97028000Y-58776000D01*
D33*
X97028000Y-52476000D02*
X102260000Y-52476000D01*
X118618000Y-59944000D02*
X118618000Y-62484000D01*
D32*
X97028000Y-58776000D02*
X99483000Y-56321000D01*
D33*
X116840000Y-63676000D02*
X118313200Y-65149200D01*
X105410000Y-55626000D02*
X109728000Y-55626000D01*
X102260000Y-52476000D02*
X105410000Y-55626000D01*
D32*
X113030000Y-58928000D02*
X110236000Y-56134000D01*
D33*
X113030000Y-58928000D02*
X117602000Y-58928000D01*
X109728000Y-55626000D02*
X113030000Y-58928000D01*
X117602000Y-58928000D02*
X118618000Y-59944000D01*
X118101000Y-63001000D02*
X118618000Y-62484000D01*
X118313200Y-65149200D02*
X118313200Y-73970400D01*
X116840000Y-63001000D02*
X118101000Y-63001000D01*
X118313200Y-73970400D02*
X116179600Y-76104000D01*
X116840000Y-63001000D02*
X116840000Y-63676000D01*
D32*
X104715000Y-56321000D02*
X105410000Y-55626000D01*
X99483000Y-56321000D02*
X104715000Y-56321000D01*
X114327500Y-63463500D02*
X114046000Y-63463500D01*
X116840000Y-60951000D02*
X114327500Y-63463500D01*
X58420000Y-61468000D02*
X63463500Y-61468000D01*
X63463500Y-61468000D02*
X63500000Y-61504500D01*
D33*
X112979200Y-65735200D02*
X108458000Y-65735200D01*
D32*
X115104600Y-74179000D02*
X116179600Y-73104000D01*
X115734320Y-77179000D02*
X115104600Y-76549280D01*
D33*
X107188000Y-60347998D02*
X107188000Y-58776000D01*
X114706400Y-67462400D02*
X112979200Y-65735200D01*
X116179600Y-73104000D02*
X114706400Y-71630800D01*
D32*
X116624880Y-77179000D02*
X115734320Y-77179000D01*
X117840172Y-58353000D02*
X119193000Y-59705828D01*
D33*
X108458000Y-65735200D02*
X107950000Y-65227200D01*
D32*
X108088000Y-52476000D02*
X113965000Y-58353000D01*
X115104600Y-76549280D02*
X115104600Y-74179000D01*
D33*
X107950000Y-65227200D02*
X107950000Y-61109998D01*
D32*
X119193000Y-59705828D02*
X119193000Y-74610880D01*
D33*
X107950000Y-61109998D02*
X107188000Y-60347998D01*
D32*
X119193000Y-74610880D02*
X116624880Y-77179000D01*
X113965000Y-58353000D02*
X117840172Y-58353000D01*
X107188000Y-52476000D02*
X108088000Y-52476000D01*
D33*
X114706400Y-71630800D02*
X114706400Y-67462400D01*
D32*
X102108000Y-55154500D02*
X96737500Y-55154500D01*
X94728000Y-57164000D02*
X94728000Y-58776000D01*
X94728000Y-60440700D02*
X94728000Y-58776000D01*
X94742000Y-61230000D02*
X94742000Y-60454700D01*
X96737500Y-55154500D02*
X94728000Y-57164000D01*
X94742000Y-60454700D02*
X94728000Y-60440700D01*
X58202500Y-87884000D02*
X60996500Y-85090000D01*
X58202500Y-87884000D02*
X58202500Y-88859000D01*
X59259500Y-89916000D02*
X62049000Y-89916000D01*
X60996500Y-85090000D02*
X61214000Y-85090000D01*
X62049000Y-89916000D02*
X63827000Y-88138000D01*
X58202500Y-88859000D02*
X59259500Y-89916000D01*
X77405000Y-88519000D02*
X77405000Y-87249000D01*
X94517300Y-63230000D02*
X94517300Y-63955300D01*
X100151900Y-76937100D02*
X101827800Y-78613000D01*
X94517300Y-63955300D02*
X100151900Y-69589900D01*
X100151900Y-69589900D02*
X100151900Y-76937100D01*
X93792000Y-63230000D02*
X94517300Y-63230000D01*
X101827800Y-78613000D02*
X102297000Y-78613000D01*
X94742000Y-65802000D02*
X94016700Y-65802000D01*
X103812700Y-59288200D02*
X100682000Y-62418900D01*
X103812700Y-58776000D02*
X103812700Y-59288200D01*
X93066600Y-64851900D02*
X93066600Y-62607800D01*
X104888000Y-58776000D02*
X103812700Y-58776000D01*
X93066600Y-62607800D02*
X93255500Y-62418900D01*
X93255500Y-62418900D02*
X100682000Y-62418900D01*
X100682000Y-73467500D02*
X102362000Y-75147500D01*
X94016700Y-65802000D02*
X93066600Y-64851900D01*
X102362000Y-77278000D02*
X102362000Y-75147500D01*
X102297000Y-77343000D02*
X102362000Y-77278000D01*
X100682000Y-62418900D02*
X100682000Y-73467500D01*
X91948000Y-68834000D02*
X91948000Y-71664500D01*
X93792000Y-67802000D02*
X93066700Y-67802000D01*
X91948000Y-68834000D02*
X92034700Y-68834000D01*
X85598000Y-68834000D02*
X91948000Y-68834000D01*
X92034700Y-68834000D02*
X93066700Y-67802000D01*
X63500000Y-64479500D02*
X63500000Y-66838500D01*
X56715000Y-83566000D02*
X58239000Y-85090000D01*
X55626000Y-83566000D02*
X56715000Y-83566000D01*
X63500000Y-72318400D02*
X63500000Y-69813500D01*
X63535800Y-72354200D02*
X63500000Y-72318400D01*
X61432200Y-74457800D02*
X59871700Y-74457800D01*
X59871700Y-74457800D02*
X58891500Y-75438000D01*
X53340000Y-71447000D02*
X53340000Y-69051500D01*
X77826500Y-85979000D02*
X78737000Y-85068500D01*
X76408153Y-67863847D02*
X77906990Y-66365010D01*
X77179500Y-78994000D02*
X76408153Y-78222653D01*
X78737000Y-80551500D02*
X77179500Y-78994000D01*
X77405000Y-85979000D02*
X77826500Y-85979000D01*
X76408153Y-78222653D02*
X76408153Y-67863847D01*
X78737000Y-85068500D02*
X78737000Y-80551500D01*
X77906990Y-64042510D02*
X77906990Y-63825010D01*
X74168000Y-67781500D02*
X77906990Y-64042510D01*
X97347000Y-79883000D02*
X95340500Y-79883000D01*
X95540500Y-81788000D02*
X94488000Y-80735500D01*
X95340500Y-79883000D02*
X94488000Y-80735500D01*
X95540500Y-83566000D02*
X95540500Y-81788000D01*
X104394000Y-83058000D02*
X104202000Y-83058000D01*
X104202000Y-83058000D02*
X102297000Y-81153000D01*
X102297000Y-81153000D02*
X102489000Y-81153000D01*
D33*
X103378000Y-56896000D02*
X109108000Y-56896000D01*
X114046000Y-64871600D02*
X112817600Y-64871600D01*
X109950000Y-63754000D02*
X109950000Y-59238000D01*
X116179600Y-67005200D02*
X114046000Y-64871600D01*
X99974500Y-58129500D02*
X99328000Y-58776000D01*
X116179600Y-70104000D02*
X116179600Y-67005200D01*
X109108000Y-56896000D02*
X109488000Y-57276000D01*
X102108000Y-58129500D02*
X99974500Y-58129500D01*
X110236000Y-64040000D02*
X109950000Y-63754000D01*
X109950000Y-59238000D02*
X109488000Y-58776000D01*
X111700000Y-63754000D02*
X109950000Y-63754000D01*
X112817600Y-64871600D02*
X111700000Y-63754000D01*
X102108000Y-58129500D02*
X102144500Y-58129500D01*
X102144500Y-58129500D02*
X103378000Y-56896000D01*
X109488000Y-57276000D02*
X109488000Y-58776000D01*
D32*
X105367700Y-77173700D02*
X106934000Y-78740000D01*
X102362000Y-72172500D02*
X105367700Y-75178200D01*
X102671000Y-67984200D02*
X102671000Y-71863500D01*
X100575000Y-83312000D02*
X98769500Y-83312000D01*
X105950000Y-64979300D02*
X102945100Y-67984200D01*
X106934000Y-78740000D02*
X106934000Y-82550000D01*
X98769500Y-83312000D02*
X98515500Y-83566000D01*
X104140000Y-85344000D02*
X100293500Y-85344000D01*
X105367700Y-75178200D02*
X105367700Y-77173700D01*
X106934000Y-82550000D02*
X104140000Y-85344000D01*
X102945100Y-67984200D02*
X102671000Y-67984200D01*
X97347000Y-81889500D02*
X98769500Y-83312000D01*
X100293500Y-85344000D02*
X98515500Y-83566000D01*
X102671000Y-71863500D02*
X102362000Y-72172500D01*
X86723300Y-65921700D02*
X86723300Y-66294000D01*
X85598000Y-66294000D02*
X86723300Y-66294000D01*
X97347000Y-81153000D02*
X97347000Y-81889500D01*
X89399000Y-63246000D02*
X86723300Y-65921700D01*
X105950000Y-63754000D02*
X105950000Y-64979300D01*
G04 #@! TA.AperFunction,Conductor*
G36*
X116587544Y-50571575D02*
G01*
X116953852Y-50589571D01*
X116960003Y-50590176D01*
X117321260Y-50643764D01*
X117327302Y-50644965D01*
X117681578Y-50733706D01*
X117687482Y-50735496D01*
X117897967Y-50810809D01*
X118031349Y-50858535D01*
X118037064Y-50860902D01*
X118367202Y-51017046D01*
X118372658Y-51019962D01*
X118685902Y-51207712D01*
X118691036Y-51211142D01*
X118984393Y-51428711D01*
X118989153Y-51432619D01*
X119259761Y-51677883D01*
X119264116Y-51682238D01*
X119405261Y-51837968D01*
X119509378Y-51952844D01*
X119513290Y-51957609D01*
X119730850Y-52250953D01*
X119734287Y-52256097D01*
X119922037Y-52569341D01*
X119924953Y-52574797D01*
X120081097Y-52904935D01*
X120083464Y-52910650D01*
X120206499Y-53254506D01*
X120208294Y-53260426D01*
X120240605Y-53389417D01*
X120291184Y-53591342D01*
X120297030Y-53614678D01*
X120298236Y-53620745D01*
X120351822Y-53981991D01*
X120352428Y-53988147D01*
X120370424Y-54354449D01*
X120370500Y-54357541D01*
X120370500Y-89354458D01*
X120370424Y-89357550D01*
X120352428Y-89723852D01*
X120351822Y-89730008D01*
X120298236Y-90091254D01*
X120297030Y-90097321D01*
X120208294Y-90451573D01*
X120206499Y-90457493D01*
X120083464Y-90801349D01*
X120081097Y-90807064D01*
X119924953Y-91137202D01*
X119922037Y-91142658D01*
X119734287Y-91455902D01*
X119730850Y-91461046D01*
X119513297Y-91754380D01*
X119509378Y-91759155D01*
X119264126Y-92029751D01*
X119259751Y-92034126D01*
X118989155Y-92279378D01*
X118984380Y-92283297D01*
X118795927Y-92423064D01*
X118691046Y-92500850D01*
X118685902Y-92504287D01*
X118372658Y-92692037D01*
X118367202Y-92694953D01*
X118037064Y-92851097D01*
X118031349Y-92853464D01*
X117687493Y-92976499D01*
X117681573Y-92978294D01*
X117327321Y-93067030D01*
X117321254Y-93068236D01*
X116960008Y-93121822D01*
X116953852Y-93122428D01*
X116634113Y-93138136D01*
X116587544Y-93140424D01*
X116584458Y-93140500D01*
X116560763Y-93140500D01*
X116560617Y-93140519D01*
X95884102Y-93157317D01*
X95815965Y-93137370D01*
X95769429Y-93083752D01*
X95758000Y-93031317D01*
X95758000Y-89423765D01*
X114731788Y-89423765D01*
X114761412Y-89693014D01*
X114829928Y-89955090D01*
X114935869Y-90204389D01*
X114935870Y-90204390D01*
X115076982Y-90435610D01*
X115250255Y-90643820D01*
X115451998Y-90824582D01*
X115677910Y-90974044D01*
X115923176Y-91089020D01*
X116182569Y-91167060D01*
X116182572Y-91167060D01*
X116182574Y-91167061D01*
X116450557Y-91206500D01*
X116450561Y-91206500D01*
X116653633Y-91206500D01*
X116688363Y-91203957D01*
X116856156Y-91191677D01*
X116856160Y-91191676D01*
X116856161Y-91191676D01*
X116966665Y-91167060D01*
X117120553Y-91132780D01*
X117373558Y-91036014D01*
X117609777Y-90903441D01*
X117824177Y-90737888D01*
X118012186Y-90542881D01*
X118169799Y-90322579D01*
X118293656Y-90081675D01*
X118381118Y-89825305D01*
X118430319Y-89558933D01*
X118440212Y-89288235D01*
X118425338Y-89153058D01*
X118410587Y-89018985D01*
X118342071Y-88756909D01*
X118236130Y-88507610D01*
X118236130Y-88507609D01*
X118095018Y-88276390D01*
X117921745Y-88068180D01*
X117921741Y-88068177D01*
X117921740Y-88068175D01*
X117720012Y-87887427D01*
X117720002Y-87887418D01*
X117494090Y-87737956D01*
X117248824Y-87622980D01*
X117091392Y-87575615D01*
X116989425Y-87544938D01*
X116721442Y-87505500D01*
X116721439Y-87505500D01*
X116518369Y-87505500D01*
X116518367Y-87505500D01*
X116315839Y-87520323D01*
X116315838Y-87520323D01*
X116051456Y-87579217D01*
X116051441Y-87579222D01*
X115798441Y-87675986D01*
X115562229Y-87808555D01*
X115562225Y-87808557D01*
X115347818Y-87974116D01*
X115159815Y-88169117D01*
X115159810Y-88169123D01*
X115002203Y-88389417D01*
X115002196Y-88389427D01*
X114878343Y-88630324D01*
X114878342Y-88630327D01*
X114790883Y-88886689D01*
X114790880Y-88886702D01*
X114741681Y-89153058D01*
X114741680Y-89153069D01*
X114731788Y-89423765D01*
X95758000Y-89423765D01*
X95758000Y-85075500D01*
X95778002Y-85007379D01*
X95831658Y-84960886D01*
X95884000Y-84949500D01*
X96053552Y-84949500D01*
X96122798Y-84942424D01*
X96157425Y-84938887D01*
X96325738Y-84883115D01*
X96476651Y-84790030D01*
X96602030Y-84664651D01*
X96695115Y-84513738D01*
X96750887Y-84345425D01*
X96754424Y-84310798D01*
X96761500Y-84241552D01*
X96761500Y-82890447D01*
X96750887Y-82786578D01*
X96750887Y-82786575D01*
X96695115Y-82618262D01*
X96602030Y-82467349D01*
X96602029Y-82467348D01*
X96602024Y-82467342D01*
X96476657Y-82341975D01*
X96476651Y-82341970D01*
X96325738Y-82248885D01*
X96260365Y-82227223D01*
X96201996Y-82186810D01*
X96174740Y-82121253D01*
X96174000Y-82107619D01*
X96174000Y-82055440D01*
X96194002Y-81987319D01*
X96247658Y-81940826D01*
X96317932Y-81930722D01*
X96335141Y-81934440D01*
X96418169Y-81958562D01*
X96425634Y-81959149D01*
X96455494Y-81961500D01*
X96455498Y-81961500D01*
X96608531Y-81961500D01*
X96676652Y-81981502D01*
X96723145Y-82035158D01*
X96725683Y-82041117D01*
X96745893Y-82092162D01*
X96747816Y-82097778D01*
X96760982Y-82143093D01*
X96771294Y-82160531D01*
X96779988Y-82178279D01*
X96787444Y-82197109D01*
X96787450Y-82197120D01*
X96815177Y-82235283D01*
X96818437Y-82240246D01*
X96842460Y-82280865D01*
X96856779Y-82295184D01*
X96869617Y-82310214D01*
X96879156Y-82323343D01*
X96881528Y-82326607D01*
X96900099Y-82341970D01*
X96917886Y-82356685D01*
X96922267Y-82360671D01*
X97100858Y-82539262D01*
X97266766Y-82705170D01*
X97300792Y-82767482D01*
X97303019Y-82807071D01*
X97294500Y-82890456D01*
X97294500Y-84241552D01*
X97294499Y-84241552D01*
X97305112Y-84345421D01*
X97305112Y-84345423D01*
X97305113Y-84345425D01*
X97360885Y-84513738D01*
X97393471Y-84566568D01*
X97453970Y-84664651D01*
X97453975Y-84664657D01*
X97579342Y-84790024D01*
X97579348Y-84790029D01*
X97579349Y-84790030D01*
X97730262Y-84883115D01*
X97898575Y-84938887D01*
X97926906Y-84941781D01*
X98002448Y-84949500D01*
X98002456Y-84949500D01*
X98950906Y-84949500D01*
X99019027Y-84969502D01*
X99040001Y-84986405D01*
X99786253Y-85732657D01*
X99796220Y-85745097D01*
X99796447Y-85744910D01*
X99801499Y-85751017D01*
X99801500Y-85751018D01*
X99852595Y-85798999D01*
X99873731Y-85820135D01*
X99879270Y-85824431D01*
X99883782Y-85828285D01*
X99918179Y-85860586D01*
X99935927Y-85870342D01*
X99952457Y-85881201D01*
X99968459Y-85893614D01*
X100008649Y-85911005D01*
X100011762Y-85912352D01*
X100017083Y-85914958D01*
X100058440Y-85937695D01*
X100058448Y-85937697D01*
X100078058Y-85942732D01*
X100096767Y-85949137D01*
X100115355Y-85957181D01*
X100161977Y-85964564D01*
X100167762Y-85965763D01*
X100213470Y-85977500D01*
X100233724Y-85977500D01*
X100253434Y-85979051D01*
X100255641Y-85979400D01*
X100273443Y-85982220D01*
X100307972Y-85978956D01*
X100320417Y-85977780D01*
X100326350Y-85977500D01*
X104056147Y-85977500D01*
X104071988Y-85979249D01*
X104072016Y-85978956D01*
X104079902Y-85979700D01*
X104079909Y-85979702D01*
X104149958Y-85977500D01*
X104179856Y-85977500D01*
X104186818Y-85976619D01*
X104192719Y-85976154D01*
X104239889Y-85974673D01*
X104259347Y-85969019D01*
X104278694Y-85965013D01*
X104298797Y-85962474D01*
X104342679Y-85945099D01*
X104348274Y-85943183D01*
X104376816Y-85934891D01*
X104393591Y-85930019D01*
X104393595Y-85930017D01*
X104411026Y-85919708D01*
X104428780Y-85911009D01*
X104447617Y-85903552D01*
X104485786Y-85875818D01*
X104490744Y-85872562D01*
X104531362Y-85848542D01*
X104545685Y-85834218D01*
X104560724Y-85821374D01*
X104577107Y-85809472D01*
X104607193Y-85773103D01*
X104611161Y-85768741D01*
X107322657Y-83057245D01*
X107335092Y-83047284D01*
X107334905Y-83047057D01*
X107341009Y-83042005D01*
X107341018Y-83042000D01*
X107388999Y-82990904D01*
X107410135Y-82969769D01*
X107414437Y-82964221D01*
X107418267Y-82959735D01*
X107450586Y-82925321D01*
X107460339Y-82907578D01*
X107471193Y-82891051D01*
X107483614Y-82875041D01*
X107502359Y-82831719D01*
X107504958Y-82826415D01*
X107527695Y-82785060D01*
X107532733Y-82765434D01*
X107539137Y-82746732D01*
X107547180Y-82728147D01*
X107547179Y-82728147D01*
X107547181Y-82728145D01*
X107554561Y-82681547D01*
X107555762Y-82675740D01*
X107567500Y-82630030D01*
X107567500Y-82609775D01*
X107569051Y-82590063D01*
X107572220Y-82570057D01*
X107569309Y-82539262D01*
X107567780Y-82523080D01*
X107567500Y-82517148D01*
X107567500Y-79147935D01*
X111485269Y-79147935D01*
X111515735Y-79320711D01*
X111549847Y-79399793D01*
X111585224Y-79481807D01*
X111689987Y-79622527D01*
X111689989Y-79622528D01*
X111689990Y-79622530D01*
X111742384Y-79666494D01*
X111824384Y-79735301D01*
X111824386Y-79735302D01*
X111981167Y-79814040D01*
X112151879Y-79854500D01*
X112151881Y-79854500D01*
X112283312Y-79854500D01*
X112381218Y-79843055D01*
X112413855Y-79839241D01*
X112578717Y-79779237D01*
X112725296Y-79682830D01*
X112845692Y-79555218D01*
X112933412Y-79403281D01*
X112983730Y-79235210D01*
X112993931Y-79060065D01*
X112963465Y-78887289D01*
X112893977Y-78726196D01*
X112893976Y-78726195D01*
X112893975Y-78726192D01*
X112789212Y-78585472D01*
X112785037Y-78581969D01*
X112743118Y-78546794D01*
X112654815Y-78472698D01*
X112498034Y-78393960D01*
X112428267Y-78377425D01*
X112327321Y-78353500D01*
X112195891Y-78353500D01*
X112195888Y-78353500D01*
X112065345Y-78368758D01*
X112065343Y-78368759D01*
X111900487Y-78428761D01*
X111900474Y-78428768D01*
X111753906Y-78525167D01*
X111633509Y-78652780D01*
X111633506Y-78652784D01*
X111545788Y-78804717D01*
X111495470Y-78972791D01*
X111486338Y-79129586D01*
X111485269Y-79147935D01*
X107567500Y-79147935D01*
X107567500Y-78823854D01*
X107569249Y-78808012D01*
X107568956Y-78807985D01*
X107569700Y-78800099D01*
X107569702Y-78800092D01*
X107567500Y-78730028D01*
X107567500Y-78700144D01*
X107566620Y-78693182D01*
X107566156Y-78687293D01*
X107564674Y-78640111D01*
X107559017Y-78620642D01*
X107555012Y-78601298D01*
X107552474Y-78581203D01*
X107535100Y-78537322D01*
X107533181Y-78531716D01*
X107531279Y-78525170D01*
X107520018Y-78486407D01*
X107509706Y-78468970D01*
X107501010Y-78451221D01*
X107493552Y-78432383D01*
X107465812Y-78394203D01*
X107462564Y-78389258D01*
X107438542Y-78348638D01*
X107424214Y-78334310D01*
X107411384Y-78319289D01*
X107399472Y-78302893D01*
X107399469Y-78302891D01*
X107399469Y-78302890D01*
X107363107Y-78272808D01*
X107358726Y-78268822D01*
X106038105Y-76948200D01*
X106004079Y-76885888D01*
X106001200Y-76859105D01*
X106001200Y-75262054D01*
X106002949Y-75246212D01*
X106002656Y-75246185D01*
X106003400Y-75238299D01*
X106003402Y-75238292D01*
X106001200Y-75168228D01*
X106001200Y-75138344D01*
X106000320Y-75131382D01*
X105999856Y-75125493D01*
X105998374Y-75078311D01*
X105992717Y-75058842D01*
X105988712Y-75039498D01*
X105986174Y-75019403D01*
X105968800Y-74975522D01*
X105966881Y-74969916D01*
X105966456Y-74968454D01*
X105953718Y-74924607D01*
X105943406Y-74907170D01*
X105934710Y-74889421D01*
X105927252Y-74870583D01*
X105899512Y-74832403D01*
X105896264Y-74827458D01*
X105872242Y-74786838D01*
X105857914Y-74772510D01*
X105845084Y-74757489D01*
X105833172Y-74741093D01*
X105833169Y-74741091D01*
X105833169Y-74741090D01*
X105796807Y-74711008D01*
X105792426Y-74707022D01*
X103782405Y-72697000D01*
X103748379Y-72634688D01*
X103745500Y-72607905D01*
X103745500Y-71659447D01*
X103734887Y-71555578D01*
X103734887Y-71555575D01*
X103679115Y-71387262D01*
X103586030Y-71236349D01*
X103586029Y-71236348D01*
X103586024Y-71236342D01*
X103460657Y-71110975D01*
X103460649Y-71110968D01*
X103364352Y-71051571D01*
X103316875Y-70998785D01*
X103304500Y-70944331D01*
X103304500Y-68686724D01*
X103324502Y-68618603D01*
X103336858Y-68602420D01*
X103410040Y-68521144D01*
X103505527Y-68355756D01*
X103513544Y-68331079D01*
X103544280Y-68280922D01*
X106338657Y-65486545D01*
X106351092Y-65476584D01*
X106350905Y-65476357D01*
X106357009Y-65471305D01*
X106357018Y-65471300D01*
X106404999Y-65420204D01*
X106426134Y-65399070D01*
X106430429Y-65393532D01*
X106434271Y-65389031D01*
X106466586Y-65354621D01*
X106476345Y-65336867D01*
X106487197Y-65320346D01*
X106499613Y-65304341D01*
X106518352Y-65261033D01*
X106520954Y-65255722D01*
X106536308Y-65227795D01*
X106586654Y-65177739D01*
X106646721Y-65162500D01*
X107066643Y-65162500D01*
X107134764Y-65182502D01*
X107181257Y-65236158D01*
X107191791Y-65273873D01*
X107195347Y-65304294D01*
X107202112Y-65381619D01*
X107203596Y-65388806D01*
X107203531Y-65388819D01*
X107205165Y-65396189D01*
X107205229Y-65396175D01*
X107206921Y-65403316D01*
X107226835Y-65458026D01*
X107233473Y-65476265D01*
X107233579Y-65476584D01*
X107257885Y-65549936D01*
X107260987Y-65556588D01*
X107260926Y-65556616D01*
X107264211Y-65563402D01*
X107264270Y-65563373D01*
X107267560Y-65569924D01*
X107310233Y-65634805D01*
X107350967Y-65700848D01*
X107355522Y-65706608D01*
X107355468Y-65706650D01*
X107360228Y-65712492D01*
X107360279Y-65712450D01*
X107364993Y-65718068D01*
X107364998Y-65718073D01*
X107364999Y-65718074D01*
X107421482Y-65771363D01*
X107876098Y-66225979D01*
X107888065Y-66239827D01*
X107902531Y-66259258D01*
X107937492Y-66288594D01*
X107942975Y-66293194D01*
X107947021Y-66296902D01*
X107952899Y-66302780D01*
X107978896Y-66323336D01*
X108038360Y-66373232D01*
X108038366Y-66373235D01*
X108044495Y-66377267D01*
X108044457Y-66377323D01*
X108050813Y-66381372D01*
X108050849Y-66381315D01*
X108057089Y-66385163D01*
X108057094Y-66385167D01*
X108127453Y-66417975D01*
X108196812Y-66452809D01*
X108196819Y-66452810D01*
X108203707Y-66455318D01*
X108203684Y-66455380D01*
X108210810Y-66457857D01*
X108210831Y-66457795D01*
X108217788Y-66460099D01*
X108217793Y-66460102D01*
X108293822Y-66475800D01*
X108331582Y-66484750D01*
X108369343Y-66493700D01*
X108376632Y-66494552D01*
X108376624Y-66494618D01*
X108384122Y-66495384D01*
X108384128Y-66495318D01*
X108391435Y-66495956D01*
X108391442Y-66495958D01*
X108469045Y-66493700D01*
X111507116Y-66493700D01*
X111575237Y-66513702D01*
X111621730Y-66567358D01*
X111631834Y-66637632D01*
X111616235Y-66682700D01*
X111545788Y-66804717D01*
X111495470Y-66972791D01*
X111485358Y-67146411D01*
X111485269Y-67147935D01*
X111515735Y-67320711D01*
X111522557Y-67336526D01*
X111585224Y-67481807D01*
X111689987Y-67622527D01*
X111689989Y-67622528D01*
X111689990Y-67622530D01*
X111745868Y-67669417D01*
X111824384Y-67735301D01*
X111824386Y-67735302D01*
X111981167Y-67814040D01*
X112151879Y-67854500D01*
X112151881Y-67854500D01*
X112283312Y-67854500D01*
X112381218Y-67843055D01*
X112413855Y-67839241D01*
X112578717Y-67779237D01*
X112725296Y-67682830D01*
X112845692Y-67555218D01*
X112933412Y-67403281D01*
X112983730Y-67235210D01*
X112990672Y-67116004D01*
X113014602Y-67049162D01*
X113070871Y-67005868D01*
X113141613Y-66999867D01*
X113204370Y-67033066D01*
X113205555Y-67034236D01*
X113910995Y-67739676D01*
X113945021Y-67801988D01*
X113947900Y-67828771D01*
X113947900Y-68876434D01*
X113927898Y-68944555D01*
X113874242Y-68991048D01*
X113803968Y-69001152D01*
X113768650Y-68990629D01*
X113611507Y-68917352D01*
X113611503Y-68917350D01*
X113398887Y-68860380D01*
X113179600Y-68841195D01*
X112960312Y-68860380D01*
X112747696Y-68917350D01*
X112747692Y-68917352D01*
X112548198Y-69010378D01*
X112487611Y-69052801D01*
X112922172Y-69487362D01*
X112956198Y-69549674D01*
X112951133Y-69620489D01*
X112912454Y-69672157D01*
X112913311Y-69673147D01*
X112908764Y-69677086D01*
X112908586Y-69677325D01*
X112908098Y-69677663D01*
X112797838Y-69773202D01*
X112761775Y-69829318D01*
X112708119Y-69875811D01*
X112637845Y-69885914D01*
X112573264Y-69856421D01*
X112566682Y-69850292D01*
X112128401Y-69412011D01*
X112085978Y-69472598D01*
X111992952Y-69672092D01*
X111992950Y-69672096D01*
X111935980Y-69884712D01*
X111916795Y-70104000D01*
X111935980Y-70323287D01*
X111992950Y-70535903D01*
X111992952Y-70535907D01*
X112085978Y-70735402D01*
X112128401Y-70795986D01*
X112566680Y-70357706D01*
X112628993Y-70323681D01*
X112699808Y-70328745D01*
X112756644Y-70371292D01*
X112761774Y-70378680D01*
X112771325Y-70393542D01*
X112797839Y-70434798D01*
X112906500Y-70528952D01*
X112906501Y-70528952D01*
X112913311Y-70534853D01*
X112911286Y-70537189D01*
X112947684Y-70579187D01*
X112957795Y-70649460D01*
X112928309Y-70714043D01*
X112922172Y-70720636D01*
X112487612Y-71155197D01*
X112548200Y-71197622D01*
X112747692Y-71290647D01*
X112747696Y-71290649D01*
X112960312Y-71347619D01*
X113179600Y-71366804D01*
X113398887Y-71347619D01*
X113611503Y-71290649D01*
X113611512Y-71290645D01*
X113768649Y-71217371D01*
X113838841Y-71206709D01*
X113903654Y-71235689D01*
X113942510Y-71295108D01*
X113947900Y-71331565D01*
X113947900Y-71566359D01*
X113946570Y-71584619D01*
X113943059Y-71608589D01*
X113947509Y-71659456D01*
X113947660Y-71661172D01*
X113947900Y-71666666D01*
X113947900Y-71674982D01*
X113951747Y-71707894D01*
X113958512Y-71785219D01*
X113959996Y-71792406D01*
X113959931Y-71792419D01*
X113961565Y-71799789D01*
X113961629Y-71799775D01*
X113963320Y-71806911D01*
X113979611Y-71851670D01*
X113984113Y-71922524D01*
X113949594Y-71984564D01*
X113887014Y-72018093D01*
X113816240Y-72012466D01*
X113807959Y-72008959D01*
X113611508Y-71917352D01*
X113611503Y-71917350D01*
X113398887Y-71860380D01*
X113179600Y-71841195D01*
X112960312Y-71860380D01*
X112747696Y-71917350D01*
X112747692Y-71917352D01*
X112548198Y-72010378D01*
X112487611Y-72052801D01*
X112922172Y-72487362D01*
X112956198Y-72549674D01*
X112951133Y-72620489D01*
X112912454Y-72672157D01*
X112913311Y-72673147D01*
X112908764Y-72677086D01*
X112908586Y-72677325D01*
X112908098Y-72677663D01*
X112797838Y-72773202D01*
X112761775Y-72829318D01*
X112708119Y-72875811D01*
X112637845Y-72885914D01*
X112573264Y-72856421D01*
X112566682Y-72850292D01*
X112128401Y-72412011D01*
X112085978Y-72472598D01*
X111992952Y-72672092D01*
X111992950Y-72672096D01*
X111935980Y-72884712D01*
X111916795Y-73104000D01*
X111935980Y-73323287D01*
X111992950Y-73535903D01*
X111992952Y-73535907D01*
X112085978Y-73735402D01*
X112128401Y-73795986D01*
X112566680Y-73357706D01*
X112628993Y-73323681D01*
X112699808Y-73328745D01*
X112756644Y-73371292D01*
X112761774Y-73378680D01*
X112795015Y-73430405D01*
X112797839Y-73434798D01*
X112906500Y-73528952D01*
X112906501Y-73528952D01*
X112913311Y-73534853D01*
X112911286Y-73537189D01*
X112947684Y-73579187D01*
X112957795Y-73649460D01*
X112928309Y-73714043D01*
X112922172Y-73720636D01*
X112487612Y-74155197D01*
X112548200Y-74197622D01*
X112747692Y-74290647D01*
X112747696Y-74290649D01*
X112960312Y-74347619D01*
X113179600Y-74366804D01*
X113398887Y-74347619D01*
X113611503Y-74290649D01*
X113611512Y-74290645D01*
X113811005Y-74197619D01*
X113811012Y-74197615D01*
X113871586Y-74155198D01*
X113871586Y-74155196D01*
X113437027Y-73720637D01*
X113403001Y-73658325D01*
X113408066Y-73587510D01*
X113446745Y-73535840D01*
X113445889Y-73534853D01*
X113450430Y-73530917D01*
X113450613Y-73530674D01*
X113451110Y-73530328D01*
X113452695Y-73528953D01*
X113452700Y-73528952D01*
X113561361Y-73434798D01*
X113597426Y-73378679D01*
X113651077Y-73332188D01*
X113721351Y-73322083D01*
X113785932Y-73351575D01*
X113792518Y-73357706D01*
X114230797Y-73795986D01*
X114230798Y-73795986D01*
X114273215Y-73735412D01*
X114273219Y-73735405D01*
X114366245Y-73535912D01*
X114366249Y-73535903D01*
X114423219Y-73323287D01*
X114442404Y-73104000D01*
X114423219Y-72884712D01*
X114374939Y-72704528D01*
X114376629Y-72633552D01*
X114416423Y-72574756D01*
X114481687Y-72546808D01*
X114551701Y-72558581D01*
X114585741Y-72582822D01*
X114890081Y-72887162D01*
X114924107Y-72949474D01*
X114926507Y-72987237D01*
X114916293Y-73103999D01*
X114935485Y-73323371D01*
X114935485Y-73323373D01*
X114943884Y-73354718D01*
X114942193Y-73425695D01*
X114911272Y-73476422D01*
X114715940Y-73671754D01*
X114703503Y-73681719D01*
X114703691Y-73681946D01*
X114697582Y-73686999D01*
X114649615Y-73738079D01*
X114628466Y-73759227D01*
X114624160Y-73764777D01*
X114620314Y-73769279D01*
X114588017Y-73803674D01*
X114588011Y-73803683D01*
X114578251Y-73821435D01*
X114567403Y-73837950D01*
X114554986Y-73853958D01*
X114536245Y-73897264D01*
X114533634Y-73902594D01*
X114510905Y-73943939D01*
X114510903Y-73943944D01*
X114505867Y-73963559D01*
X114499464Y-73982262D01*
X114491419Y-74000852D01*
X114484037Y-74047456D01*
X114482833Y-74053268D01*
X114471100Y-74098968D01*
X114471100Y-74119223D01*
X114469549Y-74138933D01*
X114466380Y-74158942D01*
X114466380Y-74158943D01*
X114470820Y-74205917D01*
X114471100Y-74211850D01*
X114471100Y-75355577D01*
X114451098Y-75423698D01*
X114397442Y-75470191D01*
X114327168Y-75480295D01*
X114262588Y-75450801D01*
X114241887Y-75427848D01*
X114230798Y-75412012D01*
X114230796Y-75412012D01*
X113792517Y-75850292D01*
X113730205Y-75884318D01*
X113659390Y-75879253D01*
X113602554Y-75836706D01*
X113597424Y-75829317D01*
X113561362Y-75773203D01*
X113561361Y-75773202D01*
X113452700Y-75679048D01*
X113452698Y-75679047D01*
X113445889Y-75673147D01*
X113447910Y-75670813D01*
X113411502Y-75628786D01*
X113401407Y-75558511D01*
X113430907Y-75493933D01*
X113437027Y-75487362D01*
X113871586Y-75052802D01*
X113871586Y-75052800D01*
X113811001Y-75010378D01*
X113811002Y-75010378D01*
X113611507Y-74917352D01*
X113611503Y-74917350D01*
X113398887Y-74860380D01*
X113179600Y-74841195D01*
X112960312Y-74860380D01*
X112747696Y-74917350D01*
X112747692Y-74917352D01*
X112548198Y-75010378D01*
X112487611Y-75052801D01*
X112922172Y-75487362D01*
X112956198Y-75549674D01*
X112951133Y-75620489D01*
X112912454Y-75672157D01*
X112913311Y-75673147D01*
X112908764Y-75677086D01*
X112908586Y-75677325D01*
X112908098Y-75677663D01*
X112797838Y-75773202D01*
X112761775Y-75829318D01*
X112708119Y-75875811D01*
X112637845Y-75885914D01*
X112573264Y-75856421D01*
X112566682Y-75850292D01*
X112128401Y-75412011D01*
X112085978Y-75472598D01*
X111992952Y-75672092D01*
X111992950Y-75672096D01*
X111935980Y-75884712D01*
X111916795Y-76104000D01*
X111935980Y-76323287D01*
X111992950Y-76535903D01*
X111992952Y-76535907D01*
X112085978Y-76735402D01*
X112128401Y-76795986D01*
X112566680Y-76357706D01*
X112628993Y-76323681D01*
X112699808Y-76328745D01*
X112756644Y-76371292D01*
X112761774Y-76378680D01*
X112793390Y-76427876D01*
X112797839Y-76434798D01*
X112906500Y-76528952D01*
X112906501Y-76528952D01*
X112913311Y-76534853D01*
X112911286Y-76537189D01*
X112947684Y-76579187D01*
X112957795Y-76649460D01*
X112928309Y-76714043D01*
X112922172Y-76720636D01*
X112487612Y-77155197D01*
X112548200Y-77197622D01*
X112747692Y-77290647D01*
X112747696Y-77290649D01*
X112960312Y-77347619D01*
X113179600Y-77366804D01*
X113398887Y-77347619D01*
X113611503Y-77290649D01*
X113611512Y-77290645D01*
X113811005Y-77197619D01*
X113811012Y-77197615D01*
X113871586Y-77155198D01*
X113871586Y-77155196D01*
X113437027Y-76720637D01*
X113403001Y-76658325D01*
X113408066Y-76587510D01*
X113446745Y-76535840D01*
X113445889Y-76534853D01*
X113450430Y-76530917D01*
X113450613Y-76530674D01*
X113451110Y-76530328D01*
X113452695Y-76528953D01*
X113452700Y-76528952D01*
X113561361Y-76434798D01*
X113597426Y-76378679D01*
X113651077Y-76332188D01*
X113721351Y-76322083D01*
X113785932Y-76351575D01*
X113792518Y-76357706D01*
X114230797Y-76795986D01*
X114230798Y-76795986D01*
X114273210Y-76735419D01*
X114275600Y-76731279D01*
X114326974Y-76682276D01*
X114396685Y-76668827D01*
X114462601Y-76695202D01*
X114501885Y-76747882D01*
X114503494Y-76751946D01*
X114505416Y-76757560D01*
X114518582Y-76802872D01*
X114518582Y-76802873D01*
X114528894Y-76820311D01*
X114537588Y-76838059D01*
X114545044Y-76856889D01*
X114545050Y-76856900D01*
X114572777Y-76895063D01*
X114576037Y-76900026D01*
X114600060Y-76940645D01*
X114614379Y-76954964D01*
X114627217Y-76969994D01*
X114636756Y-76983123D01*
X114639128Y-76986387D01*
X114667394Y-77009771D01*
X114675486Y-77016465D01*
X114679867Y-77020451D01*
X114961977Y-77302561D01*
X115227073Y-77567657D01*
X115237040Y-77580097D01*
X115237267Y-77579910D01*
X115242319Y-77586017D01*
X115242320Y-77586018D01*
X115293415Y-77633999D01*
X115314551Y-77655135D01*
X115320090Y-77659431D01*
X115324602Y-77663285D01*
X115346173Y-77683542D01*
X115358998Y-77695585D01*
X115359002Y-77695588D01*
X115376750Y-77705345D01*
X115393277Y-77716201D01*
X115409280Y-77728614D01*
X115452579Y-77747351D01*
X115457905Y-77749960D01*
X115499255Y-77772693D01*
X115499258Y-77772694D01*
X115499260Y-77772695D01*
X115518882Y-77777733D01*
X115537583Y-77784135D01*
X115549658Y-77789361D01*
X115556172Y-77792180D01*
X115556173Y-77792180D01*
X115556175Y-77792181D01*
X115602797Y-77799564D01*
X115608582Y-77800763D01*
X115654290Y-77812500D01*
X115674544Y-77812500D01*
X115694254Y-77814051D01*
X115696461Y-77814400D01*
X115714263Y-77817220D01*
X115748792Y-77813956D01*
X115761237Y-77812780D01*
X115767170Y-77812500D01*
X116541027Y-77812500D01*
X116556868Y-77814249D01*
X116556896Y-77813956D01*
X116564782Y-77814700D01*
X116564789Y-77814702D01*
X116634838Y-77812500D01*
X116664736Y-77812500D01*
X116671698Y-77811619D01*
X116677599Y-77811154D01*
X116724769Y-77809673D01*
X116744227Y-77804019D01*
X116763574Y-77800013D01*
X116783677Y-77797474D01*
X116827559Y-77780099D01*
X116833154Y-77778183D01*
X116861696Y-77769891D01*
X116878471Y-77765019D01*
X116878475Y-77765017D01*
X116895906Y-77754708D01*
X116913660Y-77746009D01*
X116932497Y-77738552D01*
X116970666Y-77710818D01*
X116975624Y-77707562D01*
X117016242Y-77683542D01*
X117030565Y-77669218D01*
X117045604Y-77656374D01*
X117061987Y-77644472D01*
X117092073Y-77608103D01*
X117096041Y-77603741D01*
X119581657Y-75118125D01*
X119594092Y-75108164D01*
X119593905Y-75107937D01*
X119600009Y-75102885D01*
X119600018Y-75102880D01*
X119647999Y-75051784D01*
X119669134Y-75030650D01*
X119673436Y-75025102D01*
X119677266Y-75020616D01*
X119709586Y-74986201D01*
X119719348Y-74968443D01*
X119730194Y-74951931D01*
X119742614Y-74935921D01*
X119761355Y-74892608D01*
X119763966Y-74887281D01*
X119786695Y-74845940D01*
X119791733Y-74826314D01*
X119798137Y-74807612D01*
X119806180Y-74789027D01*
X119806179Y-74789027D01*
X119806181Y-74789025D01*
X119813561Y-74742427D01*
X119814762Y-74736620D01*
X119826500Y-74690910D01*
X119826500Y-74670655D01*
X119828051Y-74650943D01*
X119831220Y-74630937D01*
X119828629Y-74603531D01*
X119826780Y-74583960D01*
X119826500Y-74578028D01*
X119826500Y-59789682D01*
X119828249Y-59773840D01*
X119827956Y-59773813D01*
X119828700Y-59765927D01*
X119828702Y-59765920D01*
X119826500Y-59695856D01*
X119826500Y-59665972D01*
X119825620Y-59659010D01*
X119825156Y-59653121D01*
X119823674Y-59605939D01*
X119818017Y-59586470D01*
X119814012Y-59567126D01*
X119811474Y-59547031D01*
X119794100Y-59503150D01*
X119792181Y-59497544D01*
X119791610Y-59495580D01*
X119779018Y-59452235D01*
X119768706Y-59434798D01*
X119760010Y-59417049D01*
X119752552Y-59398211D01*
X119724812Y-59360031D01*
X119721564Y-59355086D01*
X119697542Y-59314466D01*
X119683214Y-59300138D01*
X119670384Y-59285117D01*
X119658472Y-59268721D01*
X119658469Y-59268719D01*
X119658469Y-59268718D01*
X119622107Y-59238636D01*
X119617726Y-59234650D01*
X118347416Y-57964339D01*
X118337451Y-57951901D01*
X118337224Y-57952090D01*
X118332173Y-57945984D01*
X118332172Y-57945982D01*
X118317576Y-57932276D01*
X118281092Y-57898015D01*
X118259949Y-57876871D01*
X118259944Y-57876866D01*
X118254397Y-57872563D01*
X118249889Y-57868712D01*
X118215497Y-57836417D01*
X118215491Y-57836413D01*
X118197735Y-57826651D01*
X118181219Y-57815802D01*
X118165213Y-57803386D01*
X118134461Y-57790078D01*
X118121912Y-57784648D01*
X118116580Y-57782036D01*
X118075233Y-57759305D01*
X118055608Y-57754266D01*
X118036908Y-57747864D01*
X118018317Y-57739819D01*
X118018315Y-57739818D01*
X118018314Y-57739818D01*
X117971714Y-57732437D01*
X117965901Y-57731233D01*
X117920202Y-57719500D01*
X117899948Y-57719500D01*
X117880238Y-57717949D01*
X117860229Y-57714780D01*
X117860228Y-57714780D01*
X117813255Y-57719220D01*
X117807322Y-57719500D01*
X114279594Y-57719500D01*
X114211473Y-57699498D01*
X114190499Y-57682595D01*
X111943511Y-55435607D01*
X110931669Y-54423765D01*
X114731788Y-54423765D01*
X114761412Y-54693014D01*
X114829928Y-54955090D01*
X114935869Y-55204389D01*
X114935870Y-55204390D01*
X115076982Y-55435610D01*
X115250255Y-55643820D01*
X115250257Y-55643822D01*
X115250259Y-55643824D01*
X115299005Y-55687500D01*
X115451998Y-55824582D01*
X115677910Y-55974044D01*
X115923176Y-56089020D01*
X116182569Y-56167060D01*
X116182572Y-56167060D01*
X116182574Y-56167061D01*
X116450557Y-56206500D01*
X116450561Y-56206500D01*
X116653633Y-56206500D01*
X116688363Y-56203957D01*
X116856156Y-56191677D01*
X116856160Y-56191676D01*
X116856161Y-56191676D01*
X116966665Y-56167060D01*
X117120553Y-56132780D01*
X117373558Y-56036014D01*
X117609777Y-55903441D01*
X117824177Y-55737888D01*
X118012186Y-55542881D01*
X118169799Y-55322579D01*
X118293656Y-55081675D01*
X118381118Y-54825305D01*
X118406290Y-54689025D01*
X118430318Y-54558941D01*
X118430319Y-54558930D01*
X118431656Y-54522344D01*
X118440212Y-54288235D01*
X118421760Y-54120536D01*
X118410587Y-54018985D01*
X118342071Y-53756909D01*
X118236130Y-53507610D01*
X118184447Y-53422925D01*
X118095018Y-53276390D01*
X117921745Y-53068180D01*
X117921741Y-53068177D01*
X117921740Y-53068175D01*
X117720012Y-52887427D01*
X117720002Y-52887418D01*
X117494090Y-52737956D01*
X117248824Y-52622980D01*
X117070536Y-52569341D01*
X116989425Y-52544938D01*
X116721442Y-52505500D01*
X116721439Y-52505500D01*
X116518369Y-52505500D01*
X116518367Y-52505500D01*
X116315839Y-52520323D01*
X116315838Y-52520323D01*
X116051456Y-52579217D01*
X116051441Y-52579222D01*
X115798441Y-52675986D01*
X115562229Y-52808555D01*
X115562225Y-52808557D01*
X115347818Y-52974116D01*
X115159815Y-53169117D01*
X115159810Y-53169123D01*
X115002203Y-53389417D01*
X115002196Y-53389427D01*
X114878343Y-53630324D01*
X114878342Y-53630327D01*
X114790883Y-53886689D01*
X114790880Y-53886702D01*
X114741681Y-54153058D01*
X114741680Y-54153069D01*
X114731788Y-54423765D01*
X110931669Y-54423765D01*
X109633402Y-53125497D01*
X109599378Y-53063188D01*
X109596500Y-53036414D01*
X109596500Y-51427362D01*
X109596499Y-51427350D01*
X109589990Y-51366803D01*
X109589988Y-51366795D01*
X109560924Y-51288875D01*
X109538889Y-51229796D01*
X109538888Y-51229794D01*
X109538887Y-51229792D01*
X109451261Y-51112738D01*
X109334207Y-51025112D01*
X109334202Y-51025110D01*
X109197204Y-50974011D01*
X109197196Y-50974009D01*
X109136649Y-50967500D01*
X109136638Y-50967500D01*
X105239362Y-50967500D01*
X105239350Y-50967500D01*
X105178803Y-50974009D01*
X105178795Y-50974011D01*
X105041797Y-51025110D01*
X105041792Y-51025112D01*
X104924738Y-51112738D01*
X104837112Y-51229792D01*
X104837110Y-51229797D01*
X104786011Y-51366795D01*
X104786009Y-51366803D01*
X104779500Y-51427350D01*
X104779500Y-53524649D01*
X104786009Y-53585196D01*
X104786011Y-53585204D01*
X104788301Y-53591342D01*
X104793367Y-53662158D01*
X104759342Y-53724470D01*
X104697030Y-53758495D01*
X104626214Y-53753431D01*
X104581151Y-53724470D01*
X102841908Y-51985227D01*
X102829936Y-51971375D01*
X102815469Y-51951942D01*
X102815467Y-51951940D01*
X102775024Y-51918003D01*
X102770970Y-51914289D01*
X102765107Y-51908425D01*
X102739104Y-51887864D01*
X102679636Y-51837965D01*
X102673506Y-51833933D01*
X102673541Y-51833878D01*
X102667187Y-51829829D01*
X102667153Y-51829886D01*
X102660906Y-51826033D01*
X102590540Y-51793220D01*
X102558499Y-51777129D01*
X102521188Y-51758391D01*
X102521186Y-51758390D01*
X102521183Y-51758389D01*
X102514289Y-51755880D01*
X102514311Y-51755817D01*
X102507189Y-51753341D01*
X102507169Y-51753404D01*
X102500209Y-51751097D01*
X102424150Y-51735392D01*
X102348652Y-51717499D01*
X102341367Y-51716648D01*
X102341374Y-51716580D01*
X102333877Y-51715814D01*
X102333872Y-51715881D01*
X102326559Y-51715241D01*
X102326558Y-51715241D01*
X102248920Y-51717500D01*
X99562500Y-51717500D01*
X99494379Y-51697498D01*
X99447886Y-51643842D01*
X99436500Y-51591500D01*
X99436500Y-51427367D01*
X99436499Y-51427350D01*
X99429990Y-51366803D01*
X99429988Y-51366795D01*
X99400924Y-51288875D01*
X99378889Y-51229796D01*
X99378888Y-51229794D01*
X99378887Y-51229792D01*
X99291261Y-51112738D01*
X99174207Y-51025112D01*
X99174202Y-51025110D01*
X99037204Y-50974011D01*
X99037196Y-50974009D01*
X98976649Y-50967500D01*
X98976638Y-50967500D01*
X95079362Y-50967500D01*
X95079350Y-50967500D01*
X95018803Y-50974009D01*
X95018795Y-50974011D01*
X94881797Y-51025110D01*
X94881792Y-51025112D01*
X94764738Y-51112738D01*
X94677112Y-51229792D01*
X94677110Y-51229797D01*
X94626011Y-51366795D01*
X94626009Y-51366803D01*
X94619500Y-51427350D01*
X94619500Y-53524649D01*
X94626009Y-53585196D01*
X94626011Y-53585204D01*
X94677110Y-53722202D01*
X94677112Y-53722207D01*
X94764738Y-53839261D01*
X94881792Y-53926887D01*
X94881794Y-53926888D01*
X94881796Y-53926889D01*
X94899521Y-53933500D01*
X95018795Y-53977988D01*
X95018803Y-53977990D01*
X95079350Y-53984499D01*
X95079355Y-53984499D01*
X95079362Y-53984500D01*
X95079368Y-53984500D01*
X98976632Y-53984500D01*
X98976638Y-53984500D01*
X98976645Y-53984499D01*
X98976649Y-53984499D01*
X99037196Y-53977990D01*
X99037199Y-53977989D01*
X99037201Y-53977989D01*
X99174204Y-53926889D01*
X99227888Y-53886702D01*
X99291261Y-53839261D01*
X99378887Y-53722207D01*
X99378887Y-53722206D01*
X99378889Y-53722204D01*
X99429989Y-53585201D01*
X99436500Y-53524638D01*
X99436500Y-53360500D01*
X99456502Y-53292379D01*
X99510158Y-53245886D01*
X99562500Y-53234500D01*
X101893629Y-53234500D01*
X101961750Y-53254502D01*
X101982724Y-53271405D01*
X102429724Y-53718405D01*
X102463750Y-53780717D01*
X102458685Y-53851532D01*
X102416138Y-53908368D01*
X102349618Y-53933179D01*
X102340629Y-53933500D01*
X101432448Y-53933500D01*
X101328578Y-53944112D01*
X101160262Y-53999885D01*
X101160260Y-53999886D01*
X101009348Y-54092970D01*
X101009342Y-54092975D01*
X100883975Y-54218342D01*
X100883970Y-54218348D01*
X100790885Y-54369261D01*
X100769224Y-54434633D01*
X100728810Y-54493004D01*
X100663253Y-54520260D01*
X100649619Y-54521000D01*
X96821353Y-54521000D01*
X96805511Y-54519250D01*
X96805484Y-54519544D01*
X96797592Y-54518798D01*
X96797591Y-54518798D01*
X96727542Y-54521000D01*
X96697644Y-54521000D01*
X96697640Y-54521000D01*
X96697630Y-54521001D01*
X96690679Y-54521879D01*
X96684767Y-54522344D01*
X96637612Y-54523826D01*
X96637610Y-54523827D01*
X96618155Y-54529478D01*
X96598802Y-54533486D01*
X96578710Y-54536024D01*
X96578702Y-54536026D01*
X96534836Y-54553393D01*
X96529221Y-54555316D01*
X96483907Y-54568482D01*
X96466464Y-54578797D01*
X96448718Y-54587490D01*
X96429882Y-54594948D01*
X96391709Y-54622681D01*
X96386748Y-54625940D01*
X96346138Y-54649958D01*
X96331811Y-54664284D01*
X96316785Y-54677117D01*
X96300395Y-54689025D01*
X96300393Y-54689027D01*
X96270308Y-54725392D01*
X96266312Y-54729783D01*
X94339336Y-56656757D01*
X94326901Y-56666721D01*
X94327089Y-56666948D01*
X94320980Y-56672001D01*
X94273015Y-56723079D01*
X94251866Y-56744227D01*
X94247560Y-56749777D01*
X94243714Y-56754279D01*
X94211417Y-56788674D01*
X94211411Y-56788683D01*
X94201651Y-56806435D01*
X94190803Y-56822950D01*
X94178386Y-56838958D01*
X94159645Y-56882264D01*
X94157034Y-56887594D01*
X94134305Y-56928939D01*
X94134303Y-56928944D01*
X94129267Y-56948559D01*
X94122864Y-56967262D01*
X94114819Y-56985852D01*
X94107437Y-57032456D01*
X94106233Y-57038268D01*
X94094500Y-57083968D01*
X94094500Y-57104223D01*
X94092949Y-57123933D01*
X94089779Y-57143943D01*
X94089732Y-57145463D01*
X94089359Y-57146598D01*
X94088540Y-57151772D01*
X94087705Y-57151639D01*
X94067597Y-57212921D01*
X94012505Y-57257703D01*
X93963794Y-57267500D01*
X93929350Y-57267500D01*
X93868803Y-57274009D01*
X93868795Y-57274011D01*
X93731797Y-57325110D01*
X93731792Y-57325112D01*
X93614738Y-57412738D01*
X93527112Y-57529792D01*
X93527110Y-57529797D01*
X93476011Y-57666795D01*
X93476009Y-57666803D01*
X93469500Y-57727350D01*
X93469500Y-59824649D01*
X93476009Y-59885196D01*
X93476011Y-59885204D01*
X93527110Y-60022202D01*
X93527112Y-60022207D01*
X93614738Y-60139261D01*
X93731792Y-60226887D01*
X93731794Y-60226888D01*
X93731796Y-60226889D01*
X93792841Y-60249658D01*
X93876184Y-60280744D01*
X93875177Y-60283441D01*
X93925025Y-60311806D01*
X93957951Y-60374705D01*
X93951645Y-60445421D01*
X93935249Y-60474833D01*
X93891112Y-60533793D01*
X93891110Y-60533797D01*
X93840011Y-60670795D01*
X93840009Y-60670803D01*
X93833500Y-60731350D01*
X93833500Y-61659400D01*
X93813498Y-61727521D01*
X93759842Y-61774014D01*
X93707500Y-61785400D01*
X93339353Y-61785400D01*
X93323511Y-61783650D01*
X93323484Y-61783944D01*
X93315591Y-61783197D01*
X93245528Y-61785400D01*
X93215644Y-61785400D01*
X93215640Y-61785400D01*
X93215629Y-61785401D01*
X93208690Y-61786277D01*
X93202777Y-61786743D01*
X93155614Y-61788225D01*
X93155607Y-61788227D01*
X93136149Y-61793879D01*
X93116804Y-61797885D01*
X93096706Y-61800425D01*
X93096697Y-61800427D01*
X93052831Y-61817794D01*
X93047216Y-61819717D01*
X93001908Y-61832881D01*
X92984464Y-61843197D01*
X92966718Y-61851890D01*
X92947882Y-61859348D01*
X92909709Y-61887081D01*
X92904748Y-61890340D01*
X92864137Y-61914358D01*
X92849808Y-61928686D01*
X92834787Y-61941515D01*
X92818394Y-61953426D01*
X92818393Y-61953427D01*
X92788314Y-61989785D01*
X92784318Y-61994176D01*
X92677934Y-62100559D01*
X92665502Y-62110521D01*
X92665689Y-62110747D01*
X92659582Y-62115799D01*
X92611614Y-62166880D01*
X92590466Y-62188027D01*
X92586160Y-62193577D01*
X92582314Y-62198079D01*
X92550017Y-62232474D01*
X92550011Y-62232483D01*
X92540251Y-62250235D01*
X92529403Y-62266750D01*
X92524097Y-62273591D01*
X92466542Y-62315160D01*
X92395650Y-62319014D01*
X92335439Y-62285464D01*
X92247345Y-62197370D01*
X92247339Y-62197365D01*
X92096525Y-62104342D01*
X91928321Y-62048606D01*
X91928318Y-62048605D01*
X91824516Y-62038000D01*
X91703000Y-62038000D01*
X91703000Y-64454000D01*
X91824517Y-64454000D01*
X91824516Y-64453999D01*
X91928318Y-64443394D01*
X91928321Y-64443393D01*
X92096525Y-64387657D01*
X92240953Y-64298573D01*
X92309432Y-64279836D01*
X92377171Y-64301095D01*
X92422663Y-64355602D01*
X92433100Y-64405814D01*
X92433100Y-64768046D01*
X92431351Y-64783888D01*
X92431644Y-64783916D01*
X92430898Y-64791807D01*
X92433100Y-64861857D01*
X92433100Y-64891751D01*
X92433101Y-64891772D01*
X92433978Y-64898720D01*
X92434444Y-64904632D01*
X92435926Y-64951788D01*
X92435927Y-64951793D01*
X92441577Y-64971239D01*
X92445586Y-64990597D01*
X92448125Y-65010693D01*
X92448126Y-65010699D01*
X92465493Y-65054562D01*
X92467416Y-65060179D01*
X92480582Y-65105493D01*
X92490894Y-65122931D01*
X92499588Y-65140679D01*
X92507044Y-65159509D01*
X92507050Y-65159520D01*
X92534777Y-65197683D01*
X92538037Y-65202646D01*
X92552912Y-65227797D01*
X92560805Y-65241144D01*
X92562060Y-65243265D01*
X92576379Y-65257584D01*
X92589217Y-65272614D01*
X92590132Y-65273873D01*
X92601128Y-65289007D01*
X92619607Y-65304294D01*
X92637486Y-65319085D01*
X92641867Y-65323071D01*
X93090159Y-65771363D01*
X93509453Y-66190657D01*
X93519420Y-66203097D01*
X93519647Y-66202910D01*
X93524699Y-66209017D01*
X93575795Y-66256999D01*
X93596925Y-66278130D01*
X93602468Y-66282430D01*
X93606981Y-66286285D01*
X93622266Y-66300638D01*
X93641379Y-66318586D01*
X93641380Y-66318586D01*
X93641382Y-66318588D01*
X93659129Y-66328344D01*
X93675659Y-66339202D01*
X93691659Y-66351613D01*
X93713816Y-66361201D01*
X93734951Y-66370347D01*
X93740285Y-66372959D01*
X93781640Y-66395695D01*
X93796692Y-66399559D01*
X93857698Y-66435872D01*
X93883412Y-66477564D01*
X93891111Y-66498204D01*
X93891112Y-66498205D01*
X93891113Y-66498208D01*
X93978738Y-66615261D01*
X93980570Y-66616632D01*
X93981942Y-66618465D01*
X93985111Y-66621634D01*
X93984655Y-66622089D01*
X94023117Y-66673467D01*
X94028182Y-66744283D01*
X93994156Y-66806595D01*
X93931844Y-66840621D01*
X93905061Y-66843500D01*
X93343350Y-66843500D01*
X93282803Y-66850009D01*
X93282795Y-66850011D01*
X93145797Y-66901110D01*
X93145792Y-66901112D01*
X93028738Y-66988738D01*
X92941109Y-67105798D01*
X92932693Y-67128362D01*
X92890145Y-67185196D01*
X92849794Y-67205322D01*
X92813110Y-67215980D01*
X92813104Y-67215982D01*
X92795666Y-67226295D01*
X92777920Y-67234989D01*
X92759081Y-67242448D01*
X92759080Y-67242449D01*
X92720913Y-67270178D01*
X92715952Y-67273437D01*
X92675337Y-67297458D01*
X92661007Y-67311787D01*
X92645981Y-67324620D01*
X92629595Y-67336526D01*
X92629594Y-67336526D01*
X92599522Y-67372875D01*
X92595527Y-67377266D01*
X91809200Y-68163595D01*
X91746887Y-68197620D01*
X91720104Y-68200500D01*
X90804000Y-68200500D01*
X90735879Y-68180498D01*
X90689386Y-68126842D01*
X90678000Y-68074500D01*
X90678000Y-64521231D01*
X90698002Y-64453110D01*
X90751658Y-64406617D01*
X90821932Y-64396513D01*
X90843634Y-64401627D01*
X90969672Y-64443392D01*
X90969681Y-64443394D01*
X91073483Y-64453999D01*
X91073483Y-64454000D01*
X91195000Y-64454000D01*
X91195000Y-62038000D01*
X91073483Y-62038000D01*
X90969681Y-62048605D01*
X90969678Y-62048606D01*
X90843633Y-62090373D01*
X90772678Y-62092813D01*
X90711668Y-62056505D01*
X90679973Y-61992976D01*
X90678000Y-61970768D01*
X90678000Y-60706000D01*
X88518000Y-60706000D01*
X88449879Y-60685998D01*
X88403386Y-60632342D01*
X88392000Y-60580000D01*
X88392000Y-59415016D01*
X88412002Y-59346895D01*
X88465658Y-59300402D01*
X88535932Y-59290298D01*
X88590271Y-59311803D01*
X88770573Y-59438052D01*
X88971972Y-59531966D01*
X88971976Y-59531968D01*
X89186625Y-59589482D01*
X89408000Y-59608850D01*
X89629374Y-59589482D01*
X89844023Y-59531968D01*
X89844027Y-59531966D01*
X90045425Y-59438053D01*
X90045426Y-59438052D01*
X90108603Y-59393814D01*
X90108603Y-59393813D01*
X89575502Y-58860713D01*
X89541477Y-58798400D01*
X89546541Y-58727585D01*
X89589088Y-58670749D01*
X89604621Y-58660807D01*
X89645251Y-58638820D01*
X89731371Y-58545269D01*
X89732631Y-58542395D01*
X89735401Y-58539098D01*
X89737080Y-58536530D01*
X89737390Y-58536732D01*
X89778307Y-58488045D01*
X89846118Y-58467016D01*
X89914533Y-58485987D01*
X89937116Y-58503907D01*
X90467812Y-59034603D01*
X90467814Y-59034603D01*
X90512052Y-58971426D01*
X90512053Y-58971425D01*
X90605966Y-58770027D01*
X90605968Y-58770023D01*
X90663482Y-58555374D01*
X90682850Y-58333999D01*
X90663482Y-58112625D01*
X90605968Y-57897976D01*
X90605966Y-57897972D01*
X90512051Y-57696571D01*
X90467815Y-57633395D01*
X90467813Y-57633395D01*
X89934925Y-58166283D01*
X89872613Y-58200308D01*
X89801797Y-58195243D01*
X89744962Y-58152696D01*
X89740347Y-58146102D01*
X89692189Y-58072390D01*
X89692188Y-58072389D01*
X89590094Y-57992926D01*
X89548623Y-57935301D01*
X89544889Y-57864402D01*
X89578390Y-57804398D01*
X90108603Y-57274185D01*
X90108603Y-57274184D01*
X90045425Y-57229946D01*
X89844027Y-57136033D01*
X89844023Y-57136031D01*
X89629374Y-57078517D01*
X89408000Y-57059149D01*
X89186625Y-57078517D01*
X88971976Y-57136031D01*
X88971972Y-57136033D01*
X88770571Y-57229948D01*
X88590270Y-57356196D01*
X88522996Y-57378884D01*
X88454136Y-57361599D01*
X88405552Y-57309829D01*
X88392000Y-57252983D01*
X88392000Y-50697500D01*
X88412002Y-50629379D01*
X88465658Y-50582886D01*
X88518000Y-50571500D01*
X116577715Y-50571500D01*
X116584458Y-50571500D01*
X116587544Y-50571575D01*
G37*
G04 #@! TD.AperFunction*
G04 #@! TA.AperFunction,Conductor*
G36*
X105352121Y-81055002D02*
G01*
X105398614Y-81108658D01*
X105410000Y-81161000D01*
X105410000Y-82372000D01*
X105656517Y-82372000D01*
X105656516Y-82371999D01*
X105760318Y-82361394D01*
X105760321Y-82361393D01*
X105928523Y-82305657D01*
X105934612Y-82301902D01*
X106003090Y-82283161D01*
X106070830Y-82304418D01*
X106116324Y-82358923D01*
X106125129Y-82429371D01*
X106094449Y-82493396D01*
X106089859Y-82498235D01*
X103914500Y-84673595D01*
X103852188Y-84707620D01*
X103825405Y-84710500D01*
X103278245Y-84710500D01*
X103210124Y-84690498D01*
X103163631Y-84636842D01*
X103153527Y-84566568D01*
X103183021Y-84501988D01*
X103238612Y-84464896D01*
X103272521Y-84453659D01*
X103423339Y-84360634D01*
X103423345Y-84360629D01*
X103548629Y-84235345D01*
X103548634Y-84235339D01*
X103641657Y-84084525D01*
X103697393Y-83916321D01*
X103697394Y-83916318D01*
X103707999Y-83812516D01*
X103708000Y-83812516D01*
X103708000Y-83566000D01*
X102497000Y-83566000D01*
X102428879Y-83545998D01*
X102382386Y-83492342D01*
X102371000Y-83440000D01*
X102371000Y-83184000D01*
X102391002Y-83115879D01*
X102444658Y-83069386D01*
X102497000Y-83058000D01*
X103708000Y-83058000D01*
X103708000Y-82811483D01*
X103697394Y-82707681D01*
X103697393Y-82707678D01*
X103641657Y-82539474D01*
X103548634Y-82388660D01*
X103548629Y-82388654D01*
X103423345Y-82263370D01*
X103423339Y-82263365D01*
X103266279Y-82166490D01*
X103267823Y-82163986D01*
X103224591Y-82125895D01*
X103205153Y-82057611D01*
X103225718Y-81989658D01*
X103279756Y-81943610D01*
X103295996Y-81937656D01*
X103385400Y-81911681D01*
X103528501Y-81827051D01*
X103528503Y-81827050D01*
X103646050Y-81709503D01*
X103646051Y-81709501D01*
X103713546Y-81595375D01*
X103765439Y-81546922D01*
X103835290Y-81534217D01*
X103900921Y-81561292D01*
X103941495Y-81619552D01*
X103948000Y-81659514D01*
X103948000Y-81664516D01*
X103958605Y-81768318D01*
X103958606Y-81768321D01*
X104014342Y-81936525D01*
X104107365Y-82087339D01*
X104107370Y-82087345D01*
X104232654Y-82212629D01*
X104232660Y-82212634D01*
X104383474Y-82305657D01*
X104551678Y-82361393D01*
X104551681Y-82361394D01*
X104655483Y-82371999D01*
X104655483Y-82372000D01*
X104902000Y-82372000D01*
X104902000Y-81161000D01*
X104922002Y-81092879D01*
X104975658Y-81046386D01*
X105028000Y-81035000D01*
X105284000Y-81035000D01*
X105352121Y-81055002D01*
G37*
G04 #@! TD.AperFunction*
G04 #@! TA.AperFunction,Conductor*
G36*
X98940527Y-79266502D02*
G01*
X98961501Y-79283405D01*
X99949753Y-80271657D01*
X99959720Y-80284097D01*
X99959947Y-80283910D01*
X99964999Y-80290017D01*
X100016095Y-80337999D01*
X100037225Y-80359130D01*
X100042768Y-80363430D01*
X100047281Y-80367285D01*
X100081679Y-80399586D01*
X100081680Y-80399586D01*
X100081682Y-80399588D01*
X100099429Y-80409344D01*
X100115959Y-80420202D01*
X100131959Y-80432613D01*
X100154925Y-80442551D01*
X100175251Y-80451347D01*
X100180585Y-80453959D01*
X100221940Y-80476695D01*
X100241562Y-80481733D01*
X100260263Y-80488135D01*
X100272814Y-80493567D01*
X100278852Y-80496180D01*
X100278853Y-80496180D01*
X100278855Y-80496181D01*
X100325477Y-80503564D01*
X100331262Y-80504763D01*
X100376970Y-80516500D01*
X100397224Y-80516500D01*
X100416934Y-80518051D01*
X100419141Y-80518400D01*
X100436943Y-80521220D01*
X100471007Y-80518000D01*
X100483917Y-80516780D01*
X100489850Y-80516500D01*
X100774357Y-80516500D01*
X100842478Y-80536502D01*
X100888971Y-80590158D01*
X100899075Y-80660432D01*
X100882811Y-80706639D01*
X100863318Y-80739598D01*
X100817007Y-80899000D01*
X102425000Y-80899000D01*
X102493121Y-80919002D01*
X102539614Y-80972658D01*
X102551000Y-81025000D01*
X102551000Y-81281000D01*
X102530998Y-81349121D01*
X102477342Y-81395614D01*
X102425000Y-81407000D01*
X100817007Y-81407000D01*
X100863318Y-81566401D01*
X100947948Y-81709501D01*
X100947949Y-81709503D01*
X101065497Y-81827051D01*
X101174274Y-81891381D01*
X101222726Y-81943274D01*
X101227956Y-81972029D01*
X101262105Y-81949180D01*
X101333090Y-81947866D01*
X101334991Y-81948402D01*
X101368249Y-81958065D01*
X101405539Y-81961000D01*
X101405540Y-81961000D01*
X101872582Y-81960999D01*
X101940703Y-81981001D01*
X101987196Y-82034656D01*
X101997300Y-82104930D01*
X101967807Y-82169511D01*
X101938730Y-82194239D01*
X101826662Y-82263363D01*
X101826654Y-82263370D01*
X101701370Y-82388654D01*
X101699157Y-82391454D01*
X101697149Y-82392875D01*
X101696175Y-82393850D01*
X101696008Y-82393683D01*
X101641216Y-82432482D01*
X101570291Y-82435672D01*
X101508900Y-82400011D01*
X101501483Y-82391450D01*
X101499028Y-82388345D01*
X101373658Y-82262975D01*
X101373652Y-82262970D01*
X101233688Y-82176639D01*
X101186210Y-82123853D01*
X101181872Y-82097199D01*
X101150097Y-82119330D01*
X101079149Y-82121966D01*
X101070506Y-82119441D01*
X101063187Y-82117016D01*
X101054426Y-82114113D01*
X101054422Y-82114112D01*
X101054420Y-82114112D01*
X100950553Y-82103500D01*
X100199455Y-82103500D01*
X100095574Y-82114112D01*
X99927261Y-82169885D01*
X99776347Y-82262970D01*
X99663594Y-82375723D01*
X99601282Y-82409748D01*
X99530466Y-82404682D01*
X99485404Y-82375722D01*
X99451657Y-82341975D01*
X99451651Y-82341970D01*
X99386691Y-82301902D01*
X99300738Y-82248885D01*
X99132425Y-82193113D01*
X99132423Y-82193112D01*
X99132421Y-82193112D01*
X99028552Y-82182500D01*
X99028544Y-82182500D01*
X98588094Y-82182500D01*
X98519973Y-82162498D01*
X98498999Y-82145595D01*
X98443605Y-82090201D01*
X98409579Y-82027889D01*
X98414644Y-81957074D01*
X98457191Y-81900238D01*
X98468561Y-81892653D01*
X98534172Y-81853849D01*
X98578807Y-81827453D01*
X98696453Y-81709807D01*
X98781145Y-81566601D01*
X98827562Y-81406831D01*
X98830500Y-81369502D01*
X98830500Y-80936498D01*
X98827562Y-80899169D01*
X98781145Y-80739399D01*
X98781143Y-80739397D01*
X98781143Y-80739394D01*
X98696456Y-80596198D01*
X98696455Y-80596197D01*
X98696453Y-80596193D01*
X98696449Y-80596189D01*
X98695708Y-80595233D01*
X98695356Y-80594337D01*
X98692418Y-80589369D01*
X98693219Y-80588895D01*
X98669756Y-80529150D01*
X98683652Y-80459526D01*
X98695708Y-80440767D01*
X98696445Y-80439814D01*
X98696453Y-80439807D01*
X98756662Y-80337999D01*
X98781143Y-80296605D01*
X98781143Y-80296603D01*
X98781145Y-80296601D01*
X98827562Y-80136831D01*
X98830500Y-80099502D01*
X98830500Y-79666498D01*
X98827562Y-79629169D01*
X98781145Y-79469399D01*
X98761771Y-79436639D01*
X98744312Y-79367822D01*
X98766829Y-79300491D01*
X98822174Y-79256022D01*
X98870225Y-79246500D01*
X98872406Y-79246500D01*
X98940527Y-79266502D01*
G37*
G04 #@! TD.AperFunction*
G04 #@! TA.AperFunction,Conductor*
G36*
X95859012Y-66193370D02*
G01*
X95865595Y-66199499D01*
X96302056Y-66635960D01*
X96336082Y-66698272D01*
X96331017Y-66769087D01*
X96288470Y-66825923D01*
X96221950Y-66850734D01*
X96199491Y-66850333D01*
X96140597Y-66844000D01*
X95946000Y-66844000D01*
X95946000Y-67548000D01*
X96600000Y-67548000D01*
X96600000Y-67303414D01*
X96599999Y-67303407D01*
X96593666Y-67244510D01*
X96606270Y-67174641D01*
X96654647Y-67122678D01*
X96723438Y-67105118D01*
X96790802Y-67127537D01*
X96808039Y-67141943D01*
X99481495Y-69815399D01*
X99515521Y-69877711D01*
X99518400Y-69904494D01*
X99518400Y-73850000D01*
X99498398Y-73918121D01*
X99444742Y-73964614D01*
X99392400Y-73976000D01*
X99323000Y-73976000D01*
X99323000Y-76392000D01*
X99392400Y-76392000D01*
X99460521Y-76412002D01*
X99507014Y-76465658D01*
X99518400Y-76518000D01*
X99518400Y-76853246D01*
X99516651Y-76869088D01*
X99516944Y-76869116D01*
X99516198Y-76877007D01*
X99518400Y-76947057D01*
X99518400Y-76976951D01*
X99518401Y-76976972D01*
X99519278Y-76983920D01*
X99519744Y-76989832D01*
X99521226Y-77036988D01*
X99521227Y-77036993D01*
X99526877Y-77056439D01*
X99530886Y-77075797D01*
X99533425Y-77095893D01*
X99533426Y-77095899D01*
X99550793Y-77139762D01*
X99552716Y-77145379D01*
X99565882Y-77190693D01*
X99576194Y-77208131D01*
X99584888Y-77225879D01*
X99592344Y-77244709D01*
X99592350Y-77244720D01*
X99620077Y-77282883D01*
X99623337Y-77287846D01*
X99647360Y-77328465D01*
X99661679Y-77342784D01*
X99674517Y-77357814D01*
X99681049Y-77366804D01*
X99686428Y-77374207D01*
X99689033Y-77376362D01*
X99722786Y-77404285D01*
X99727167Y-77408271D01*
X100259301Y-77940405D01*
X100776595Y-78457699D01*
X100810621Y-78520011D01*
X100813500Y-78546794D01*
X100813500Y-78829506D01*
X100816437Y-78866829D01*
X100862855Y-79026602D01*
X100882229Y-79059361D01*
X100899688Y-79128178D01*
X100877171Y-79195509D01*
X100821826Y-79239978D01*
X100773775Y-79249500D01*
X100771595Y-79249500D01*
X100703474Y-79229498D01*
X100682500Y-79212595D01*
X99694244Y-78224339D01*
X99684279Y-78211901D01*
X99684052Y-78212090D01*
X99679001Y-78205984D01*
X99679000Y-78205982D01*
X99671984Y-78199394D01*
X99627921Y-78158016D01*
X99606777Y-78136871D01*
X99606772Y-78136866D01*
X99601225Y-78132563D01*
X99596717Y-78128712D01*
X99562325Y-78096417D01*
X99562319Y-78096413D01*
X99544563Y-78086651D01*
X99528047Y-78075802D01*
X99512041Y-78063386D01*
X99478554Y-78048895D01*
X99468740Y-78044648D01*
X99463408Y-78042036D01*
X99422061Y-78019305D01*
X99402436Y-78014266D01*
X99383736Y-78007864D01*
X99365145Y-77999819D01*
X99365143Y-77999818D01*
X99365142Y-77999818D01*
X99318542Y-77992437D01*
X99312729Y-77991233D01*
X99267030Y-77979500D01*
X99246776Y-77979500D01*
X99227066Y-77977949D01*
X99207057Y-77974780D01*
X99207056Y-77974780D01*
X99160083Y-77979220D01*
X99154150Y-77979500D01*
X98870225Y-77979500D01*
X98802104Y-77959498D01*
X98755611Y-77905842D01*
X98745507Y-77835568D01*
X98761771Y-77789361D01*
X98771628Y-77772693D01*
X98781145Y-77756601D01*
X98827562Y-77596831D01*
X98830062Y-77565065D01*
X98830500Y-77559506D01*
X98830500Y-77126494D01*
X98827562Y-77089170D01*
X98823677Y-77075797D01*
X98781145Y-76929399D01*
X98781143Y-76929397D01*
X98781143Y-76929394D01*
X98696455Y-76786196D01*
X98696450Y-76786189D01*
X98578810Y-76668549D01*
X98578803Y-76668544D01*
X98469936Y-76604160D01*
X98421483Y-76552267D01*
X98416252Y-76523509D01*
X98382105Y-76546359D01*
X98311120Y-76547674D01*
X98309224Y-76547139D01*
X98275829Y-76537437D01*
X98238506Y-76534500D01*
X98238502Y-76534500D01*
X97778500Y-76534500D01*
X97710379Y-76514498D01*
X97663886Y-76460842D01*
X97652500Y-76408538D01*
X97652500Y-76405253D01*
X97672480Y-76337131D01*
X97712349Y-76297981D01*
X97817652Y-76233030D01*
X97943030Y-76107652D01*
X97943037Y-76107639D01*
X97945478Y-76104554D01*
X97947709Y-76102973D01*
X97948220Y-76102463D01*
X97948307Y-76102550D01*
X98003416Y-76063521D01*
X98074340Y-76060324D01*
X98135734Y-76095980D01*
X98143161Y-76104551D01*
X98145369Y-76107344D01*
X98270654Y-76232629D01*
X98270663Y-76232636D01*
X98410520Y-76318900D01*
X98457999Y-76371685D01*
X98462336Y-76398342D01*
X98494114Y-76376212D01*
X98565061Y-76373577D01*
X98573708Y-76376102D01*
X98589677Y-76381393D01*
X98589681Y-76381394D01*
X98693483Y-76391999D01*
X98693483Y-76392000D01*
X98815000Y-76392000D01*
X98815000Y-73976000D01*
X98693483Y-73976000D01*
X98589681Y-73986605D01*
X98589678Y-73986606D01*
X98421474Y-74042342D01*
X98270660Y-74135365D01*
X98270654Y-74135370D01*
X98145370Y-74260654D01*
X98143157Y-74263454D01*
X98141149Y-74264875D01*
X98140175Y-74265850D01*
X98140008Y-74265683D01*
X98085216Y-74304482D01*
X98014291Y-74307672D01*
X97952900Y-74272011D01*
X97945483Y-74263450D01*
X97943028Y-74260345D01*
X97817658Y-74134975D01*
X97817652Y-74134970D01*
X97759287Y-74098970D01*
X97666738Y-74041885D01*
X97582582Y-74013998D01*
X97498427Y-73986113D01*
X97498420Y-73986112D01*
X97394553Y-73975500D01*
X96643455Y-73975500D01*
X96539574Y-73986112D01*
X96371261Y-74041885D01*
X96220347Y-74134970D01*
X96220341Y-74134975D01*
X96094975Y-74260341D01*
X96094970Y-74260347D01*
X96001885Y-74411262D01*
X95946113Y-74579572D01*
X95946112Y-74579579D01*
X95935500Y-74683446D01*
X95935500Y-75684544D01*
X95946113Y-75788427D01*
X95946114Y-75788432D01*
X95950205Y-75800779D01*
X95952644Y-75871734D01*
X95939416Y-75893960D01*
X95966512Y-75906335D01*
X95996433Y-75951181D01*
X95998783Y-75950086D01*
X96001883Y-75956733D01*
X96001885Y-75956738D01*
X96048376Y-76032111D01*
X96094970Y-76107652D01*
X96094975Y-76107658D01*
X96220341Y-76233024D01*
X96220345Y-76233027D01*
X96220348Y-76233030D01*
X96325647Y-76297979D01*
X96373125Y-76350763D01*
X96385500Y-76405219D01*
X96385500Y-76452325D01*
X96365498Y-76520446D01*
X96311842Y-76566939D01*
X96294655Y-76573321D01*
X96258396Y-76583855D01*
X96258395Y-76583855D01*
X96115196Y-76668544D01*
X96115189Y-76668549D01*
X95997549Y-76786189D01*
X95997546Y-76786193D01*
X95992453Y-76794806D01*
X95940560Y-76843258D01*
X95870709Y-76855963D01*
X95805078Y-76828887D01*
X95764505Y-76770626D01*
X95758000Y-76730666D01*
X95758000Y-76001559D01*
X95772973Y-75950562D01*
X95766156Y-75946000D01*
X95758000Y-75946000D01*
X93092828Y-75946000D01*
X93024707Y-75925998D01*
X92978214Y-75872342D01*
X92968110Y-75802068D01*
X92997604Y-75737488D01*
X93026680Y-75712760D01*
X93046337Y-75700635D01*
X93046345Y-75700628D01*
X93171628Y-75575345D01*
X93171633Y-75575339D01*
X93264657Y-75424525D01*
X93320393Y-75256321D01*
X93320394Y-75256318D01*
X93330999Y-75152515D01*
X93331000Y-75152515D01*
X93331000Y-74893500D01*
X91820000Y-74893500D01*
X91751879Y-74873498D01*
X91705386Y-74819842D01*
X91694000Y-74767500D01*
X91694000Y-73419000D01*
X92202000Y-73419000D01*
X92202000Y-74385500D01*
X93330999Y-74385500D01*
X93330999Y-74126492D01*
X93320394Y-74022681D01*
X93264657Y-73854474D01*
X93171633Y-73703660D01*
X93171628Y-73703654D01*
X93046345Y-73578371D01*
X93046339Y-73578366D01*
X92895525Y-73485342D01*
X92727321Y-73429606D01*
X92727318Y-73429605D01*
X92623515Y-73419000D01*
X92202000Y-73419000D01*
X91694000Y-73419000D01*
X91272492Y-73419000D01*
X91168681Y-73429605D01*
X91000474Y-73485342D01*
X90870147Y-73565730D01*
X90801668Y-73584467D01*
X90733929Y-73563208D01*
X90688437Y-73508701D01*
X90678000Y-73458489D01*
X90678000Y-72846099D01*
X90698002Y-72777978D01*
X90751658Y-72731485D01*
X90821932Y-72721381D01*
X90870145Y-72738857D01*
X91000262Y-72819115D01*
X91168575Y-72874887D01*
X91196906Y-72877781D01*
X91272448Y-72885500D01*
X91272456Y-72885500D01*
X92623552Y-72885500D01*
X92692797Y-72878424D01*
X92727425Y-72874887D01*
X92895738Y-72819115D01*
X93046651Y-72726030D01*
X93172030Y-72600651D01*
X93265115Y-72449738D01*
X93320887Y-72281425D01*
X93324424Y-72246797D01*
X93331500Y-72177552D01*
X93331500Y-71151447D01*
X93320887Y-71047578D01*
X93320887Y-71047575D01*
X93265115Y-70879262D01*
X93172030Y-70728349D01*
X93172029Y-70728348D01*
X93172024Y-70728342D01*
X93046657Y-70602975D01*
X93046651Y-70602970D01*
X92940004Y-70537189D01*
X92895738Y-70509885D01*
X92727425Y-70454113D01*
X92727423Y-70454112D01*
X92727421Y-70454112D01*
X92694691Y-70450768D01*
X92628957Y-70423945D01*
X92588159Y-70365841D01*
X92581500Y-70325421D01*
X92581500Y-69235294D01*
X92601502Y-69167173D01*
X92618400Y-69146203D01*
X93027298Y-68737304D01*
X93089609Y-68703281D01*
X93160424Y-68708345D01*
X93282799Y-68753989D01*
X93282802Y-68753989D01*
X93282803Y-68753990D01*
X93343350Y-68760499D01*
X93343355Y-68760499D01*
X93343362Y-68760500D01*
X93343368Y-68760500D01*
X94240632Y-68760500D01*
X94240638Y-68760500D01*
X94240645Y-68760499D01*
X94240649Y-68760499D01*
X94301196Y-68753990D01*
X94301199Y-68753989D01*
X94301201Y-68753989D01*
X94438204Y-68702889D01*
X94438799Y-68702444D01*
X94555261Y-68615261D01*
X94641444Y-68500135D01*
X94698280Y-68457588D01*
X94769095Y-68452524D01*
X94831408Y-68486549D01*
X94843180Y-68500135D01*
X94929095Y-68614904D01*
X95046034Y-68702444D01*
X95182906Y-68753494D01*
X95243402Y-68759999D01*
X95243415Y-68760000D01*
X95438000Y-68760000D01*
X95438000Y-68056000D01*
X95946000Y-68056000D01*
X95946000Y-68760000D01*
X96140585Y-68760000D01*
X96140597Y-68759999D01*
X96201093Y-68753494D01*
X96337964Y-68702444D01*
X96337965Y-68702444D01*
X96454904Y-68614904D01*
X96542444Y-68497965D01*
X96542444Y-68497964D01*
X96593494Y-68361093D01*
X96599999Y-68300597D01*
X96600000Y-68300585D01*
X96600000Y-68056000D01*
X95946000Y-68056000D01*
X95438000Y-68056000D01*
X95438000Y-66843330D01*
X95404778Y-66782491D01*
X95409843Y-66711676D01*
X95452390Y-66654840D01*
X95505261Y-66615261D01*
X95592887Y-66498207D01*
X95592887Y-66498206D01*
X95592889Y-66498204D01*
X95643989Y-66361201D01*
X95645842Y-66343971D01*
X95650499Y-66300649D01*
X95650500Y-66300632D01*
X95650500Y-66288594D01*
X95670502Y-66220473D01*
X95724158Y-66173980D01*
X95794432Y-66163876D01*
X95859012Y-66193370D01*
G37*
G04 #@! TD.AperFunction*
G04 #@! TA.AperFunction,Conductor*
G36*
X99990621Y-63072402D02*
G01*
X100037114Y-63126058D01*
X100048500Y-63178400D01*
X100048499Y-68286404D01*
X100028497Y-68354525D01*
X99974841Y-68401018D01*
X99904567Y-68411121D01*
X99839987Y-68381628D01*
X99833404Y-68375499D01*
X95861000Y-64403095D01*
X95826974Y-64340783D01*
X95832039Y-64269968D01*
X95874586Y-64213132D01*
X95941106Y-64188321D01*
X95950095Y-64188000D01*
X96140585Y-64188000D01*
X96140597Y-64187999D01*
X96201093Y-64181494D01*
X96337964Y-64130444D01*
X96337965Y-64130444D01*
X96454904Y-64042904D01*
X96542444Y-63925965D01*
X96542444Y-63925964D01*
X96593494Y-63789093D01*
X96599999Y-63728597D01*
X96600000Y-63728585D01*
X96600000Y-63484000D01*
X95564000Y-63484000D01*
X95495879Y-63463998D01*
X95449386Y-63410342D01*
X95438000Y-63358000D01*
X95438000Y-63178400D01*
X95458002Y-63110279D01*
X95511658Y-63063786D01*
X95564000Y-63052400D01*
X99922500Y-63052400D01*
X99990621Y-63072402D01*
G37*
G04 #@! TD.AperFunction*
G04 #@! TA.AperFunction,Conductor*
G36*
X110955012Y-57926147D02*
G01*
X110961595Y-57932276D01*
X112448092Y-59418773D01*
X112460065Y-59432627D01*
X112474530Y-59452057D01*
X112514975Y-59485994D01*
X112519021Y-59489702D01*
X112524899Y-59495580D01*
X112550896Y-59516136D01*
X112610360Y-59566032D01*
X112610366Y-59566035D01*
X112616495Y-59570067D01*
X112616457Y-59570123D01*
X112622811Y-59574171D01*
X112622847Y-59574114D01*
X112629087Y-59577963D01*
X112629091Y-59577965D01*
X112629094Y-59577967D01*
X112650324Y-59587866D01*
X112703607Y-59634780D01*
X112723069Y-59703057D01*
X112716678Y-59741692D01*
X112673606Y-59871674D01*
X112673605Y-59871681D01*
X112663000Y-59975484D01*
X112663000Y-60234500D01*
X114174000Y-60234500D01*
X114242121Y-60254502D01*
X114288614Y-60308158D01*
X114300000Y-60360500D01*
X114300000Y-61708999D01*
X114721507Y-61708999D01*
X114825321Y-61698394D01*
X114825324Y-61698393D01*
X114876098Y-61681569D01*
X114947053Y-61679128D01*
X115008063Y-61715436D01*
X115039758Y-61778965D01*
X115032076Y-61849545D01*
X115004827Y-61890266D01*
X114689498Y-62205596D01*
X114627188Y-62239620D01*
X114600405Y-62242500D01*
X113370448Y-62242500D01*
X113266578Y-62253112D01*
X113098262Y-62308885D01*
X113098260Y-62308886D01*
X112947348Y-62401970D01*
X112947342Y-62401975D01*
X112821975Y-62527342D01*
X112821970Y-62527348D01*
X112728886Y-62678260D01*
X112728885Y-62678262D01*
X112673112Y-62846578D01*
X112662500Y-62950447D01*
X112662500Y-63339628D01*
X112642498Y-63407749D01*
X112588842Y-63454242D01*
X112518568Y-63464346D01*
X112453988Y-63434852D01*
X112447405Y-63428724D01*
X112376681Y-63358000D01*
X112281901Y-63263220D01*
X112269936Y-63249375D01*
X112255469Y-63229942D01*
X112255467Y-63229940D01*
X112215024Y-63196003D01*
X112210970Y-63192289D01*
X112205107Y-63186425D01*
X112179104Y-63165864D01*
X112119636Y-63115965D01*
X112113506Y-63111933D01*
X112113541Y-63111878D01*
X112107187Y-63107829D01*
X112107153Y-63107886D01*
X112100906Y-63104033D01*
X112030540Y-63071220D01*
X111993065Y-63052400D01*
X111961188Y-63036391D01*
X111961186Y-63036390D01*
X111961183Y-63036389D01*
X111954289Y-63033880D01*
X111954311Y-63033817D01*
X111947189Y-63031341D01*
X111947169Y-63031404D01*
X111940209Y-63029097D01*
X111864149Y-63013392D01*
X111805441Y-62999477D01*
X111743770Y-62964304D01*
X111710905Y-62901372D01*
X111708500Y-62876874D01*
X111708500Y-62805367D01*
X111708499Y-62805350D01*
X111701990Y-62744803D01*
X111701988Y-62744795D01*
X111650889Y-62607797D01*
X111650887Y-62607792D01*
X111563261Y-62490738D01*
X111446207Y-62403112D01*
X111446202Y-62403110D01*
X111309204Y-62352011D01*
X111309196Y-62352009D01*
X111248649Y-62345500D01*
X111248638Y-62345500D01*
X110834500Y-62345500D01*
X110766379Y-62325498D01*
X110719886Y-62271842D01*
X110708500Y-62219500D01*
X110708500Y-60742500D01*
X112663001Y-60742500D01*
X112663001Y-61001507D01*
X112673605Y-61105318D01*
X112729342Y-61273525D01*
X112822366Y-61424339D01*
X112822371Y-61424345D01*
X112947654Y-61549628D01*
X112947660Y-61549633D01*
X113098474Y-61642657D01*
X113266678Y-61698393D01*
X113266682Y-61698394D01*
X113370484Y-61708999D01*
X113792000Y-61708999D01*
X113792000Y-60742500D01*
X112663001Y-60742500D01*
X110708500Y-60742500D01*
X110708500Y-59992357D01*
X110716445Y-59948323D01*
X110721831Y-59933885D01*
X110739989Y-59885201D01*
X110741444Y-59871674D01*
X110746499Y-59824649D01*
X110746500Y-59824632D01*
X110746500Y-58021371D01*
X110766502Y-57953250D01*
X110820158Y-57906757D01*
X110890432Y-57896653D01*
X110955012Y-57926147D01*
G37*
G04 #@! TD.AperFunction*
M02*
