G04 #@! TF.GenerationSoftware,KiCad,Pcbnew,7.0.7*
G04 #@! TF.CreationDate,2023-10-01T09:25:35+02:00*
G04 #@! TF.ProjectId,TSALv3,5453414c-7633-42e6-9b69-6361645f7063,rev?*
G04 #@! TF.SameCoordinates,Original*
G04 #@! TF.FileFunction,Legend,Top*
G04 #@! TF.FilePolarity,Positive*
%FSLAX46Y46*%
G04 Gerber Fmt 4.6, Leading zero omitted, Abs format (unit mm)*
G04 Created by KiCad (PCBNEW 7.0.7) date 2023-10-01 09:25:35*
%MOMM*%
%LPD*%
G01*
G04 APERTURE LIST*
%ADD10C,0.120000*%
%ADD11C,0.100000*%
%ADD12C,0.200000*%
%ADD13C,0.150000*%
%ADD14C,0.300000*%
%ADD15C,0.010000*%
G04 APERTURE END LIST*
D10*
X106121200Y-76911200D02*
X106121200Y-69291200D01*
X106121200Y-72593200D02*
X110185200Y-72593200D01*
D11*
X82931000Y-93091000D02*
X80391000Y-93091000D01*
X80391000Y-78486000D01*
X80391000Y-57531000D01*
X80391000Y-50546000D01*
X82931000Y-50546000D01*
X82931000Y-93091000D01*
G36*
X82931000Y-93091000D02*
G01*
X80391000Y-93091000D01*
X80391000Y-78486000D01*
X80391000Y-57531000D01*
X80391000Y-50546000D01*
X82931000Y-50546000D01*
X82931000Y-93091000D01*
G37*
D10*
X110185200Y-74879200D02*
X106121200Y-74879200D01*
D11*
X109931200Y-69748400D02*
X109728000Y-69748400D01*
X109728000Y-69545200D01*
X109931200Y-69545200D01*
X109931200Y-69748400D01*
G36*
X109931200Y-69748400D02*
G01*
X109728000Y-69748400D01*
X109728000Y-69545200D01*
X109931200Y-69545200D01*
X109931200Y-69748400D01*
G37*
D10*
X110185200Y-69291200D02*
X110185200Y-76911200D01*
X106121200Y-69291200D02*
X110185200Y-69291200D01*
X108153200Y-76911200D02*
X108153200Y-69291200D01*
X110185200Y-76911200D02*
X106121200Y-76911200D01*
D12*
X71263142Y-72882028D02*
X71263142Y-71382028D01*
X71263142Y-72096314D02*
X72120285Y-72096314D01*
X72120285Y-72882028D02*
X72120285Y-71382028D01*
X72834571Y-72882028D02*
X72834571Y-71882028D01*
X72834571Y-71382028D02*
X72763143Y-71453457D01*
X72763143Y-71453457D02*
X72834571Y-71524885D01*
X72834571Y-71524885D02*
X72906000Y-71453457D01*
X72906000Y-71453457D02*
X72834571Y-71382028D01*
X72834571Y-71382028D02*
X72834571Y-71524885D01*
X74191715Y-71882028D02*
X74191715Y-73096314D01*
X74191715Y-73096314D02*
X74120286Y-73239171D01*
X74120286Y-73239171D02*
X74048857Y-73310600D01*
X74048857Y-73310600D02*
X73906000Y-73382028D01*
X73906000Y-73382028D02*
X73691715Y-73382028D01*
X73691715Y-73382028D02*
X73548857Y-73310600D01*
X74191715Y-72810600D02*
X74048857Y-72882028D01*
X74048857Y-72882028D02*
X73763143Y-72882028D01*
X73763143Y-72882028D02*
X73620286Y-72810600D01*
X73620286Y-72810600D02*
X73548857Y-72739171D01*
X73548857Y-72739171D02*
X73477429Y-72596314D01*
X73477429Y-72596314D02*
X73477429Y-72167742D01*
X73477429Y-72167742D02*
X73548857Y-72024885D01*
X73548857Y-72024885D02*
X73620286Y-71953457D01*
X73620286Y-71953457D02*
X73763143Y-71882028D01*
X73763143Y-71882028D02*
X74048857Y-71882028D01*
X74048857Y-71882028D02*
X74191715Y-71953457D01*
X74906000Y-72882028D02*
X74906000Y-71382028D01*
X75548858Y-72882028D02*
X75548858Y-72096314D01*
X75548858Y-72096314D02*
X75477429Y-71953457D01*
X75477429Y-71953457D02*
X75334572Y-71882028D01*
X75334572Y-71882028D02*
X75120286Y-71882028D01*
X75120286Y-71882028D02*
X74977429Y-71953457D01*
X74977429Y-71953457D02*
X74906000Y-72024885D01*
X69406000Y-73797028D02*
X69906000Y-75297028D01*
X69906000Y-75297028D02*
X70406000Y-73797028D01*
X71120285Y-75297028D02*
X70977428Y-75225600D01*
X70977428Y-75225600D02*
X70905999Y-75154171D01*
X70905999Y-75154171D02*
X70834571Y-75011314D01*
X70834571Y-75011314D02*
X70834571Y-74582742D01*
X70834571Y-74582742D02*
X70905999Y-74439885D01*
X70905999Y-74439885D02*
X70977428Y-74368457D01*
X70977428Y-74368457D02*
X71120285Y-74297028D01*
X71120285Y-74297028D02*
X71334571Y-74297028D01*
X71334571Y-74297028D02*
X71477428Y-74368457D01*
X71477428Y-74368457D02*
X71548857Y-74439885D01*
X71548857Y-74439885D02*
X71620285Y-74582742D01*
X71620285Y-74582742D02*
X71620285Y-75011314D01*
X71620285Y-75011314D02*
X71548857Y-75154171D01*
X71548857Y-75154171D02*
X71477428Y-75225600D01*
X71477428Y-75225600D02*
X71334571Y-75297028D01*
X71334571Y-75297028D02*
X71120285Y-75297028D01*
X72477428Y-75297028D02*
X72334571Y-75225600D01*
X72334571Y-75225600D02*
X72263142Y-75082742D01*
X72263142Y-75082742D02*
X72263142Y-73797028D01*
X72834571Y-74297028D02*
X73405999Y-74297028D01*
X73048856Y-73797028D02*
X73048856Y-75082742D01*
X73048856Y-75082742D02*
X73120285Y-75225600D01*
X73120285Y-75225600D02*
X73263142Y-75297028D01*
X73263142Y-75297028D02*
X73405999Y-75297028D01*
X74548857Y-75297028D02*
X74548857Y-74511314D01*
X74548857Y-74511314D02*
X74477428Y-74368457D01*
X74477428Y-74368457D02*
X74334571Y-74297028D01*
X74334571Y-74297028D02*
X74048857Y-74297028D01*
X74048857Y-74297028D02*
X73905999Y-74368457D01*
X74548857Y-75225600D02*
X74405999Y-75297028D01*
X74405999Y-75297028D02*
X74048857Y-75297028D01*
X74048857Y-75297028D02*
X73905999Y-75225600D01*
X73905999Y-75225600D02*
X73834571Y-75082742D01*
X73834571Y-75082742D02*
X73834571Y-74939885D01*
X73834571Y-74939885D02*
X73905999Y-74797028D01*
X73905999Y-74797028D02*
X74048857Y-74725600D01*
X74048857Y-74725600D02*
X74405999Y-74725600D01*
X74405999Y-74725600D02*
X74548857Y-74654171D01*
X75906000Y-74297028D02*
X75906000Y-75511314D01*
X75906000Y-75511314D02*
X75834571Y-75654171D01*
X75834571Y-75654171D02*
X75763142Y-75725600D01*
X75763142Y-75725600D02*
X75620285Y-75797028D01*
X75620285Y-75797028D02*
X75406000Y-75797028D01*
X75406000Y-75797028D02*
X75263142Y-75725600D01*
X75906000Y-75225600D02*
X75763142Y-75297028D01*
X75763142Y-75297028D02*
X75477428Y-75297028D01*
X75477428Y-75297028D02*
X75334571Y-75225600D01*
X75334571Y-75225600D02*
X75263142Y-75154171D01*
X75263142Y-75154171D02*
X75191714Y-75011314D01*
X75191714Y-75011314D02*
X75191714Y-74582742D01*
X75191714Y-74582742D02*
X75263142Y-74439885D01*
X75263142Y-74439885D02*
X75334571Y-74368457D01*
X75334571Y-74368457D02*
X75477428Y-74297028D01*
X75477428Y-74297028D02*
X75763142Y-74297028D01*
X75763142Y-74297028D02*
X75906000Y-74368457D01*
X77191714Y-75225600D02*
X77048857Y-75297028D01*
X77048857Y-75297028D02*
X76763143Y-75297028D01*
X76763143Y-75297028D02*
X76620285Y-75225600D01*
X76620285Y-75225600D02*
X76548857Y-75082742D01*
X76548857Y-75082742D02*
X76548857Y-74511314D01*
X76548857Y-74511314D02*
X76620285Y-74368457D01*
X76620285Y-74368457D02*
X76763143Y-74297028D01*
X76763143Y-74297028D02*
X77048857Y-74297028D01*
X77048857Y-74297028D02*
X77191714Y-74368457D01*
X77191714Y-74368457D02*
X77263143Y-74511314D01*
X77263143Y-74511314D02*
X77263143Y-74654171D01*
X77263143Y-74654171D02*
X76548857Y-74797028D01*
X87010999Y-76692028D02*
X86296713Y-76692028D01*
X86296713Y-76692028D02*
X86296713Y-75192028D01*
X87725285Y-76692028D02*
X87582428Y-76620600D01*
X87582428Y-76620600D02*
X87510999Y-76549171D01*
X87510999Y-76549171D02*
X87439571Y-76406314D01*
X87439571Y-76406314D02*
X87439571Y-75977742D01*
X87439571Y-75977742D02*
X87510999Y-75834885D01*
X87510999Y-75834885D02*
X87582428Y-75763457D01*
X87582428Y-75763457D02*
X87725285Y-75692028D01*
X87725285Y-75692028D02*
X87939571Y-75692028D01*
X87939571Y-75692028D02*
X88082428Y-75763457D01*
X88082428Y-75763457D02*
X88153857Y-75834885D01*
X88153857Y-75834885D02*
X88225285Y-75977742D01*
X88225285Y-75977742D02*
X88225285Y-76406314D01*
X88225285Y-76406314D02*
X88153857Y-76549171D01*
X88153857Y-76549171D02*
X88082428Y-76620600D01*
X88082428Y-76620600D02*
X87939571Y-76692028D01*
X87939571Y-76692028D02*
X87725285Y-76692028D01*
X88725285Y-75692028D02*
X89011000Y-76692028D01*
X89011000Y-76692028D02*
X89296714Y-75977742D01*
X89296714Y-75977742D02*
X89582428Y-76692028D01*
X89582428Y-76692028D02*
X89868142Y-75692028D01*
X84011000Y-77607028D02*
X84511000Y-79107028D01*
X84511000Y-79107028D02*
X85011000Y-77607028D01*
X85725285Y-79107028D02*
X85582428Y-79035600D01*
X85582428Y-79035600D02*
X85510999Y-78964171D01*
X85510999Y-78964171D02*
X85439571Y-78821314D01*
X85439571Y-78821314D02*
X85439571Y-78392742D01*
X85439571Y-78392742D02*
X85510999Y-78249885D01*
X85510999Y-78249885D02*
X85582428Y-78178457D01*
X85582428Y-78178457D02*
X85725285Y-78107028D01*
X85725285Y-78107028D02*
X85939571Y-78107028D01*
X85939571Y-78107028D02*
X86082428Y-78178457D01*
X86082428Y-78178457D02*
X86153857Y-78249885D01*
X86153857Y-78249885D02*
X86225285Y-78392742D01*
X86225285Y-78392742D02*
X86225285Y-78821314D01*
X86225285Y-78821314D02*
X86153857Y-78964171D01*
X86153857Y-78964171D02*
X86082428Y-79035600D01*
X86082428Y-79035600D02*
X85939571Y-79107028D01*
X85939571Y-79107028D02*
X85725285Y-79107028D01*
X87082428Y-79107028D02*
X86939571Y-79035600D01*
X86939571Y-79035600D02*
X86868142Y-78892742D01*
X86868142Y-78892742D02*
X86868142Y-77607028D01*
X87439571Y-78107028D02*
X88010999Y-78107028D01*
X87653856Y-77607028D02*
X87653856Y-78892742D01*
X87653856Y-78892742D02*
X87725285Y-79035600D01*
X87725285Y-79035600D02*
X87868142Y-79107028D01*
X87868142Y-79107028D02*
X88010999Y-79107028D01*
X89153857Y-79107028D02*
X89153857Y-78321314D01*
X89153857Y-78321314D02*
X89082428Y-78178457D01*
X89082428Y-78178457D02*
X88939571Y-78107028D01*
X88939571Y-78107028D02*
X88653857Y-78107028D01*
X88653857Y-78107028D02*
X88510999Y-78178457D01*
X89153857Y-79035600D02*
X89010999Y-79107028D01*
X89010999Y-79107028D02*
X88653857Y-79107028D01*
X88653857Y-79107028D02*
X88510999Y-79035600D01*
X88510999Y-79035600D02*
X88439571Y-78892742D01*
X88439571Y-78892742D02*
X88439571Y-78749885D01*
X88439571Y-78749885D02*
X88510999Y-78607028D01*
X88510999Y-78607028D02*
X88653857Y-78535600D01*
X88653857Y-78535600D02*
X89010999Y-78535600D01*
X89010999Y-78535600D02*
X89153857Y-78464171D01*
X90511000Y-78107028D02*
X90511000Y-79321314D01*
X90511000Y-79321314D02*
X90439571Y-79464171D01*
X90439571Y-79464171D02*
X90368142Y-79535600D01*
X90368142Y-79535600D02*
X90225285Y-79607028D01*
X90225285Y-79607028D02*
X90011000Y-79607028D01*
X90011000Y-79607028D02*
X89868142Y-79535600D01*
X90511000Y-79035600D02*
X90368142Y-79107028D01*
X90368142Y-79107028D02*
X90082428Y-79107028D01*
X90082428Y-79107028D02*
X89939571Y-79035600D01*
X89939571Y-79035600D02*
X89868142Y-78964171D01*
X89868142Y-78964171D02*
X89796714Y-78821314D01*
X89796714Y-78821314D02*
X89796714Y-78392742D01*
X89796714Y-78392742D02*
X89868142Y-78249885D01*
X89868142Y-78249885D02*
X89939571Y-78178457D01*
X89939571Y-78178457D02*
X90082428Y-78107028D01*
X90082428Y-78107028D02*
X90368142Y-78107028D01*
X90368142Y-78107028D02*
X90511000Y-78178457D01*
X91796714Y-79035600D02*
X91653857Y-79107028D01*
X91653857Y-79107028D02*
X91368143Y-79107028D01*
X91368143Y-79107028D02*
X91225285Y-79035600D01*
X91225285Y-79035600D02*
X91153857Y-78892742D01*
X91153857Y-78892742D02*
X91153857Y-78321314D01*
X91153857Y-78321314D02*
X91225285Y-78178457D01*
X91225285Y-78178457D02*
X91368143Y-78107028D01*
X91368143Y-78107028D02*
X91653857Y-78107028D01*
X91653857Y-78107028D02*
X91796714Y-78178457D01*
X91796714Y-78178457D02*
X91868143Y-78321314D01*
X91868143Y-78321314D02*
X91868143Y-78464171D01*
X91868143Y-78464171D02*
X91153857Y-78607028D01*
D13*
X106786566Y-73859199D02*
X106753233Y-73925866D01*
X106753233Y-73925866D02*
X106753233Y-74025866D01*
X106753233Y-74025866D02*
X106786566Y-74125866D01*
X106786566Y-74125866D02*
X106853233Y-74192533D01*
X106853233Y-74192533D02*
X106919900Y-74225866D01*
X106919900Y-74225866D02*
X107053233Y-74259199D01*
X107053233Y-74259199D02*
X107153233Y-74259199D01*
X107153233Y-74259199D02*
X107286566Y-74225866D01*
X107286566Y-74225866D02*
X107353233Y-74192533D01*
X107353233Y-74192533D02*
X107419900Y-74125866D01*
X107419900Y-74125866D02*
X107453233Y-74025866D01*
X107453233Y-74025866D02*
X107453233Y-73959199D01*
X107453233Y-73959199D02*
X107419900Y-73859199D01*
X107419900Y-73859199D02*
X107386566Y-73825866D01*
X107386566Y-73825866D02*
X107153233Y-73825866D01*
X107153233Y-73825866D02*
X107153233Y-73959199D01*
X107186566Y-73525866D02*
X107186566Y-72992533D01*
X106786566Y-71648533D02*
X106753233Y-71715200D01*
X106753233Y-71715200D02*
X106753233Y-71815200D01*
X106753233Y-71815200D02*
X106786566Y-71915200D01*
X106786566Y-71915200D02*
X106853233Y-71981867D01*
X106853233Y-71981867D02*
X106919900Y-72015200D01*
X106919900Y-72015200D02*
X107053233Y-72048533D01*
X107053233Y-72048533D02*
X107153233Y-72048533D01*
X107153233Y-72048533D02*
X107286566Y-72015200D01*
X107286566Y-72015200D02*
X107353233Y-71981867D01*
X107353233Y-71981867D02*
X107419900Y-71915200D01*
X107419900Y-71915200D02*
X107453233Y-71815200D01*
X107453233Y-71815200D02*
X107453233Y-71748533D01*
X107453233Y-71748533D02*
X107419900Y-71648533D01*
X107419900Y-71648533D02*
X107386566Y-71615200D01*
X107386566Y-71615200D02*
X107153233Y-71615200D01*
X107153233Y-71615200D02*
X107153233Y-71748533D01*
X107453233Y-70981867D02*
X107453233Y-71315200D01*
X107453233Y-71315200D02*
X106753233Y-71315200D01*
X106753233Y-70848533D02*
X107453233Y-70615200D01*
X107453233Y-70615200D02*
X106753233Y-70381866D01*
X107186566Y-70148533D02*
X107186566Y-69615200D01*
X108818566Y-71648533D02*
X108785233Y-71715200D01*
X108785233Y-71715200D02*
X108785233Y-71815200D01*
X108785233Y-71815200D02*
X108818566Y-71915200D01*
X108818566Y-71915200D02*
X108885233Y-71981867D01*
X108885233Y-71981867D02*
X108951900Y-72015200D01*
X108951900Y-72015200D02*
X109085233Y-72048533D01*
X109085233Y-72048533D02*
X109185233Y-72048533D01*
X109185233Y-72048533D02*
X109318566Y-72015200D01*
X109318566Y-72015200D02*
X109385233Y-71981867D01*
X109385233Y-71981867D02*
X109451900Y-71915200D01*
X109451900Y-71915200D02*
X109485233Y-71815200D01*
X109485233Y-71815200D02*
X109485233Y-71748533D01*
X109485233Y-71748533D02*
X109451900Y-71648533D01*
X109451900Y-71648533D02*
X109418566Y-71615200D01*
X109418566Y-71615200D02*
X109185233Y-71615200D01*
X109185233Y-71615200D02*
X109185233Y-71748533D01*
X109485233Y-70981867D02*
X109485233Y-71315200D01*
X109485233Y-71315200D02*
X108785233Y-71315200D01*
X108785233Y-70848533D02*
X109485233Y-70615200D01*
X109485233Y-70615200D02*
X108785233Y-70381866D01*
X109218566Y-70148533D02*
X109218566Y-69615200D01*
X109485233Y-69881866D02*
X108951900Y-69881866D01*
X109485233Y-76111866D02*
X109151900Y-76345199D01*
X109485233Y-76511866D02*
X108785233Y-76511866D01*
X108785233Y-76511866D02*
X108785233Y-76245199D01*
X108785233Y-76245199D02*
X108818566Y-76178533D01*
X108818566Y-76178533D02*
X108851900Y-76145199D01*
X108851900Y-76145199D02*
X108918566Y-76111866D01*
X108918566Y-76111866D02*
X109018566Y-76111866D01*
X109018566Y-76111866D02*
X109085233Y-76145199D01*
X109085233Y-76145199D02*
X109118566Y-76178533D01*
X109118566Y-76178533D02*
X109151900Y-76245199D01*
X109151900Y-76245199D02*
X109151900Y-76511866D01*
X109218566Y-75811866D02*
X109218566Y-75278533D01*
X109485233Y-75545199D02*
X108951900Y-75545199D01*
X107326233Y-76111866D02*
X106992900Y-76345199D01*
X107326233Y-76511866D02*
X106626233Y-76511866D01*
X106626233Y-76511866D02*
X106626233Y-76245199D01*
X106626233Y-76245199D02*
X106659566Y-76178533D01*
X106659566Y-76178533D02*
X106692900Y-76145199D01*
X106692900Y-76145199D02*
X106759566Y-76111866D01*
X106759566Y-76111866D02*
X106859566Y-76111866D01*
X106859566Y-76111866D02*
X106926233Y-76145199D01*
X106926233Y-76145199D02*
X106959566Y-76178533D01*
X106959566Y-76178533D02*
X106992900Y-76245199D01*
X106992900Y-76245199D02*
X106992900Y-76511866D01*
X107059566Y-75811866D02*
X107059566Y-75278533D01*
D14*
X103763429Y-89145128D02*
X104620572Y-89145128D01*
X104192000Y-90645128D02*
X104192000Y-89145128D01*
X105049143Y-90573700D02*
X105263429Y-90645128D01*
X105263429Y-90645128D02*
X105620571Y-90645128D01*
X105620571Y-90645128D02*
X105763429Y-90573700D01*
X105763429Y-90573700D02*
X105834857Y-90502271D01*
X105834857Y-90502271D02*
X105906286Y-90359414D01*
X105906286Y-90359414D02*
X105906286Y-90216557D01*
X105906286Y-90216557D02*
X105834857Y-90073700D01*
X105834857Y-90073700D02*
X105763429Y-90002271D01*
X105763429Y-90002271D02*
X105620571Y-89930842D01*
X105620571Y-89930842D02*
X105334857Y-89859414D01*
X105334857Y-89859414D02*
X105192000Y-89787985D01*
X105192000Y-89787985D02*
X105120571Y-89716557D01*
X105120571Y-89716557D02*
X105049143Y-89573700D01*
X105049143Y-89573700D02*
X105049143Y-89430842D01*
X105049143Y-89430842D02*
X105120571Y-89287985D01*
X105120571Y-89287985D02*
X105192000Y-89216557D01*
X105192000Y-89216557D02*
X105334857Y-89145128D01*
X105334857Y-89145128D02*
X105692000Y-89145128D01*
X105692000Y-89145128D02*
X105906286Y-89216557D01*
X106477714Y-90216557D02*
X107192000Y-90216557D01*
X106334857Y-90645128D02*
X106834857Y-89145128D01*
X106834857Y-89145128D02*
X107334857Y-90645128D01*
X108549142Y-90645128D02*
X107834856Y-90645128D01*
X107834856Y-90645128D02*
X107834856Y-89145128D01*
X108906285Y-89645128D02*
X109263428Y-90645128D01*
X109263428Y-90645128D02*
X109620571Y-89645128D01*
X110049142Y-89145128D02*
X110977714Y-89145128D01*
X110977714Y-89145128D02*
X110477714Y-89716557D01*
X110477714Y-89716557D02*
X110691999Y-89716557D01*
X110691999Y-89716557D02*
X110834857Y-89787985D01*
X110834857Y-89787985D02*
X110906285Y-89859414D01*
X110906285Y-89859414D02*
X110977714Y-90002271D01*
X110977714Y-90002271D02*
X110977714Y-90359414D01*
X110977714Y-90359414D02*
X110906285Y-90502271D01*
X110906285Y-90502271D02*
X110834857Y-90573700D01*
X110834857Y-90573700D02*
X110691999Y-90645128D01*
X110691999Y-90645128D02*
X110263428Y-90645128D01*
X110263428Y-90645128D02*
X110120571Y-90573700D01*
X110120571Y-90573700D02*
X110049142Y-90502271D01*
D13*
X108818566Y-73859199D02*
X108785233Y-73925866D01*
X108785233Y-73925866D02*
X108785233Y-74025866D01*
X108785233Y-74025866D02*
X108818566Y-74125866D01*
X108818566Y-74125866D02*
X108885233Y-74192533D01*
X108885233Y-74192533D02*
X108951900Y-74225866D01*
X108951900Y-74225866D02*
X109085233Y-74259199D01*
X109085233Y-74259199D02*
X109185233Y-74259199D01*
X109185233Y-74259199D02*
X109318566Y-74225866D01*
X109318566Y-74225866D02*
X109385233Y-74192533D01*
X109385233Y-74192533D02*
X109451900Y-74125866D01*
X109451900Y-74125866D02*
X109485233Y-74025866D01*
X109485233Y-74025866D02*
X109485233Y-73959199D01*
X109485233Y-73959199D02*
X109451900Y-73859199D01*
X109451900Y-73859199D02*
X109418566Y-73825866D01*
X109418566Y-73825866D02*
X109185233Y-73825866D01*
X109185233Y-73825866D02*
X109185233Y-73959199D01*
X109218566Y-73525866D02*
X109218566Y-72992533D01*
X109485233Y-73259199D02*
X108951900Y-73259199D01*
D12*
X58039095Y-57048933D02*
X59562905Y-57048933D01*
X58801000Y-57810838D02*
X58801000Y-56287028D01*
D13*
X63974688Y-75132390D02*
X63402269Y-75031375D01*
X63570627Y-75536451D02*
X62863521Y-74829344D01*
X62863521Y-74829344D02*
X63132895Y-74559970D01*
X63132895Y-74559970D02*
X63233910Y-74526298D01*
X63233910Y-74526298D02*
X63301253Y-74526298D01*
X63301253Y-74526298D02*
X63402269Y-74559970D01*
X63402269Y-74559970D02*
X63503284Y-74660985D01*
X63503284Y-74660985D02*
X63536956Y-74762001D01*
X63536956Y-74762001D02*
X63536956Y-74829344D01*
X63536956Y-74829344D02*
X63503284Y-74930359D01*
X63503284Y-74930359D02*
X63233910Y-75199733D01*
X63873673Y-73819192D02*
X63738986Y-73953879D01*
X63738986Y-73953879D02*
X63705314Y-74054894D01*
X63705314Y-74054894D02*
X63705314Y-74122237D01*
X63705314Y-74122237D02*
X63738986Y-74290596D01*
X63738986Y-74290596D02*
X63840001Y-74458955D01*
X63840001Y-74458955D02*
X64109375Y-74728329D01*
X64109375Y-74728329D02*
X64210391Y-74762001D01*
X64210391Y-74762001D02*
X64277734Y-74762001D01*
X64277734Y-74762001D02*
X64378749Y-74728329D01*
X64378749Y-74728329D02*
X64513436Y-74593642D01*
X64513436Y-74593642D02*
X64547108Y-74492627D01*
X64547108Y-74492627D02*
X64547108Y-74425283D01*
X64547108Y-74425283D02*
X64513436Y-74324268D01*
X64513436Y-74324268D02*
X64345078Y-74155909D01*
X64345078Y-74155909D02*
X64244062Y-74122237D01*
X64244062Y-74122237D02*
X64176719Y-74122237D01*
X64176719Y-74122237D02*
X64075704Y-74155909D01*
X64075704Y-74155909D02*
X63941017Y-74290596D01*
X63941017Y-74290596D02*
X63907345Y-74391611D01*
X63907345Y-74391611D02*
X63907345Y-74458955D01*
X63907345Y-74458955D02*
X63941017Y-74559970D01*
X49492819Y-64849333D02*
X50207104Y-64849333D01*
X50207104Y-64849333D02*
X50349961Y-64896952D01*
X50349961Y-64896952D02*
X50445200Y-64992190D01*
X50445200Y-64992190D02*
X50492819Y-65135047D01*
X50492819Y-65135047D02*
X50492819Y-65230285D01*
X49588057Y-64420761D02*
X49540438Y-64373142D01*
X49540438Y-64373142D02*
X49492819Y-64277904D01*
X49492819Y-64277904D02*
X49492819Y-64039809D01*
X49492819Y-64039809D02*
X49540438Y-63944571D01*
X49540438Y-63944571D02*
X49588057Y-63896952D01*
X49588057Y-63896952D02*
X49683295Y-63849333D01*
X49683295Y-63849333D02*
X49778533Y-63849333D01*
X49778533Y-63849333D02*
X49921390Y-63896952D01*
X49921390Y-63896952D02*
X50492819Y-64468380D01*
X50492819Y-64468380D02*
X50492819Y-63849333D01*
X57237333Y-77712819D02*
X56904000Y-77236628D01*
X56665905Y-77712819D02*
X56665905Y-76712819D01*
X56665905Y-76712819D02*
X57046857Y-76712819D01*
X57046857Y-76712819D02*
X57142095Y-76760438D01*
X57142095Y-76760438D02*
X57189714Y-76808057D01*
X57189714Y-76808057D02*
X57237333Y-76903295D01*
X57237333Y-76903295D02*
X57237333Y-77046152D01*
X57237333Y-77046152D02*
X57189714Y-77141390D01*
X57189714Y-77141390D02*
X57142095Y-77189009D01*
X57142095Y-77189009D02*
X57046857Y-77236628D01*
X57046857Y-77236628D02*
X56665905Y-77236628D01*
X57570667Y-76712819D02*
X58237333Y-76712819D01*
X58237333Y-76712819D02*
X57808762Y-77712819D01*
X65774819Y-68492666D02*
X65298628Y-68825999D01*
X65774819Y-69064094D02*
X64774819Y-69064094D01*
X64774819Y-69064094D02*
X64774819Y-68683142D01*
X64774819Y-68683142D02*
X64822438Y-68587904D01*
X64822438Y-68587904D02*
X64870057Y-68540285D01*
X64870057Y-68540285D02*
X64965295Y-68492666D01*
X64965295Y-68492666D02*
X65108152Y-68492666D01*
X65108152Y-68492666D02*
X65203390Y-68540285D01*
X65203390Y-68540285D02*
X65251009Y-68587904D01*
X65251009Y-68587904D02*
X65298628Y-68683142D01*
X65298628Y-68683142D02*
X65298628Y-69064094D01*
X65108152Y-67635523D02*
X65774819Y-67635523D01*
X64727200Y-67873618D02*
X65441485Y-68111713D01*
X65441485Y-68111713D02*
X65441485Y-67492666D01*
X64635142Y-83766819D02*
X64301809Y-83290628D01*
X64063714Y-83766819D02*
X64063714Y-82766819D01*
X64063714Y-82766819D02*
X64444666Y-82766819D01*
X64444666Y-82766819D02*
X64539904Y-82814438D01*
X64539904Y-82814438D02*
X64587523Y-82862057D01*
X64587523Y-82862057D02*
X64635142Y-82957295D01*
X64635142Y-82957295D02*
X64635142Y-83100152D01*
X64635142Y-83100152D02*
X64587523Y-83195390D01*
X64587523Y-83195390D02*
X64539904Y-83243009D01*
X64539904Y-83243009D02*
X64444666Y-83290628D01*
X64444666Y-83290628D02*
X64063714Y-83290628D01*
X65587523Y-83766819D02*
X65016095Y-83766819D01*
X65301809Y-83766819D02*
X65301809Y-82766819D01*
X65301809Y-82766819D02*
X65206571Y-82909676D01*
X65206571Y-82909676D02*
X65111333Y-83004914D01*
X65111333Y-83004914D02*
X65016095Y-83052533D01*
X66206571Y-82766819D02*
X66301809Y-82766819D01*
X66301809Y-82766819D02*
X66397047Y-82814438D01*
X66397047Y-82814438D02*
X66444666Y-82862057D01*
X66444666Y-82862057D02*
X66492285Y-82957295D01*
X66492285Y-82957295D02*
X66539904Y-83147771D01*
X66539904Y-83147771D02*
X66539904Y-83385866D01*
X66539904Y-83385866D02*
X66492285Y-83576342D01*
X66492285Y-83576342D02*
X66444666Y-83671580D01*
X66444666Y-83671580D02*
X66397047Y-83719200D01*
X66397047Y-83719200D02*
X66301809Y-83766819D01*
X66301809Y-83766819D02*
X66206571Y-83766819D01*
X66206571Y-83766819D02*
X66111333Y-83719200D01*
X66111333Y-83719200D02*
X66063714Y-83671580D01*
X66063714Y-83671580D02*
X66016095Y-83576342D01*
X66016095Y-83576342D02*
X65968476Y-83385866D01*
X65968476Y-83385866D02*
X65968476Y-83147771D01*
X65968476Y-83147771D02*
X66016095Y-82957295D01*
X66016095Y-82957295D02*
X66063714Y-82862057D01*
X66063714Y-82862057D02*
X66111333Y-82814438D01*
X66111333Y-82814438D02*
X66206571Y-82766819D01*
X64671642Y-90412819D02*
X64338309Y-89936628D01*
X64100214Y-90412819D02*
X64100214Y-89412819D01*
X64100214Y-89412819D02*
X64481166Y-89412819D01*
X64481166Y-89412819D02*
X64576404Y-89460438D01*
X64576404Y-89460438D02*
X64624023Y-89508057D01*
X64624023Y-89508057D02*
X64671642Y-89603295D01*
X64671642Y-89603295D02*
X64671642Y-89746152D01*
X64671642Y-89746152D02*
X64624023Y-89841390D01*
X64624023Y-89841390D02*
X64576404Y-89889009D01*
X64576404Y-89889009D02*
X64481166Y-89936628D01*
X64481166Y-89936628D02*
X64100214Y-89936628D01*
X65624023Y-90412819D02*
X65052595Y-90412819D01*
X65338309Y-90412819D02*
X65338309Y-89412819D01*
X65338309Y-89412819D02*
X65243071Y-89555676D01*
X65243071Y-89555676D02*
X65147833Y-89650914D01*
X65147833Y-89650914D02*
X65052595Y-89698533D01*
X66576404Y-90412819D02*
X66004976Y-90412819D01*
X66290690Y-90412819D02*
X66290690Y-89412819D01*
X66290690Y-89412819D02*
X66195452Y-89555676D01*
X66195452Y-89555676D02*
X66100214Y-89650914D01*
X66100214Y-89650914D02*
X66004976Y-89698533D01*
X75049142Y-77628819D02*
X74715809Y-77152628D01*
X74477714Y-77628819D02*
X74477714Y-76628819D01*
X74477714Y-76628819D02*
X74858666Y-76628819D01*
X74858666Y-76628819D02*
X74953904Y-76676438D01*
X74953904Y-76676438D02*
X75001523Y-76724057D01*
X75001523Y-76724057D02*
X75049142Y-76819295D01*
X75049142Y-76819295D02*
X75049142Y-76962152D01*
X75049142Y-76962152D02*
X75001523Y-77057390D01*
X75001523Y-77057390D02*
X74953904Y-77105009D01*
X74953904Y-77105009D02*
X74858666Y-77152628D01*
X74858666Y-77152628D02*
X74477714Y-77152628D01*
X76001523Y-77628819D02*
X75430095Y-77628819D01*
X75715809Y-77628819D02*
X75715809Y-76628819D01*
X75715809Y-76628819D02*
X75620571Y-76771676D01*
X75620571Y-76771676D02*
X75525333Y-76866914D01*
X75525333Y-76866914D02*
X75430095Y-76914533D01*
X76382476Y-76724057D02*
X76430095Y-76676438D01*
X76430095Y-76676438D02*
X76525333Y-76628819D01*
X76525333Y-76628819D02*
X76763428Y-76628819D01*
X76763428Y-76628819D02*
X76858666Y-76676438D01*
X76858666Y-76676438D02*
X76906285Y-76724057D01*
X76906285Y-76724057D02*
X76953904Y-76819295D01*
X76953904Y-76819295D02*
X76953904Y-76914533D01*
X76953904Y-76914533D02*
X76906285Y-77057390D01*
X76906285Y-77057390D02*
X76334857Y-77628819D01*
X76334857Y-77628819D02*
X76953904Y-77628819D01*
X71969333Y-82147580D02*
X71921714Y-82195200D01*
X71921714Y-82195200D02*
X71778857Y-82242819D01*
X71778857Y-82242819D02*
X71683619Y-82242819D01*
X71683619Y-82242819D02*
X71540762Y-82195200D01*
X71540762Y-82195200D02*
X71445524Y-82099961D01*
X71445524Y-82099961D02*
X71397905Y-82004723D01*
X71397905Y-82004723D02*
X71350286Y-81814247D01*
X71350286Y-81814247D02*
X71350286Y-81671390D01*
X71350286Y-81671390D02*
X71397905Y-81480914D01*
X71397905Y-81480914D02*
X71445524Y-81385676D01*
X71445524Y-81385676D02*
X71540762Y-81290438D01*
X71540762Y-81290438D02*
X71683619Y-81242819D01*
X71683619Y-81242819D02*
X71778857Y-81242819D01*
X71778857Y-81242819D02*
X71921714Y-81290438D01*
X71921714Y-81290438D02*
X71969333Y-81338057D01*
X72302667Y-81242819D02*
X72921714Y-81242819D01*
X72921714Y-81242819D02*
X72588381Y-81623771D01*
X72588381Y-81623771D02*
X72731238Y-81623771D01*
X72731238Y-81623771D02*
X72826476Y-81671390D01*
X72826476Y-81671390D02*
X72874095Y-81719009D01*
X72874095Y-81719009D02*
X72921714Y-81814247D01*
X72921714Y-81814247D02*
X72921714Y-82052342D01*
X72921714Y-82052342D02*
X72874095Y-82147580D01*
X72874095Y-82147580D02*
X72826476Y-82195200D01*
X72826476Y-82195200D02*
X72731238Y-82242819D01*
X72731238Y-82242819D02*
X72445524Y-82242819D01*
X72445524Y-82242819D02*
X72350286Y-82195200D01*
X72350286Y-82195200D02*
X72302667Y-82147580D01*
X69701580Y-83732666D02*
X69749200Y-83780285D01*
X69749200Y-83780285D02*
X69796819Y-83923142D01*
X69796819Y-83923142D02*
X69796819Y-84018380D01*
X69796819Y-84018380D02*
X69749200Y-84161237D01*
X69749200Y-84161237D02*
X69653961Y-84256475D01*
X69653961Y-84256475D02*
X69558723Y-84304094D01*
X69558723Y-84304094D02*
X69368247Y-84351713D01*
X69368247Y-84351713D02*
X69225390Y-84351713D01*
X69225390Y-84351713D02*
X69034914Y-84304094D01*
X69034914Y-84304094D02*
X68939676Y-84256475D01*
X68939676Y-84256475D02*
X68844438Y-84161237D01*
X68844438Y-84161237D02*
X68796819Y-84018380D01*
X68796819Y-84018380D02*
X68796819Y-83923142D01*
X68796819Y-83923142D02*
X68844438Y-83780285D01*
X68844438Y-83780285D02*
X68892057Y-83732666D01*
X68892057Y-83351713D02*
X68844438Y-83304094D01*
X68844438Y-83304094D02*
X68796819Y-83208856D01*
X68796819Y-83208856D02*
X68796819Y-82970761D01*
X68796819Y-82970761D02*
X68844438Y-82875523D01*
X68844438Y-82875523D02*
X68892057Y-82827904D01*
X68892057Y-82827904D02*
X68987295Y-82780285D01*
X68987295Y-82780285D02*
X69082533Y-82780285D01*
X69082533Y-82780285D02*
X69225390Y-82827904D01*
X69225390Y-82827904D02*
X69796819Y-83399332D01*
X69796819Y-83399332D02*
X69796819Y-82780285D01*
X53971833Y-82200819D02*
X53638500Y-81724628D01*
X53400405Y-82200819D02*
X53400405Y-81200819D01*
X53400405Y-81200819D02*
X53781357Y-81200819D01*
X53781357Y-81200819D02*
X53876595Y-81248438D01*
X53876595Y-81248438D02*
X53924214Y-81296057D01*
X53924214Y-81296057D02*
X53971833Y-81391295D01*
X53971833Y-81391295D02*
X53971833Y-81534152D01*
X53971833Y-81534152D02*
X53924214Y-81629390D01*
X53924214Y-81629390D02*
X53876595Y-81677009D01*
X53876595Y-81677009D02*
X53781357Y-81724628D01*
X53781357Y-81724628D02*
X53400405Y-81724628D01*
X54876595Y-81200819D02*
X54400405Y-81200819D01*
X54400405Y-81200819D02*
X54352786Y-81677009D01*
X54352786Y-81677009D02*
X54400405Y-81629390D01*
X54400405Y-81629390D02*
X54495643Y-81581771D01*
X54495643Y-81581771D02*
X54733738Y-81581771D01*
X54733738Y-81581771D02*
X54828976Y-81629390D01*
X54828976Y-81629390D02*
X54876595Y-81677009D01*
X54876595Y-81677009D02*
X54924214Y-81772247D01*
X54924214Y-81772247D02*
X54924214Y-82010342D01*
X54924214Y-82010342D02*
X54876595Y-82105580D01*
X54876595Y-82105580D02*
X54828976Y-82153200D01*
X54828976Y-82153200D02*
X54733738Y-82200819D01*
X54733738Y-82200819D02*
X54495643Y-82200819D01*
X54495643Y-82200819D02*
X54400405Y-82153200D01*
X54400405Y-82153200D02*
X54352786Y-82105580D01*
X51974819Y-73101166D02*
X51498628Y-73434499D01*
X51974819Y-73672594D02*
X50974819Y-73672594D01*
X50974819Y-73672594D02*
X50974819Y-73291642D01*
X50974819Y-73291642D02*
X51022438Y-73196404D01*
X51022438Y-73196404D02*
X51070057Y-73148785D01*
X51070057Y-73148785D02*
X51165295Y-73101166D01*
X51165295Y-73101166D02*
X51308152Y-73101166D01*
X51308152Y-73101166D02*
X51403390Y-73148785D01*
X51403390Y-73148785D02*
X51451009Y-73196404D01*
X51451009Y-73196404D02*
X51498628Y-73291642D01*
X51498628Y-73291642D02*
X51498628Y-73672594D01*
X51403390Y-72529737D02*
X51355771Y-72624975D01*
X51355771Y-72624975D02*
X51308152Y-72672594D01*
X51308152Y-72672594D02*
X51212914Y-72720213D01*
X51212914Y-72720213D02*
X51165295Y-72720213D01*
X51165295Y-72720213D02*
X51070057Y-72672594D01*
X51070057Y-72672594D02*
X51022438Y-72624975D01*
X51022438Y-72624975D02*
X50974819Y-72529737D01*
X50974819Y-72529737D02*
X50974819Y-72339261D01*
X50974819Y-72339261D02*
X51022438Y-72244023D01*
X51022438Y-72244023D02*
X51070057Y-72196404D01*
X51070057Y-72196404D02*
X51165295Y-72148785D01*
X51165295Y-72148785D02*
X51212914Y-72148785D01*
X51212914Y-72148785D02*
X51308152Y-72196404D01*
X51308152Y-72196404D02*
X51355771Y-72244023D01*
X51355771Y-72244023D02*
X51403390Y-72339261D01*
X51403390Y-72339261D02*
X51403390Y-72529737D01*
X51403390Y-72529737D02*
X51451009Y-72624975D01*
X51451009Y-72624975D02*
X51498628Y-72672594D01*
X51498628Y-72672594D02*
X51593866Y-72720213D01*
X51593866Y-72720213D02*
X51784342Y-72720213D01*
X51784342Y-72720213D02*
X51879580Y-72672594D01*
X51879580Y-72672594D02*
X51927200Y-72624975D01*
X51927200Y-72624975D02*
X51974819Y-72529737D01*
X51974819Y-72529737D02*
X51974819Y-72339261D01*
X51974819Y-72339261D02*
X51927200Y-72244023D01*
X51927200Y-72244023D02*
X51879580Y-72196404D01*
X51879580Y-72196404D02*
X51784342Y-72148785D01*
X51784342Y-72148785D02*
X51593866Y-72148785D01*
X51593866Y-72148785D02*
X51498628Y-72196404D01*
X51498628Y-72196404D02*
X51451009Y-72244023D01*
X51451009Y-72244023D02*
X51403390Y-72339261D01*
X51974819Y-67730666D02*
X51498628Y-68063999D01*
X51974819Y-68302094D02*
X50974819Y-68302094D01*
X50974819Y-68302094D02*
X50974819Y-67921142D01*
X50974819Y-67921142D02*
X51022438Y-67825904D01*
X51022438Y-67825904D02*
X51070057Y-67778285D01*
X51070057Y-67778285D02*
X51165295Y-67730666D01*
X51165295Y-67730666D02*
X51308152Y-67730666D01*
X51308152Y-67730666D02*
X51403390Y-67778285D01*
X51403390Y-67778285D02*
X51451009Y-67825904D01*
X51451009Y-67825904D02*
X51498628Y-67921142D01*
X51498628Y-67921142D02*
X51498628Y-68302094D01*
X51974819Y-67254475D02*
X51974819Y-67063999D01*
X51974819Y-67063999D02*
X51927200Y-66968761D01*
X51927200Y-66968761D02*
X51879580Y-66921142D01*
X51879580Y-66921142D02*
X51736723Y-66825904D01*
X51736723Y-66825904D02*
X51546247Y-66778285D01*
X51546247Y-66778285D02*
X51165295Y-66778285D01*
X51165295Y-66778285D02*
X51070057Y-66825904D01*
X51070057Y-66825904D02*
X51022438Y-66873523D01*
X51022438Y-66873523D02*
X50974819Y-66968761D01*
X50974819Y-66968761D02*
X50974819Y-67159237D01*
X50974819Y-67159237D02*
X51022438Y-67254475D01*
X51022438Y-67254475D02*
X51070057Y-67302094D01*
X51070057Y-67302094D02*
X51165295Y-67349713D01*
X51165295Y-67349713D02*
X51403390Y-67349713D01*
X51403390Y-67349713D02*
X51498628Y-67302094D01*
X51498628Y-67302094D02*
X51546247Y-67254475D01*
X51546247Y-67254475D02*
X51593866Y-67159237D01*
X51593866Y-67159237D02*
X51593866Y-66968761D01*
X51593866Y-66968761D02*
X51546247Y-66873523D01*
X51546247Y-66873523D02*
X51498628Y-66825904D01*
X51498628Y-66825904D02*
X51403390Y-66778285D01*
X61237905Y-80210819D02*
X61237905Y-79210819D01*
X61237905Y-79210819D02*
X61476000Y-79210819D01*
X61476000Y-79210819D02*
X61618857Y-79258438D01*
X61618857Y-79258438D02*
X61714095Y-79353676D01*
X61714095Y-79353676D02*
X61761714Y-79448914D01*
X61761714Y-79448914D02*
X61809333Y-79639390D01*
X61809333Y-79639390D02*
X61809333Y-79782247D01*
X61809333Y-79782247D02*
X61761714Y-79972723D01*
X61761714Y-79972723D02*
X61714095Y-80067961D01*
X61714095Y-80067961D02*
X61618857Y-80163200D01*
X61618857Y-80163200D02*
X61476000Y-80210819D01*
X61476000Y-80210819D02*
X61237905Y-80210819D01*
X62190286Y-79306057D02*
X62237905Y-79258438D01*
X62237905Y-79258438D02*
X62333143Y-79210819D01*
X62333143Y-79210819D02*
X62571238Y-79210819D01*
X62571238Y-79210819D02*
X62666476Y-79258438D01*
X62666476Y-79258438D02*
X62714095Y-79306057D01*
X62714095Y-79306057D02*
X62761714Y-79401295D01*
X62761714Y-79401295D02*
X62761714Y-79496533D01*
X62761714Y-79496533D02*
X62714095Y-79639390D01*
X62714095Y-79639390D02*
X62142667Y-80210819D01*
X62142667Y-80210819D02*
X62761714Y-80210819D01*
X59682095Y-82010819D02*
X59682095Y-81010819D01*
X60253523Y-82010819D02*
X59824952Y-81439390D01*
X60253523Y-81010819D02*
X59682095Y-81582247D01*
X65774819Y-63158666D02*
X65298628Y-63491999D01*
X65774819Y-63730094D02*
X64774819Y-63730094D01*
X64774819Y-63730094D02*
X64774819Y-63349142D01*
X64774819Y-63349142D02*
X64822438Y-63253904D01*
X64822438Y-63253904D02*
X64870057Y-63206285D01*
X64870057Y-63206285D02*
X64965295Y-63158666D01*
X64965295Y-63158666D02*
X65108152Y-63158666D01*
X65108152Y-63158666D02*
X65203390Y-63206285D01*
X65203390Y-63206285D02*
X65251009Y-63253904D01*
X65251009Y-63253904D02*
X65298628Y-63349142D01*
X65298628Y-63349142D02*
X65298628Y-63730094D01*
X64870057Y-62777713D02*
X64822438Y-62730094D01*
X64822438Y-62730094D02*
X64774819Y-62634856D01*
X64774819Y-62634856D02*
X64774819Y-62396761D01*
X64774819Y-62396761D02*
X64822438Y-62301523D01*
X64822438Y-62301523D02*
X64870057Y-62253904D01*
X64870057Y-62253904D02*
X64965295Y-62206285D01*
X64965295Y-62206285D02*
X65060533Y-62206285D01*
X65060533Y-62206285D02*
X65203390Y-62253904D01*
X65203390Y-62253904D02*
X65774819Y-62825332D01*
X65774819Y-62825332D02*
X65774819Y-62206285D01*
X59559833Y-83724819D02*
X59226500Y-83248628D01*
X58988405Y-83724819D02*
X58988405Y-82724819D01*
X58988405Y-82724819D02*
X59369357Y-82724819D01*
X59369357Y-82724819D02*
X59464595Y-82772438D01*
X59464595Y-82772438D02*
X59512214Y-82820057D01*
X59512214Y-82820057D02*
X59559833Y-82915295D01*
X59559833Y-82915295D02*
X59559833Y-83058152D01*
X59559833Y-83058152D02*
X59512214Y-83153390D01*
X59512214Y-83153390D02*
X59464595Y-83201009D01*
X59464595Y-83201009D02*
X59369357Y-83248628D01*
X59369357Y-83248628D02*
X58988405Y-83248628D01*
X59893167Y-82724819D02*
X60512214Y-82724819D01*
X60512214Y-82724819D02*
X60178881Y-83105771D01*
X60178881Y-83105771D02*
X60321738Y-83105771D01*
X60321738Y-83105771D02*
X60416976Y-83153390D01*
X60416976Y-83153390D02*
X60464595Y-83201009D01*
X60464595Y-83201009D02*
X60512214Y-83296247D01*
X60512214Y-83296247D02*
X60512214Y-83534342D01*
X60512214Y-83534342D02*
X60464595Y-83629580D01*
X60464595Y-83629580D02*
X60416976Y-83677200D01*
X60416976Y-83677200D02*
X60321738Y-83724819D01*
X60321738Y-83724819D02*
X60036024Y-83724819D01*
X60036024Y-83724819D02*
X59940786Y-83677200D01*
X59940786Y-83677200D02*
X59893167Y-83629580D01*
X93006057Y-60547238D02*
X92958438Y-60642476D01*
X92958438Y-60642476D02*
X92863200Y-60737714D01*
X92863200Y-60737714D02*
X92720342Y-60880571D01*
X92720342Y-60880571D02*
X92672723Y-60975809D01*
X92672723Y-60975809D02*
X92672723Y-61071047D01*
X92910819Y-61023428D02*
X92863200Y-61118666D01*
X92863200Y-61118666D02*
X92767961Y-61213904D01*
X92767961Y-61213904D02*
X92577485Y-61261523D01*
X92577485Y-61261523D02*
X92244152Y-61261523D01*
X92244152Y-61261523D02*
X92053676Y-61213904D01*
X92053676Y-61213904D02*
X91958438Y-61118666D01*
X91958438Y-61118666D02*
X91910819Y-61023428D01*
X91910819Y-61023428D02*
X91910819Y-60832952D01*
X91910819Y-60832952D02*
X91958438Y-60737714D01*
X91958438Y-60737714D02*
X92053676Y-60642476D01*
X92053676Y-60642476D02*
X92244152Y-60594857D01*
X92244152Y-60594857D02*
X92577485Y-60594857D01*
X92577485Y-60594857D02*
X92767961Y-60642476D01*
X92767961Y-60642476D02*
X92863200Y-60737714D01*
X92863200Y-60737714D02*
X92910819Y-60832952D01*
X92910819Y-60832952D02*
X92910819Y-61023428D01*
X91910819Y-60261523D02*
X91910819Y-59642476D01*
X91910819Y-59642476D02*
X92291771Y-59975809D01*
X92291771Y-59975809D02*
X92291771Y-59832952D01*
X92291771Y-59832952D02*
X92339390Y-59737714D01*
X92339390Y-59737714D02*
X92387009Y-59690095D01*
X92387009Y-59690095D02*
X92482247Y-59642476D01*
X92482247Y-59642476D02*
X92720342Y-59642476D01*
X92720342Y-59642476D02*
X92815580Y-59690095D01*
X92815580Y-59690095D02*
X92863200Y-59737714D01*
X92863200Y-59737714D02*
X92910819Y-59832952D01*
X92910819Y-59832952D02*
X92910819Y-60118666D01*
X92910819Y-60118666D02*
X92863200Y-60213904D01*
X92863200Y-60213904D02*
X92815580Y-60261523D01*
X102562819Y-61348857D02*
X102086628Y-61682190D01*
X102562819Y-61920285D02*
X101562819Y-61920285D01*
X101562819Y-61920285D02*
X101562819Y-61539333D01*
X101562819Y-61539333D02*
X101610438Y-61444095D01*
X101610438Y-61444095D02*
X101658057Y-61396476D01*
X101658057Y-61396476D02*
X101753295Y-61348857D01*
X101753295Y-61348857D02*
X101896152Y-61348857D01*
X101896152Y-61348857D02*
X101991390Y-61396476D01*
X101991390Y-61396476D02*
X102039009Y-61444095D01*
X102039009Y-61444095D02*
X102086628Y-61539333D01*
X102086628Y-61539333D02*
X102086628Y-61920285D01*
X102562819Y-60396476D02*
X102562819Y-60967904D01*
X102562819Y-60682190D02*
X101562819Y-60682190D01*
X101562819Y-60682190D02*
X101705676Y-60777428D01*
X101705676Y-60777428D02*
X101800914Y-60872666D01*
X101800914Y-60872666D02*
X101848533Y-60967904D01*
X101991390Y-59825047D02*
X101943771Y-59920285D01*
X101943771Y-59920285D02*
X101896152Y-59967904D01*
X101896152Y-59967904D02*
X101800914Y-60015523D01*
X101800914Y-60015523D02*
X101753295Y-60015523D01*
X101753295Y-60015523D02*
X101658057Y-59967904D01*
X101658057Y-59967904D02*
X101610438Y-59920285D01*
X101610438Y-59920285D02*
X101562819Y-59825047D01*
X101562819Y-59825047D02*
X101562819Y-59634571D01*
X101562819Y-59634571D02*
X101610438Y-59539333D01*
X101610438Y-59539333D02*
X101658057Y-59491714D01*
X101658057Y-59491714D02*
X101753295Y-59444095D01*
X101753295Y-59444095D02*
X101800914Y-59444095D01*
X101800914Y-59444095D02*
X101896152Y-59491714D01*
X101896152Y-59491714D02*
X101943771Y-59539333D01*
X101943771Y-59539333D02*
X101991390Y-59634571D01*
X101991390Y-59634571D02*
X101991390Y-59825047D01*
X101991390Y-59825047D02*
X102039009Y-59920285D01*
X102039009Y-59920285D02*
X102086628Y-59967904D01*
X102086628Y-59967904D02*
X102181866Y-60015523D01*
X102181866Y-60015523D02*
X102372342Y-60015523D01*
X102372342Y-60015523D02*
X102467580Y-59967904D01*
X102467580Y-59967904D02*
X102515200Y-59920285D01*
X102515200Y-59920285D02*
X102562819Y-59825047D01*
X102562819Y-59825047D02*
X102562819Y-59634571D01*
X102562819Y-59634571D02*
X102515200Y-59539333D01*
X102515200Y-59539333D02*
X102467580Y-59491714D01*
X102467580Y-59491714D02*
X102372342Y-59444095D01*
X102372342Y-59444095D02*
X102181866Y-59444095D01*
X102181866Y-59444095D02*
X102086628Y-59491714D01*
X102086628Y-59491714D02*
X102039009Y-59539333D01*
X102039009Y-59539333D02*
X101991390Y-59634571D01*
X107211905Y-61708819D02*
X107211905Y-60708819D01*
X107211905Y-60708819D02*
X107450000Y-60708819D01*
X107450000Y-60708819D02*
X107592857Y-60756438D01*
X107592857Y-60756438D02*
X107688095Y-60851676D01*
X107688095Y-60851676D02*
X107735714Y-60946914D01*
X107735714Y-60946914D02*
X107783333Y-61137390D01*
X107783333Y-61137390D02*
X107783333Y-61280247D01*
X107783333Y-61280247D02*
X107735714Y-61470723D01*
X107735714Y-61470723D02*
X107688095Y-61565961D01*
X107688095Y-61565961D02*
X107592857Y-61661200D01*
X107592857Y-61661200D02*
X107450000Y-61708819D01*
X107450000Y-61708819D02*
X107211905Y-61708819D01*
X108735714Y-61708819D02*
X108164286Y-61708819D01*
X108450000Y-61708819D02*
X108450000Y-60708819D01*
X108450000Y-60708819D02*
X108354762Y-60851676D01*
X108354762Y-60851676D02*
X108259524Y-60946914D01*
X108259524Y-60946914D02*
X108164286Y-60994533D01*
X93078057Y-55721238D02*
X93030438Y-55816476D01*
X93030438Y-55816476D02*
X92935200Y-55911714D01*
X92935200Y-55911714D02*
X92792342Y-56054571D01*
X92792342Y-56054571D02*
X92744723Y-56149809D01*
X92744723Y-56149809D02*
X92744723Y-56245047D01*
X92982819Y-56197428D02*
X92935200Y-56292666D01*
X92935200Y-56292666D02*
X92839961Y-56387904D01*
X92839961Y-56387904D02*
X92649485Y-56435523D01*
X92649485Y-56435523D02*
X92316152Y-56435523D01*
X92316152Y-56435523D02*
X92125676Y-56387904D01*
X92125676Y-56387904D02*
X92030438Y-56292666D01*
X92030438Y-56292666D02*
X91982819Y-56197428D01*
X91982819Y-56197428D02*
X91982819Y-56006952D01*
X91982819Y-56006952D02*
X92030438Y-55911714D01*
X92030438Y-55911714D02*
X92125676Y-55816476D01*
X92125676Y-55816476D02*
X92316152Y-55768857D01*
X92316152Y-55768857D02*
X92649485Y-55768857D01*
X92649485Y-55768857D02*
X92839961Y-55816476D01*
X92839961Y-55816476D02*
X92935200Y-55911714D01*
X92935200Y-55911714D02*
X92982819Y-56006952D01*
X92982819Y-56006952D02*
X92982819Y-56197428D01*
X92316152Y-54911714D02*
X92982819Y-54911714D01*
X91935200Y-55149809D02*
X92649485Y-55387904D01*
X92649485Y-55387904D02*
X92649485Y-54768857D01*
X117564819Y-80851333D02*
X118279104Y-80851333D01*
X118279104Y-80851333D02*
X118421961Y-80898952D01*
X118421961Y-80898952D02*
X118517200Y-80994190D01*
X118517200Y-80994190D02*
X118564819Y-81137047D01*
X118564819Y-81137047D02*
X118564819Y-81232285D01*
X118564819Y-79851333D02*
X118564819Y-80422761D01*
X118564819Y-80137047D02*
X117564819Y-80137047D01*
X117564819Y-80137047D02*
X117707676Y-80232285D01*
X117707676Y-80232285D02*
X117802914Y-80327523D01*
X117802914Y-80327523D02*
X117850533Y-80422761D01*
X77470095Y-82766819D02*
X77470095Y-83576342D01*
X77470095Y-83576342D02*
X77517714Y-83671580D01*
X77517714Y-83671580D02*
X77565333Y-83719200D01*
X77565333Y-83719200D02*
X77660571Y-83766819D01*
X77660571Y-83766819D02*
X77851047Y-83766819D01*
X77851047Y-83766819D02*
X77946285Y-83719200D01*
X77946285Y-83719200D02*
X77993904Y-83671580D01*
X77993904Y-83671580D02*
X78041523Y-83576342D01*
X78041523Y-83576342D02*
X78041523Y-82766819D01*
X78470095Y-82862057D02*
X78517714Y-82814438D01*
X78517714Y-82814438D02*
X78612952Y-82766819D01*
X78612952Y-82766819D02*
X78851047Y-82766819D01*
X78851047Y-82766819D02*
X78946285Y-82814438D01*
X78946285Y-82814438D02*
X78993904Y-82862057D01*
X78993904Y-82862057D02*
X79041523Y-82957295D01*
X79041523Y-82957295D02*
X79041523Y-83052533D01*
X79041523Y-83052533D02*
X78993904Y-83195390D01*
X78993904Y-83195390D02*
X78422476Y-83766819D01*
X78422476Y-83766819D02*
X79041523Y-83766819D01*
X93164819Y-82430857D02*
X92688628Y-82764190D01*
X93164819Y-83002285D02*
X92164819Y-83002285D01*
X92164819Y-83002285D02*
X92164819Y-82621333D01*
X92164819Y-82621333D02*
X92212438Y-82526095D01*
X92212438Y-82526095D02*
X92260057Y-82478476D01*
X92260057Y-82478476D02*
X92355295Y-82430857D01*
X92355295Y-82430857D02*
X92498152Y-82430857D01*
X92498152Y-82430857D02*
X92593390Y-82478476D01*
X92593390Y-82478476D02*
X92641009Y-82526095D01*
X92641009Y-82526095D02*
X92688628Y-82621333D01*
X92688628Y-82621333D02*
X92688628Y-83002285D01*
X93164819Y-81478476D02*
X93164819Y-82049904D01*
X93164819Y-81764190D02*
X92164819Y-81764190D01*
X92164819Y-81764190D02*
X92307676Y-81859428D01*
X92307676Y-81859428D02*
X92402914Y-81954666D01*
X92402914Y-81954666D02*
X92450533Y-82049904D01*
X92164819Y-81145142D02*
X92164819Y-80478476D01*
X92164819Y-80478476D02*
X93164819Y-80907047D01*
X100996819Y-74302857D02*
X100520628Y-74636190D01*
X100996819Y-74874285D02*
X99996819Y-74874285D01*
X99996819Y-74874285D02*
X99996819Y-74493333D01*
X99996819Y-74493333D02*
X100044438Y-74398095D01*
X100044438Y-74398095D02*
X100092057Y-74350476D01*
X100092057Y-74350476D02*
X100187295Y-74302857D01*
X100187295Y-74302857D02*
X100330152Y-74302857D01*
X100330152Y-74302857D02*
X100425390Y-74350476D01*
X100425390Y-74350476D02*
X100473009Y-74398095D01*
X100473009Y-74398095D02*
X100520628Y-74493333D01*
X100520628Y-74493333D02*
X100520628Y-74874285D01*
X100996819Y-73350476D02*
X100996819Y-73921904D01*
X100996819Y-73636190D02*
X99996819Y-73636190D01*
X99996819Y-73636190D02*
X100139676Y-73731428D01*
X100139676Y-73731428D02*
X100234914Y-73826666D01*
X100234914Y-73826666D02*
X100282533Y-73921904D01*
X99996819Y-72445714D02*
X99996819Y-72921904D01*
X99996819Y-72921904D02*
X100473009Y-72969523D01*
X100473009Y-72969523D02*
X100425390Y-72921904D01*
X100425390Y-72921904D02*
X100377771Y-72826666D01*
X100377771Y-72826666D02*
X100377771Y-72588571D01*
X100377771Y-72588571D02*
X100425390Y-72493333D01*
X100425390Y-72493333D02*
X100473009Y-72445714D01*
X100473009Y-72445714D02*
X100568247Y-72398095D01*
X100568247Y-72398095D02*
X100806342Y-72398095D01*
X100806342Y-72398095D02*
X100901580Y-72445714D01*
X100901580Y-72445714D02*
X100949200Y-72493333D01*
X100949200Y-72493333D02*
X100996819Y-72588571D01*
X100996819Y-72588571D02*
X100996819Y-72826666D01*
X100996819Y-72826666D02*
X100949200Y-72921904D01*
X100949200Y-72921904D02*
X100901580Y-72969523D01*
X96385142Y-86052819D02*
X96051809Y-85576628D01*
X95813714Y-86052819D02*
X95813714Y-85052819D01*
X95813714Y-85052819D02*
X96194666Y-85052819D01*
X96194666Y-85052819D02*
X96289904Y-85100438D01*
X96289904Y-85100438D02*
X96337523Y-85148057D01*
X96337523Y-85148057D02*
X96385142Y-85243295D01*
X96385142Y-85243295D02*
X96385142Y-85386152D01*
X96385142Y-85386152D02*
X96337523Y-85481390D01*
X96337523Y-85481390D02*
X96289904Y-85529009D01*
X96289904Y-85529009D02*
X96194666Y-85576628D01*
X96194666Y-85576628D02*
X95813714Y-85576628D01*
X97337523Y-86052819D02*
X96766095Y-86052819D01*
X97051809Y-86052819D02*
X97051809Y-85052819D01*
X97051809Y-85052819D02*
X96956571Y-85195676D01*
X96956571Y-85195676D02*
X96861333Y-85290914D01*
X96861333Y-85290914D02*
X96766095Y-85338533D01*
X98194666Y-85052819D02*
X98004190Y-85052819D01*
X98004190Y-85052819D02*
X97908952Y-85100438D01*
X97908952Y-85100438D02*
X97861333Y-85148057D01*
X97861333Y-85148057D02*
X97766095Y-85290914D01*
X97766095Y-85290914D02*
X97718476Y-85481390D01*
X97718476Y-85481390D02*
X97718476Y-85862342D01*
X97718476Y-85862342D02*
X97766095Y-85957580D01*
X97766095Y-85957580D02*
X97813714Y-86005200D01*
X97813714Y-86005200D02*
X97908952Y-86052819D01*
X97908952Y-86052819D02*
X98099428Y-86052819D01*
X98099428Y-86052819D02*
X98194666Y-86005200D01*
X98194666Y-86005200D02*
X98242285Y-85957580D01*
X98242285Y-85957580D02*
X98289904Y-85862342D01*
X98289904Y-85862342D02*
X98289904Y-85624247D01*
X98289904Y-85624247D02*
X98242285Y-85529009D01*
X98242285Y-85529009D02*
X98194666Y-85481390D01*
X98194666Y-85481390D02*
X98099428Y-85433771D01*
X98099428Y-85433771D02*
X97908952Y-85433771D01*
X97908952Y-85433771D02*
X97813714Y-85481390D01*
X97813714Y-85481390D02*
X97766095Y-85529009D01*
X97766095Y-85529009D02*
X97718476Y-85624247D01*
X112680819Y-62618857D02*
X112204628Y-62952190D01*
X112680819Y-63190285D02*
X111680819Y-63190285D01*
X111680819Y-63190285D02*
X111680819Y-62809333D01*
X111680819Y-62809333D02*
X111728438Y-62714095D01*
X111728438Y-62714095D02*
X111776057Y-62666476D01*
X111776057Y-62666476D02*
X111871295Y-62618857D01*
X111871295Y-62618857D02*
X112014152Y-62618857D01*
X112014152Y-62618857D02*
X112109390Y-62666476D01*
X112109390Y-62666476D02*
X112157009Y-62714095D01*
X112157009Y-62714095D02*
X112204628Y-62809333D01*
X112204628Y-62809333D02*
X112204628Y-63190285D01*
X112680819Y-61666476D02*
X112680819Y-62237904D01*
X112680819Y-61952190D02*
X111680819Y-61952190D01*
X111680819Y-61952190D02*
X111823676Y-62047428D01*
X111823676Y-62047428D02*
X111918914Y-62142666D01*
X111918914Y-62142666D02*
X111966533Y-62237904D01*
X112680819Y-61190285D02*
X112680819Y-60999809D01*
X112680819Y-60999809D02*
X112633200Y-60904571D01*
X112633200Y-60904571D02*
X112585580Y-60856952D01*
X112585580Y-60856952D02*
X112442723Y-60761714D01*
X112442723Y-60761714D02*
X112252247Y-60714095D01*
X112252247Y-60714095D02*
X111871295Y-60714095D01*
X111871295Y-60714095D02*
X111776057Y-60761714D01*
X111776057Y-60761714D02*
X111728438Y-60809333D01*
X111728438Y-60809333D02*
X111680819Y-60904571D01*
X111680819Y-60904571D02*
X111680819Y-61095047D01*
X111680819Y-61095047D02*
X111728438Y-61190285D01*
X111728438Y-61190285D02*
X111776057Y-61237904D01*
X111776057Y-61237904D02*
X111871295Y-61285523D01*
X111871295Y-61285523D02*
X112109390Y-61285523D01*
X112109390Y-61285523D02*
X112204628Y-61237904D01*
X112204628Y-61237904D02*
X112252247Y-61190285D01*
X112252247Y-61190285D02*
X112299866Y-61095047D01*
X112299866Y-61095047D02*
X112299866Y-60904571D01*
X112299866Y-60904571D02*
X112252247Y-60809333D01*
X112252247Y-60809333D02*
X112204628Y-60761714D01*
X112204628Y-60761714D02*
X112109390Y-60714095D01*
X103632095Y-76416819D02*
X103632095Y-77226342D01*
X103632095Y-77226342D02*
X103679714Y-77321580D01*
X103679714Y-77321580D02*
X103727333Y-77369200D01*
X103727333Y-77369200D02*
X103822571Y-77416819D01*
X103822571Y-77416819D02*
X104013047Y-77416819D01*
X104013047Y-77416819D02*
X104108285Y-77369200D01*
X104108285Y-77369200D02*
X104155904Y-77321580D01*
X104155904Y-77321580D02*
X104203523Y-77226342D01*
X104203523Y-77226342D02*
X104203523Y-76416819D01*
X105108285Y-76750152D02*
X105108285Y-77416819D01*
X104870190Y-76369200D02*
X104632095Y-77083485D01*
X104632095Y-77083485D02*
X105251142Y-77083485D01*
X94222819Y-73794857D02*
X93746628Y-74128190D01*
X94222819Y-74366285D02*
X93222819Y-74366285D01*
X93222819Y-74366285D02*
X93222819Y-73985333D01*
X93222819Y-73985333D02*
X93270438Y-73890095D01*
X93270438Y-73890095D02*
X93318057Y-73842476D01*
X93318057Y-73842476D02*
X93413295Y-73794857D01*
X93413295Y-73794857D02*
X93556152Y-73794857D01*
X93556152Y-73794857D02*
X93651390Y-73842476D01*
X93651390Y-73842476D02*
X93699009Y-73890095D01*
X93699009Y-73890095D02*
X93746628Y-73985333D01*
X93746628Y-73985333D02*
X93746628Y-74366285D01*
X94222819Y-72842476D02*
X94222819Y-73413904D01*
X94222819Y-73128190D02*
X93222819Y-73128190D01*
X93222819Y-73128190D02*
X93365676Y-73223428D01*
X93365676Y-73223428D02*
X93460914Y-73318666D01*
X93460914Y-73318666D02*
X93508533Y-73413904D01*
X93556152Y-71985333D02*
X94222819Y-71985333D01*
X93175200Y-72223428D02*
X93889485Y-72461523D01*
X93889485Y-72461523D02*
X93889485Y-71842476D01*
X76442819Y-66936857D02*
X75966628Y-67270190D01*
X76442819Y-67508285D02*
X75442819Y-67508285D01*
X75442819Y-67508285D02*
X75442819Y-67127333D01*
X75442819Y-67127333D02*
X75490438Y-67032095D01*
X75490438Y-67032095D02*
X75538057Y-66984476D01*
X75538057Y-66984476D02*
X75633295Y-66936857D01*
X75633295Y-66936857D02*
X75776152Y-66936857D01*
X75776152Y-66936857D02*
X75871390Y-66984476D01*
X75871390Y-66984476D02*
X75919009Y-67032095D01*
X75919009Y-67032095D02*
X75966628Y-67127333D01*
X75966628Y-67127333D02*
X75966628Y-67508285D01*
X76442819Y-65984476D02*
X76442819Y-66555904D01*
X76442819Y-66270190D02*
X75442819Y-66270190D01*
X75442819Y-66270190D02*
X75585676Y-66365428D01*
X75585676Y-66365428D02*
X75680914Y-66460666D01*
X75680914Y-66460666D02*
X75728533Y-66555904D01*
X75442819Y-65651142D02*
X75442819Y-65032095D01*
X75442819Y-65032095D02*
X75823771Y-65365428D01*
X75823771Y-65365428D02*
X75823771Y-65222571D01*
X75823771Y-65222571D02*
X75871390Y-65127333D01*
X75871390Y-65127333D02*
X75919009Y-65079714D01*
X75919009Y-65079714D02*
X76014247Y-65032095D01*
X76014247Y-65032095D02*
X76252342Y-65032095D01*
X76252342Y-65032095D02*
X76347580Y-65079714D01*
X76347580Y-65079714D02*
X76395200Y-65127333D01*
X76395200Y-65127333D02*
X76442819Y-65222571D01*
X76442819Y-65222571D02*
X76442819Y-65508285D01*
X76442819Y-65508285D02*
X76395200Y-65603523D01*
X76395200Y-65603523D02*
X76347580Y-65651142D01*
X81026095Y-60878819D02*
X81026095Y-61688342D01*
X81026095Y-61688342D02*
X81073714Y-61783580D01*
X81073714Y-61783580D02*
X81121333Y-61831200D01*
X81121333Y-61831200D02*
X81216571Y-61878819D01*
X81216571Y-61878819D02*
X81407047Y-61878819D01*
X81407047Y-61878819D02*
X81502285Y-61831200D01*
X81502285Y-61831200D02*
X81549904Y-61783580D01*
X81549904Y-61783580D02*
X81597523Y-61688342D01*
X81597523Y-61688342D02*
X81597523Y-60878819D01*
X81978476Y-60878819D02*
X82597523Y-60878819D01*
X82597523Y-60878819D02*
X82264190Y-61259771D01*
X82264190Y-61259771D02*
X82407047Y-61259771D01*
X82407047Y-61259771D02*
X82502285Y-61307390D01*
X82502285Y-61307390D02*
X82549904Y-61355009D01*
X82549904Y-61355009D02*
X82597523Y-61450247D01*
X82597523Y-61450247D02*
X82597523Y-61688342D01*
X82597523Y-61688342D02*
X82549904Y-61783580D01*
X82549904Y-61783580D02*
X82502285Y-61831200D01*
X82502285Y-61831200D02*
X82407047Y-61878819D01*
X82407047Y-61878819D02*
X82121333Y-61878819D01*
X82121333Y-61878819D02*
X82026095Y-61831200D01*
X82026095Y-61831200D02*
X81978476Y-61783580D01*
X101433333Y-85321580D02*
X101385714Y-85369200D01*
X101385714Y-85369200D02*
X101242857Y-85416819D01*
X101242857Y-85416819D02*
X101147619Y-85416819D01*
X101147619Y-85416819D02*
X101004762Y-85369200D01*
X101004762Y-85369200D02*
X100909524Y-85273961D01*
X100909524Y-85273961D02*
X100861905Y-85178723D01*
X100861905Y-85178723D02*
X100814286Y-84988247D01*
X100814286Y-84988247D02*
X100814286Y-84845390D01*
X100814286Y-84845390D02*
X100861905Y-84654914D01*
X100861905Y-84654914D02*
X100909524Y-84559676D01*
X100909524Y-84559676D02*
X101004762Y-84464438D01*
X101004762Y-84464438D02*
X101147619Y-84416819D01*
X101147619Y-84416819D02*
X101242857Y-84416819D01*
X101242857Y-84416819D02*
X101385714Y-84464438D01*
X101385714Y-84464438D02*
X101433333Y-84512057D01*
X102290476Y-84750152D02*
X102290476Y-85416819D01*
X102052381Y-84369200D02*
X101814286Y-85083485D01*
X101814286Y-85083485D02*
X102433333Y-85083485D01*
X106023580Y-83224666D02*
X106071200Y-83272285D01*
X106071200Y-83272285D02*
X106118819Y-83415142D01*
X106118819Y-83415142D02*
X106118819Y-83510380D01*
X106118819Y-83510380D02*
X106071200Y-83653237D01*
X106071200Y-83653237D02*
X105975961Y-83748475D01*
X105975961Y-83748475D02*
X105880723Y-83796094D01*
X105880723Y-83796094D02*
X105690247Y-83843713D01*
X105690247Y-83843713D02*
X105547390Y-83843713D01*
X105547390Y-83843713D02*
X105356914Y-83796094D01*
X105356914Y-83796094D02*
X105261676Y-83748475D01*
X105261676Y-83748475D02*
X105166438Y-83653237D01*
X105166438Y-83653237D02*
X105118819Y-83510380D01*
X105118819Y-83510380D02*
X105118819Y-83415142D01*
X105118819Y-83415142D02*
X105166438Y-83272285D01*
X105166438Y-83272285D02*
X105214057Y-83224666D01*
X105118819Y-82367523D02*
X105118819Y-82557999D01*
X105118819Y-82557999D02*
X105166438Y-82653237D01*
X105166438Y-82653237D02*
X105214057Y-82700856D01*
X105214057Y-82700856D02*
X105356914Y-82796094D01*
X105356914Y-82796094D02*
X105547390Y-82843713D01*
X105547390Y-82843713D02*
X105928342Y-82843713D01*
X105928342Y-82843713D02*
X106023580Y-82796094D01*
X106023580Y-82796094D02*
X106071200Y-82748475D01*
X106071200Y-82748475D02*
X106118819Y-82653237D01*
X106118819Y-82653237D02*
X106118819Y-82462761D01*
X106118819Y-82462761D02*
X106071200Y-82367523D01*
X106071200Y-82367523D02*
X106023580Y-82319904D01*
X106023580Y-82319904D02*
X105928342Y-82272285D01*
X105928342Y-82272285D02*
X105690247Y-82272285D01*
X105690247Y-82272285D02*
X105595009Y-82319904D01*
X105595009Y-82319904D02*
X105547390Y-82367523D01*
X105547390Y-82367523D02*
X105499771Y-82462761D01*
X105499771Y-82462761D02*
X105499771Y-82653237D01*
X105499771Y-82653237D02*
X105547390Y-82748475D01*
X105547390Y-82748475D02*
X105595009Y-82796094D01*
X105595009Y-82796094D02*
X105690247Y-82843713D01*
X118944819Y-62714094D02*
X117944819Y-62714094D01*
X117944819Y-62714094D02*
X117944819Y-62475999D01*
X117944819Y-62475999D02*
X117992438Y-62333142D01*
X117992438Y-62333142D02*
X118087676Y-62237904D01*
X118087676Y-62237904D02*
X118182914Y-62190285D01*
X118182914Y-62190285D02*
X118373390Y-62142666D01*
X118373390Y-62142666D02*
X118516247Y-62142666D01*
X118516247Y-62142666D02*
X118706723Y-62190285D01*
X118706723Y-62190285D02*
X118801961Y-62237904D01*
X118801961Y-62237904D02*
X118897200Y-62333142D01*
X118897200Y-62333142D02*
X118944819Y-62475999D01*
X118944819Y-62475999D02*
X118944819Y-62714094D01*
X117944819Y-61809332D02*
X117944819Y-61190285D01*
X117944819Y-61190285D02*
X118325771Y-61523618D01*
X118325771Y-61523618D02*
X118325771Y-61380761D01*
X118325771Y-61380761D02*
X118373390Y-61285523D01*
X118373390Y-61285523D02*
X118421009Y-61237904D01*
X118421009Y-61237904D02*
X118516247Y-61190285D01*
X118516247Y-61190285D02*
X118754342Y-61190285D01*
X118754342Y-61190285D02*
X118849580Y-61237904D01*
X118849580Y-61237904D02*
X118897200Y-61285523D01*
X118897200Y-61285523D02*
X118944819Y-61380761D01*
X118944819Y-61380761D02*
X118944819Y-61666475D01*
X118944819Y-61666475D02*
X118897200Y-61761713D01*
X118897200Y-61761713D02*
X118849580Y-61809332D01*
X103928057Y-52673238D02*
X103880438Y-52768476D01*
X103880438Y-52768476D02*
X103785200Y-52863714D01*
X103785200Y-52863714D02*
X103642342Y-53006571D01*
X103642342Y-53006571D02*
X103594723Y-53101809D01*
X103594723Y-53101809D02*
X103594723Y-53197047D01*
X103832819Y-53149428D02*
X103785200Y-53244666D01*
X103785200Y-53244666D02*
X103689961Y-53339904D01*
X103689961Y-53339904D02*
X103499485Y-53387523D01*
X103499485Y-53387523D02*
X103166152Y-53387523D01*
X103166152Y-53387523D02*
X102975676Y-53339904D01*
X102975676Y-53339904D02*
X102880438Y-53244666D01*
X102880438Y-53244666D02*
X102832819Y-53149428D01*
X102832819Y-53149428D02*
X102832819Y-52958952D01*
X102832819Y-52958952D02*
X102880438Y-52863714D01*
X102880438Y-52863714D02*
X102975676Y-52768476D01*
X102975676Y-52768476D02*
X103166152Y-52720857D01*
X103166152Y-52720857D02*
X103499485Y-52720857D01*
X103499485Y-52720857D02*
X103689961Y-52768476D01*
X103689961Y-52768476D02*
X103785200Y-52863714D01*
X103785200Y-52863714D02*
X103832819Y-52958952D01*
X103832819Y-52958952D02*
X103832819Y-53149428D01*
X102928057Y-52339904D02*
X102880438Y-52292285D01*
X102880438Y-52292285D02*
X102832819Y-52197047D01*
X102832819Y-52197047D02*
X102832819Y-51958952D01*
X102832819Y-51958952D02*
X102880438Y-51863714D01*
X102880438Y-51863714D02*
X102928057Y-51816095D01*
X102928057Y-51816095D02*
X103023295Y-51768476D01*
X103023295Y-51768476D02*
X103118533Y-51768476D01*
X103118533Y-51768476D02*
X103261390Y-51816095D01*
X103261390Y-51816095D02*
X103832819Y-52387523D01*
X103832819Y-52387523D02*
X103832819Y-51768476D01*
X89495333Y-65383580D02*
X89447714Y-65431200D01*
X89447714Y-65431200D02*
X89304857Y-65478819D01*
X89304857Y-65478819D02*
X89209619Y-65478819D01*
X89209619Y-65478819D02*
X89066762Y-65431200D01*
X89066762Y-65431200D02*
X88971524Y-65335961D01*
X88971524Y-65335961D02*
X88923905Y-65240723D01*
X88923905Y-65240723D02*
X88876286Y-65050247D01*
X88876286Y-65050247D02*
X88876286Y-64907390D01*
X88876286Y-64907390D02*
X88923905Y-64716914D01*
X88923905Y-64716914D02*
X88971524Y-64621676D01*
X88971524Y-64621676D02*
X89066762Y-64526438D01*
X89066762Y-64526438D02*
X89209619Y-64478819D01*
X89209619Y-64478819D02*
X89304857Y-64478819D01*
X89304857Y-64478819D02*
X89447714Y-64526438D01*
X89447714Y-64526438D02*
X89495333Y-64574057D01*
X90447714Y-65478819D02*
X89876286Y-65478819D01*
X90162000Y-65478819D02*
X90162000Y-64478819D01*
X90162000Y-64478819D02*
X90066762Y-64621676D01*
X90066762Y-64621676D02*
X89971524Y-64716914D01*
X89971524Y-64716914D02*
X89876286Y-64764533D01*
X92792057Y-66897238D02*
X92744438Y-66992476D01*
X92744438Y-66992476D02*
X92649200Y-67087714D01*
X92649200Y-67087714D02*
X92506342Y-67230571D01*
X92506342Y-67230571D02*
X92458723Y-67325809D01*
X92458723Y-67325809D02*
X92458723Y-67421047D01*
X92696819Y-67373428D02*
X92649200Y-67468666D01*
X92649200Y-67468666D02*
X92553961Y-67563904D01*
X92553961Y-67563904D02*
X92363485Y-67611523D01*
X92363485Y-67611523D02*
X92030152Y-67611523D01*
X92030152Y-67611523D02*
X91839676Y-67563904D01*
X91839676Y-67563904D02*
X91744438Y-67468666D01*
X91744438Y-67468666D02*
X91696819Y-67373428D01*
X91696819Y-67373428D02*
X91696819Y-67182952D01*
X91696819Y-67182952D02*
X91744438Y-67087714D01*
X91744438Y-67087714D02*
X91839676Y-66992476D01*
X91839676Y-66992476D02*
X92030152Y-66944857D01*
X92030152Y-66944857D02*
X92363485Y-66944857D01*
X92363485Y-66944857D02*
X92553961Y-66992476D01*
X92553961Y-66992476D02*
X92649200Y-67087714D01*
X92649200Y-67087714D02*
X92696819Y-67182952D01*
X92696819Y-67182952D02*
X92696819Y-67373428D01*
X92696819Y-65992476D02*
X92696819Y-66563904D01*
X92696819Y-66278190D02*
X91696819Y-66278190D01*
X91696819Y-66278190D02*
X91839676Y-66373428D01*
X91839676Y-66373428D02*
X91934914Y-66468666D01*
X91934914Y-66468666D02*
X91982533Y-66563904D01*
X89662095Y-51270819D02*
X89662095Y-52080342D01*
X89662095Y-52080342D02*
X89709714Y-52175580D01*
X89709714Y-52175580D02*
X89757333Y-52223200D01*
X89757333Y-52223200D02*
X89852571Y-52270819D01*
X89852571Y-52270819D02*
X90043047Y-52270819D01*
X90043047Y-52270819D02*
X90138285Y-52223200D01*
X90138285Y-52223200D02*
X90185904Y-52175580D01*
X90185904Y-52175580D02*
X90233523Y-52080342D01*
X90233523Y-52080342D02*
X90233523Y-51270819D01*
X91233523Y-52270819D02*
X90662095Y-52270819D01*
X90947809Y-52270819D02*
X90947809Y-51270819D01*
X90947809Y-51270819D02*
X90852571Y-51413676D01*
X90852571Y-51413676D02*
X90757333Y-51508914D01*
X90757333Y-51508914D02*
X90662095Y-51556533D01*
X96861333Y-74019580D02*
X96813714Y-74067200D01*
X96813714Y-74067200D02*
X96670857Y-74114819D01*
X96670857Y-74114819D02*
X96575619Y-74114819D01*
X96575619Y-74114819D02*
X96432762Y-74067200D01*
X96432762Y-74067200D02*
X96337524Y-73971961D01*
X96337524Y-73971961D02*
X96289905Y-73876723D01*
X96289905Y-73876723D02*
X96242286Y-73686247D01*
X96242286Y-73686247D02*
X96242286Y-73543390D01*
X96242286Y-73543390D02*
X96289905Y-73352914D01*
X96289905Y-73352914D02*
X96337524Y-73257676D01*
X96337524Y-73257676D02*
X96432762Y-73162438D01*
X96432762Y-73162438D02*
X96575619Y-73114819D01*
X96575619Y-73114819D02*
X96670857Y-73114819D01*
X96670857Y-73114819D02*
X96813714Y-73162438D01*
X96813714Y-73162438D02*
X96861333Y-73210057D01*
X97766095Y-73114819D02*
X97289905Y-73114819D01*
X97289905Y-73114819D02*
X97242286Y-73591009D01*
X97242286Y-73591009D02*
X97289905Y-73543390D01*
X97289905Y-73543390D02*
X97385143Y-73495771D01*
X97385143Y-73495771D02*
X97623238Y-73495771D01*
X97623238Y-73495771D02*
X97718476Y-73543390D01*
X97718476Y-73543390D02*
X97766095Y-73591009D01*
X97766095Y-73591009D02*
X97813714Y-73686247D01*
X97813714Y-73686247D02*
X97813714Y-73924342D01*
X97813714Y-73924342D02*
X97766095Y-74019580D01*
X97766095Y-74019580D02*
X97718476Y-74067200D01*
X97718476Y-74067200D02*
X97623238Y-74114819D01*
X97623238Y-74114819D02*
X97385143Y-74114819D01*
X97385143Y-74114819D02*
X97289905Y-74067200D01*
X97289905Y-74067200D02*
X97242286Y-74019580D01*
X59523333Y-90370819D02*
X59190000Y-89894628D01*
X58951905Y-90370819D02*
X58951905Y-89370819D01*
X58951905Y-89370819D02*
X59332857Y-89370819D01*
X59332857Y-89370819D02*
X59428095Y-89418438D01*
X59428095Y-89418438D02*
X59475714Y-89466057D01*
X59475714Y-89466057D02*
X59523333Y-89561295D01*
X59523333Y-89561295D02*
X59523333Y-89704152D01*
X59523333Y-89704152D02*
X59475714Y-89799390D01*
X59475714Y-89799390D02*
X59428095Y-89847009D01*
X59428095Y-89847009D02*
X59332857Y-89894628D01*
X59332857Y-89894628D02*
X58951905Y-89894628D01*
X60475714Y-90370819D02*
X59904286Y-90370819D01*
X60190000Y-90370819D02*
X60190000Y-89370819D01*
X60190000Y-89370819D02*
X60094762Y-89513676D01*
X60094762Y-89513676D02*
X59999524Y-89608914D01*
X59999524Y-89608914D02*
X59904286Y-89656533D01*
D10*
X63553191Y-73623744D02*
X62701744Y-74475191D01*
X62266256Y-72336809D02*
X61414809Y-73188256D01*
X61020000Y-58418000D02*
X58170000Y-58418000D01*
X60780000Y-58658000D02*
X50960000Y-58658000D01*
X50960000Y-58658000D02*
X50960000Y-59658000D01*
X50960000Y-59658000D02*
X49560000Y-59658000D01*
X49560000Y-59658000D02*
X49560000Y-61468000D01*
X61020000Y-61268000D02*
X61020000Y-58418000D01*
X60780000Y-61468000D02*
X60780000Y-58658000D01*
X60780000Y-61468000D02*
X60780000Y-64278000D01*
X50960000Y-63278000D02*
X49560000Y-63278000D01*
X49560000Y-63278000D02*
X49560000Y-61468000D01*
X60780000Y-64278000D02*
X50960000Y-64278000D01*
X50960000Y-64278000D02*
X50960000Y-63278000D01*
X58006064Y-76348000D02*
X56801936Y-76348000D01*
X58006064Y-74528000D02*
X56801936Y-74528000D01*
X64410000Y-67723936D02*
X64410000Y-68928064D01*
X62590000Y-67723936D02*
X62590000Y-68928064D01*
X65880064Y-86000000D02*
X64675936Y-86000000D01*
X65880064Y-84180000D02*
X64675936Y-84180000D01*
X65916564Y-89048000D02*
X64712436Y-89048000D01*
X65916564Y-87228000D02*
X64712436Y-87228000D01*
X75089936Y-78084000D02*
X76294064Y-78084000D01*
X75089936Y-79904000D02*
X76294064Y-79904000D01*
X75191252Y-82498000D02*
X74668748Y-82498000D01*
X75191252Y-81078000D02*
X74668748Y-81078000D01*
X70052000Y-86361748D02*
X70052000Y-86884252D01*
X68632000Y-86361748D02*
X68632000Y-86884252D01*
X53536436Y-82656000D02*
X54740564Y-82656000D01*
X53536436Y-84476000D02*
X54740564Y-84476000D01*
X52430000Y-73536564D02*
X52430000Y-72332436D01*
X54250000Y-73536564D02*
X54250000Y-72332436D01*
X52430000Y-68166064D02*
X52430000Y-66961936D01*
X54250000Y-68166064D02*
X54250000Y-66961936D01*
X58904000Y-79756000D02*
X58254000Y-79756000D01*
X58254000Y-80876000D02*
X58254000Y-78636000D01*
X58254000Y-78636000D02*
X54014000Y-78636000D01*
X57654000Y-80876000D02*
X57654000Y-78636000D01*
X57534000Y-80876000D02*
X57534000Y-78636000D01*
X57414000Y-80876000D02*
X57414000Y-78636000D01*
X54014000Y-80876000D02*
X58254000Y-80876000D01*
X54014000Y-78636000D02*
X54014000Y-80876000D01*
X53364000Y-79756000D02*
X54014000Y-79756000D01*
X64410000Y-62389936D02*
X64410000Y-63594064D01*
X62590000Y-62389936D02*
X62590000Y-63594064D01*
X59124436Y-84180000D02*
X60328564Y-84180000D01*
X59124436Y-86000000D02*
X60328564Y-86000000D01*
X93162000Y-61470000D02*
X93162000Y-63630000D01*
X93162000Y-61470000D02*
X94092000Y-61470000D01*
X96322000Y-61470000D02*
X96322000Y-62930000D01*
X96322000Y-61470000D02*
X95392000Y-61470000D01*
X103018000Y-56039936D02*
X103018000Y-57244064D01*
X101198000Y-56039936D02*
X101198000Y-57244064D01*
X104550000Y-62104000D02*
X104550000Y-65404000D01*
X104550000Y-62104000D02*
X109950000Y-62104000D01*
X104550000Y-65404000D02*
X109950000Y-65404000D01*
X93618000Y-59726000D02*
X93618000Y-53716000D01*
X100438000Y-57476000D02*
X100438000Y-53716000D01*
X93618000Y-53716000D02*
X94878000Y-53716000D01*
X100438000Y-53716000D02*
X99178000Y-53716000D01*
X118759600Y-66669000D02*
X118759600Y-68089000D01*
X112999600Y-66669000D02*
X118759600Y-66669000D01*
X111479600Y-66669000D02*
X111169600Y-66669000D01*
X111169600Y-66669000D02*
X111169600Y-79539000D01*
X118759600Y-68089000D02*
X118259600Y-68089000D01*
X118259600Y-68089000D02*
X118259600Y-78119000D01*
X118759600Y-78119000D02*
X118759600Y-79539000D01*
X118259600Y-78119000D02*
X118759600Y-78119000D01*
X118759600Y-79539000D02*
X112999600Y-79539000D01*
X111169600Y-79539000D02*
X111479600Y-79539000D01*
X74930000Y-84054000D02*
X71480000Y-84054000D01*
X74930000Y-84054000D02*
X76880000Y-84054000D01*
X74930000Y-89174000D02*
X72980000Y-89174000D01*
X74930000Y-89174000D02*
X76880000Y-89174000D01*
X95398000Y-78645936D02*
X95398000Y-79850064D01*
X93578000Y-78645936D02*
X93578000Y-79850064D01*
X101452000Y-74262064D02*
X101452000Y-73057936D01*
X103272000Y-74262064D02*
X103272000Y-73057936D01*
X96425936Y-82656000D02*
X97630064Y-82656000D01*
X96425936Y-84476000D02*
X97630064Y-84476000D01*
X113136000Y-62578064D02*
X113136000Y-61373936D01*
X114956000Y-62578064D02*
X114956000Y-61373936D01*
X99822000Y-81808000D02*
X103272000Y-81808000D01*
X99822000Y-81808000D02*
X97872000Y-81808000D01*
X99822000Y-76688000D02*
X101772000Y-76688000D01*
X99822000Y-76688000D02*
X97872000Y-76688000D01*
X92858000Y-72549936D02*
X92858000Y-73754064D01*
X91038000Y-72549936D02*
X91038000Y-73754064D01*
X75078000Y-65691936D02*
X75078000Y-66896064D01*
X73258000Y-65691936D02*
X73258000Y-66896064D01*
X79138000Y-62424000D02*
X79138000Y-70164000D01*
X79138000Y-70164000D02*
X84438000Y-70164000D01*
X80788000Y-62424000D02*
X79138000Y-62424000D01*
X84438000Y-62424000D02*
X82788000Y-62424000D01*
X84438000Y-70164000D02*
X84438000Y-62424000D01*
X80788000Y-62424000D02*
G75*
G03*
X82788000Y-62424000I1000000J0D01*
G01*
X101861252Y-84022000D02*
X101338748Y-84022000D01*
X101861252Y-82602000D02*
X101338748Y-82602000D01*
X104446000Y-80525252D02*
X104446000Y-80002748D01*
X105866000Y-80525252D02*
X105866000Y-80002748D01*
X117800000Y-60116000D02*
X115880000Y-60116000D01*
X115880000Y-60116000D02*
X115880000Y-62976000D01*
X117800000Y-62976000D02*
X117800000Y-60116000D01*
X103778000Y-59726000D02*
X103778000Y-53716000D01*
X110598000Y-57476000D02*
X110598000Y-53716000D01*
X103778000Y-53716000D02*
X105038000Y-53716000D01*
X110598000Y-53716000D02*
X109338000Y-53716000D01*
X90685252Y-63956000D02*
X90162748Y-63956000D01*
X90685252Y-62536000D02*
X90162748Y-62536000D01*
X93162000Y-66042000D02*
X93162000Y-68202000D01*
X93162000Y-66042000D02*
X94092000Y-66042000D01*
X96322000Y-66042000D02*
X96322000Y-67502000D01*
X96322000Y-66042000D02*
X95392000Y-66042000D01*
X91440000Y-61722000D02*
X69596000Y-61722000D01*
X91440000Y-52578000D02*
X91440000Y-61722000D01*
X69596000Y-61722000D02*
X69596000Y-52578000D01*
X69596000Y-52578000D02*
X91440000Y-52578000D01*
X98305252Y-75894000D02*
X97782748Y-75894000D01*
X98305252Y-74474000D02*
X97782748Y-74474000D01*
X59087936Y-86974000D02*
X60292064Y-86974000D01*
X59087936Y-88794000D02*
X60292064Y-88794000D01*
D15*
X113295187Y-85236228D02*
X113314628Y-85241932D01*
X113316615Y-85244425D01*
X113312139Y-85258929D01*
X113298470Y-85292201D01*
X113277406Y-85340113D01*
X113250746Y-85398535D01*
X113232253Y-85438100D01*
X113145875Y-85621300D01*
X113090537Y-85621300D01*
X113057073Y-85620214D01*
X113037395Y-85617478D01*
X113035200Y-85616004D01*
X113040272Y-85603289D01*
X113054303Y-85571509D01*
X113075508Y-85524617D01*
X113102105Y-85466564D01*
X113122548Y-85422329D01*
X113209896Y-85233950D01*
X113262248Y-85233950D01*
X113295187Y-85236228D01*
G36*
X113295187Y-85236228D02*
G01*
X113314628Y-85241932D01*
X113316615Y-85244425D01*
X113312139Y-85258929D01*
X113298470Y-85292201D01*
X113277406Y-85340113D01*
X113250746Y-85398535D01*
X113232253Y-85438100D01*
X113145875Y-85621300D01*
X113090537Y-85621300D01*
X113057073Y-85620214D01*
X113037395Y-85617478D01*
X113035200Y-85616004D01*
X113040272Y-85603289D01*
X113054303Y-85571509D01*
X113075508Y-85524617D01*
X113102105Y-85466564D01*
X113122548Y-85422329D01*
X113209896Y-85233950D01*
X113262248Y-85233950D01*
X113295187Y-85236228D01*
G37*
X112216418Y-85326025D02*
X112229546Y-85385572D01*
X112243575Y-85446810D01*
X112255384Y-85496133D01*
X112268678Y-85552998D01*
X112273623Y-85589594D01*
X112268799Y-85610087D01*
X112252788Y-85618644D01*
X112224172Y-85619431D01*
X112213619Y-85618820D01*
X112176836Y-85614931D01*
X112157373Y-85606053D01*
X112147152Y-85586994D01*
X112143406Y-85573675D01*
X112132773Y-85532400D01*
X111863528Y-85532400D01*
X111814327Y-85576850D01*
X111777369Y-85605702D01*
X111743948Y-85618818D01*
X111713305Y-85621300D01*
X111682259Y-85618799D01*
X111666297Y-85612526D01*
X111665716Y-85609621D01*
X111676130Y-85598194D01*
X111702933Y-85572698D01*
X111743315Y-85535694D01*
X111794466Y-85489745D01*
X111833649Y-85455054D01*
X111949350Y-85455054D01*
X112121674Y-85456200D01*
X112113166Y-85389525D01*
X112107966Y-85351650D01*
X112103752Y-85326035D01*
X112102117Y-85319646D01*
X112092346Y-85326092D01*
X112068610Y-85346054D01*
X112035459Y-85375661D01*
X112024462Y-85385748D01*
X111949350Y-85455054D01*
X111833649Y-85455054D01*
X111853576Y-85437412D01*
X111881669Y-85412771D01*
X111951239Y-85352170D01*
X112004782Y-85306406D01*
X112045228Y-85273415D01*
X112075510Y-85251129D01*
X112098558Y-85237482D01*
X112117302Y-85230407D01*
X112134675Y-85227840D01*
X112144328Y-85227600D01*
X112195267Y-85227600D01*
X112216418Y-85326025D01*
G36*
X112216418Y-85326025D02*
G01*
X112229546Y-85385572D01*
X112243575Y-85446810D01*
X112255384Y-85496133D01*
X112268678Y-85552998D01*
X112273623Y-85589594D01*
X112268799Y-85610087D01*
X112252788Y-85618644D01*
X112224172Y-85619431D01*
X112213619Y-85618820D01*
X112176836Y-85614931D01*
X112157373Y-85606053D01*
X112147152Y-85586994D01*
X112143406Y-85573675D01*
X112132773Y-85532400D01*
X111863528Y-85532400D01*
X111814327Y-85576850D01*
X111777369Y-85605702D01*
X111743948Y-85618818D01*
X111713305Y-85621300D01*
X111682259Y-85618799D01*
X111666297Y-85612526D01*
X111665716Y-85609621D01*
X111676130Y-85598194D01*
X111702933Y-85572698D01*
X111743315Y-85535694D01*
X111794466Y-85489745D01*
X111833649Y-85455054D01*
X111949350Y-85455054D01*
X112121674Y-85456200D01*
X112113166Y-85389525D01*
X112107966Y-85351650D01*
X112103752Y-85326035D01*
X112102117Y-85319646D01*
X112092346Y-85326092D01*
X112068610Y-85346054D01*
X112035459Y-85375661D01*
X112024462Y-85385748D01*
X111949350Y-85455054D01*
X111833649Y-85455054D01*
X111853576Y-85437412D01*
X111881669Y-85412771D01*
X111951239Y-85352170D01*
X112004782Y-85306406D01*
X112045228Y-85273415D01*
X112075510Y-85251129D01*
X112098558Y-85237482D01*
X112117302Y-85230407D01*
X112134675Y-85227840D01*
X112144328Y-85227600D01*
X112195267Y-85227600D01*
X112216418Y-85326025D01*
G37*
X111520315Y-85228394D02*
X111586066Y-85230613D01*
X111637249Y-85234012D01*
X111669521Y-85238345D01*
X111677134Y-85240746D01*
X111696400Y-85259596D01*
X111699486Y-85289101D01*
X111686206Y-85332517D01*
X111669851Y-85367493D01*
X111634918Y-85422631D01*
X111593967Y-85457035D01*
X111540827Y-85475371D01*
X111523421Y-85478194D01*
X111471175Y-85485202D01*
X111538378Y-85553251D01*
X111605582Y-85621300D01*
X111441015Y-85621300D01*
X111386461Y-85551450D01*
X111356031Y-85514208D01*
X111333400Y-85493186D01*
X111311745Y-85483835D01*
X111284244Y-85481606D01*
X111281694Y-85481600D01*
X111253236Y-85482909D01*
X111234857Y-85490527D01*
X111220134Y-85509983D01*
X111202644Y-85546809D01*
X111200588Y-85551450D01*
X111169697Y-85621300D01*
X111110790Y-85621300D01*
X111077135Y-85619205D01*
X111057972Y-85613882D01*
X111056116Y-85610292D01*
X111062739Y-85595593D01*
X111078311Y-85562068D01*
X111100903Y-85513842D01*
X111128585Y-85455039D01*
X111148231Y-85413442D01*
X111152033Y-85405400D01*
X111270444Y-85405400D01*
X111381297Y-85405226D01*
X111435418Y-85404273D01*
X111482674Y-85401885D01*
X111515114Y-85398517D01*
X111521233Y-85397262D01*
X111543561Y-85383623D01*
X111564565Y-85359622D01*
X111578623Y-85333660D01*
X111580116Y-85314138D01*
X111578426Y-85311760D01*
X111563063Y-85308351D01*
X111528237Y-85305671D01*
X111479884Y-85304081D01*
X111447138Y-85303800D01*
X111387424Y-85304347D01*
X111347575Y-85307510D01*
X111322058Y-85315568D01*
X111305341Y-85330802D01*
X111291892Y-85355491D01*
X111285354Y-85370475D01*
X111270444Y-85405400D01*
X111152033Y-85405400D01*
X111236113Y-85227600D01*
X111444341Y-85227600D01*
X111520315Y-85228394D01*
G36*
X111520315Y-85228394D02*
G01*
X111586066Y-85230613D01*
X111637249Y-85234012D01*
X111669521Y-85238345D01*
X111677134Y-85240746D01*
X111696400Y-85259596D01*
X111699486Y-85289101D01*
X111686206Y-85332517D01*
X111669851Y-85367493D01*
X111634918Y-85422631D01*
X111593967Y-85457035D01*
X111540827Y-85475371D01*
X111523421Y-85478194D01*
X111471175Y-85485202D01*
X111538378Y-85553251D01*
X111605582Y-85621300D01*
X111441015Y-85621300D01*
X111386461Y-85551450D01*
X111356031Y-85514208D01*
X111333400Y-85493186D01*
X111311745Y-85483835D01*
X111284244Y-85481606D01*
X111281694Y-85481600D01*
X111253236Y-85482909D01*
X111234857Y-85490527D01*
X111220134Y-85509983D01*
X111202644Y-85546809D01*
X111200588Y-85551450D01*
X111169697Y-85621300D01*
X111110790Y-85621300D01*
X111077135Y-85619205D01*
X111057972Y-85613882D01*
X111056116Y-85610292D01*
X111062739Y-85595593D01*
X111078311Y-85562068D01*
X111100903Y-85513842D01*
X111128585Y-85455039D01*
X111148231Y-85413442D01*
X111152033Y-85405400D01*
X111270444Y-85405400D01*
X111381297Y-85405226D01*
X111435418Y-85404273D01*
X111482674Y-85401885D01*
X111515114Y-85398517D01*
X111521233Y-85397262D01*
X111543561Y-85383623D01*
X111564565Y-85359622D01*
X111578623Y-85333660D01*
X111580116Y-85314138D01*
X111578426Y-85311760D01*
X111563063Y-85308351D01*
X111528237Y-85305671D01*
X111479884Y-85304081D01*
X111447138Y-85303800D01*
X111387424Y-85304347D01*
X111347575Y-85307510D01*
X111322058Y-85315568D01*
X111305341Y-85330802D01*
X111291892Y-85355491D01*
X111285354Y-85370475D01*
X111270444Y-85405400D01*
X111152033Y-85405400D01*
X111236113Y-85227600D01*
X111444341Y-85227600D01*
X111520315Y-85228394D01*
G37*
X112931147Y-85230676D02*
X112976130Y-85235476D01*
X113004268Y-85244251D01*
X113018392Y-85257738D01*
X113021331Y-85276673D01*
X113018574Y-85292298D01*
X112998643Y-85338512D01*
X112964500Y-85365568D01*
X112923629Y-85376164D01*
X112887557Y-85379358D01*
X112872682Y-85373999D01*
X112875384Y-85356940D01*
X112883246Y-85341065D01*
X112887730Y-85330289D01*
X112884715Y-85323234D01*
X112870210Y-85319115D01*
X112840225Y-85317145D01*
X112790768Y-85316538D01*
X112758541Y-85316500D01*
X112620690Y-85316500D01*
X112577120Y-85414156D01*
X112556660Y-85460103D01*
X112540239Y-85497149D01*
X112530568Y-85519169D01*
X112529316Y-85522106D01*
X112539335Y-85526307D01*
X112569737Y-85529681D01*
X112615507Y-85531830D01*
X112659165Y-85532400D01*
X112793247Y-85532400D01*
X112813385Y-85493458D01*
X112830013Y-85467424D01*
X112848972Y-85459717D01*
X112874036Y-85463201D01*
X112910160Y-85472485D01*
X112924657Y-85484372D01*
X112920925Y-85505827D01*
X112907980Y-85532829D01*
X112889755Y-85563906D01*
X112868712Y-85586807D01*
X112840860Y-85602747D01*
X112802209Y-85612944D01*
X112748767Y-85618612D01*
X112676544Y-85620968D01*
X112617637Y-85621300D01*
X112540793Y-85620832D01*
X112485467Y-85619189D01*
X112447788Y-85616010D01*
X112423886Y-85610933D01*
X112409893Y-85603597D01*
X112407846Y-85601732D01*
X112397332Y-85587750D01*
X112395999Y-85570469D01*
X112404339Y-85542066D01*
X112413011Y-85519416D01*
X112440641Y-85454390D01*
X112471376Y-85390274D01*
X112502184Y-85332719D01*
X112530035Y-85287376D01*
X112551897Y-85259897D01*
X112552493Y-85259350D01*
X112565615Y-85249571D01*
X112582796Y-85242485D01*
X112608283Y-85237543D01*
X112646322Y-85234198D01*
X112701158Y-85231900D01*
X112777037Y-85230101D01*
X112779319Y-85230056D01*
X112866487Y-85229115D01*
X112931147Y-85230676D01*
G36*
X112931147Y-85230676D02*
G01*
X112976130Y-85235476D01*
X113004268Y-85244251D01*
X113018392Y-85257738D01*
X113021331Y-85276673D01*
X113018574Y-85292298D01*
X112998643Y-85338512D01*
X112964500Y-85365568D01*
X112923629Y-85376164D01*
X112887557Y-85379358D01*
X112872682Y-85373999D01*
X112875384Y-85356940D01*
X112883246Y-85341065D01*
X112887730Y-85330289D01*
X112884715Y-85323234D01*
X112870210Y-85319115D01*
X112840225Y-85317145D01*
X112790768Y-85316538D01*
X112758541Y-85316500D01*
X112620690Y-85316500D01*
X112577120Y-85414156D01*
X112556660Y-85460103D01*
X112540239Y-85497149D01*
X112530568Y-85519169D01*
X112529316Y-85522106D01*
X112539335Y-85526307D01*
X112569737Y-85529681D01*
X112615507Y-85531830D01*
X112659165Y-85532400D01*
X112793247Y-85532400D01*
X112813385Y-85493458D01*
X112830013Y-85467424D01*
X112848972Y-85459717D01*
X112874036Y-85463201D01*
X112910160Y-85472485D01*
X112924657Y-85484372D01*
X112920925Y-85505827D01*
X112907980Y-85532829D01*
X112889755Y-85563906D01*
X112868712Y-85586807D01*
X112840860Y-85602747D01*
X112802209Y-85612944D01*
X112748767Y-85618612D01*
X112676544Y-85620968D01*
X112617637Y-85621300D01*
X112540793Y-85620832D01*
X112485467Y-85619189D01*
X112447788Y-85616010D01*
X112423886Y-85610933D01*
X112409893Y-85603597D01*
X112407846Y-85601732D01*
X112397332Y-85587750D01*
X112395999Y-85570469D01*
X112404339Y-85542066D01*
X112413011Y-85519416D01*
X112440641Y-85454390D01*
X112471376Y-85390274D01*
X112502184Y-85332719D01*
X112530035Y-85287376D01*
X112551897Y-85259897D01*
X112552493Y-85259350D01*
X112565615Y-85249571D01*
X112582796Y-85242485D01*
X112608283Y-85237543D01*
X112646322Y-85234198D01*
X112701158Y-85231900D01*
X112777037Y-85230101D01*
X112779319Y-85230056D01*
X112866487Y-85229115D01*
X112931147Y-85230676D01*
G37*
X114023691Y-85230057D02*
X114041615Y-85236078D01*
X114042485Y-85237125D01*
X114039187Y-85251264D01*
X114026532Y-85284183D01*
X114006237Y-85331803D01*
X113980018Y-85390043D01*
X113961018Y-85430800D01*
X113928134Y-85499885D01*
X113903578Y-85549282D01*
X113885081Y-85582385D01*
X113870374Y-85602590D01*
X113857188Y-85613292D01*
X113843255Y-85617886D01*
X113835303Y-85618954D01*
X113817776Y-85618744D01*
X113799737Y-85612459D01*
X113777538Y-85597345D01*
X113747531Y-85570649D01*
X113706069Y-85529618D01*
X113675468Y-85498304D01*
X113631160Y-85454014D01*
X113593153Y-85418530D01*
X113564793Y-85394786D01*
X113549427Y-85385718D01*
X113547824Y-85386350D01*
X113539633Y-85402731D01*
X113523112Y-85436149D01*
X113501107Y-85480832D01*
X113488250Y-85507000D01*
X113463160Y-85557224D01*
X113444998Y-85589023D01*
X113429686Y-85606864D01*
X113413147Y-85615214D01*
X113391305Y-85618538D01*
X113386031Y-85618986D01*
X113354612Y-85620350D01*
X113342329Y-85614750D01*
X113343097Y-85598235D01*
X113344584Y-85592062D01*
X113352825Y-85569691D01*
X113370078Y-85529664D01*
X113394056Y-85477076D01*
X113422473Y-85417019D01*
X113431902Y-85397525D01*
X113463539Y-85333115D01*
X113486911Y-85288103D01*
X113504569Y-85258902D01*
X113519065Y-85241930D01*
X113532951Y-85233601D01*
X113548777Y-85230330D01*
X113551086Y-85230092D01*
X113569060Y-85230200D01*
X113586779Y-85236234D01*
X113607996Y-85251108D01*
X113636463Y-85277740D01*
X113675933Y-85319042D01*
X113702310Y-85347567D01*
X113744859Y-85392949D01*
X113781711Y-85430608D01*
X113809301Y-85457015D01*
X113824060Y-85468645D01*
X113825014Y-85468900D01*
X113834615Y-85458094D01*
X113851834Y-85428892D01*
X113873990Y-85386115D01*
X113892129Y-85348250D01*
X113917420Y-85294454D01*
X113935563Y-85259628D01*
X113949992Y-85239649D01*
X113964137Y-85230394D01*
X113981431Y-85227739D01*
X113992563Y-85227600D01*
X114023691Y-85230057D01*
G36*
X114023691Y-85230057D02*
G01*
X114041615Y-85236078D01*
X114042485Y-85237125D01*
X114039187Y-85251264D01*
X114026532Y-85284183D01*
X114006237Y-85331803D01*
X113980018Y-85390043D01*
X113961018Y-85430800D01*
X113928134Y-85499885D01*
X113903578Y-85549282D01*
X113885081Y-85582385D01*
X113870374Y-85602590D01*
X113857188Y-85613292D01*
X113843255Y-85617886D01*
X113835303Y-85618954D01*
X113817776Y-85618744D01*
X113799737Y-85612459D01*
X113777538Y-85597345D01*
X113747531Y-85570649D01*
X113706069Y-85529618D01*
X113675468Y-85498304D01*
X113631160Y-85454014D01*
X113593153Y-85418530D01*
X113564793Y-85394786D01*
X113549427Y-85385718D01*
X113547824Y-85386350D01*
X113539633Y-85402731D01*
X113523112Y-85436149D01*
X113501107Y-85480832D01*
X113488250Y-85507000D01*
X113463160Y-85557224D01*
X113444998Y-85589023D01*
X113429686Y-85606864D01*
X113413147Y-85615214D01*
X113391305Y-85618538D01*
X113386031Y-85618986D01*
X113354612Y-85620350D01*
X113342329Y-85614750D01*
X113343097Y-85598235D01*
X113344584Y-85592062D01*
X113352825Y-85569691D01*
X113370078Y-85529664D01*
X113394056Y-85477076D01*
X113422473Y-85417019D01*
X113431902Y-85397525D01*
X113463539Y-85333115D01*
X113486911Y-85288103D01*
X113504569Y-85258902D01*
X113519065Y-85241930D01*
X113532951Y-85233601D01*
X113548777Y-85230330D01*
X113551086Y-85230092D01*
X113569060Y-85230200D01*
X113586779Y-85236234D01*
X113607996Y-85251108D01*
X113636463Y-85277740D01*
X113675933Y-85319042D01*
X113702310Y-85347567D01*
X113744859Y-85392949D01*
X113781711Y-85430608D01*
X113809301Y-85457015D01*
X113824060Y-85468645D01*
X113825014Y-85468900D01*
X113834615Y-85458094D01*
X113851834Y-85428892D01*
X113873990Y-85386115D01*
X113892129Y-85348250D01*
X113917420Y-85294454D01*
X113935563Y-85259628D01*
X113949992Y-85239649D01*
X113964137Y-85230394D01*
X113981431Y-85227739D01*
X113992563Y-85227600D01*
X114023691Y-85230057D01*
G37*
X114656427Y-85229578D02*
X114684796Y-85232633D01*
X114703865Y-85237771D01*
X114717656Y-85245308D01*
X114722677Y-85249132D01*
X114742179Y-85268883D01*
X114743319Y-85288808D01*
X114735991Y-85307291D01*
X114715588Y-85334378D01*
X114685200Y-85341900D01*
X114651343Y-85344638D01*
X114630088Y-85349608D01*
X114613109Y-85348429D01*
X114610000Y-85336908D01*
X114606929Y-85328181D01*
X114595030Y-85322317D01*
X114570273Y-85318777D01*
X114528628Y-85317019D01*
X114466064Y-85316504D01*
X114457741Y-85316500D01*
X114305483Y-85316500D01*
X114254541Y-85417818D01*
X114231907Y-85463530D01*
X114214439Y-85500132D01*
X114204738Y-85522111D01*
X114203600Y-85525768D01*
X114215492Y-85528295D01*
X114247944Y-85530379D01*
X114296114Y-85531814D01*
X114355164Y-85532396D01*
X114360311Y-85532400D01*
X114425692Y-85532227D01*
X114470240Y-85531144D01*
X114498521Y-85528303D01*
X114515103Y-85522859D01*
X114524552Y-85513963D01*
X114531435Y-85500768D01*
X114531489Y-85500650D01*
X114545955Y-85468900D01*
X114463677Y-85468900D01*
X114421710Y-85468090D01*
X114392065Y-85465971D01*
X114381400Y-85463147D01*
X114386105Y-85448616D01*
X114396138Y-85425047D01*
X114403404Y-85411095D01*
X114413239Y-85401872D01*
X114430450Y-85396399D01*
X114459843Y-85393698D01*
X114506225Y-85392791D01*
X114555048Y-85392700D01*
X114699219Y-85392700D01*
X114656010Y-85478425D01*
X114632539Y-85524471D01*
X114612303Y-85558793D01*
X114591189Y-85583161D01*
X114565084Y-85599341D01*
X114529875Y-85609104D01*
X114481446Y-85614218D01*
X114415685Y-85616450D01*
X114332477Y-85617525D01*
X114258808Y-85617991D01*
X114193483Y-85617685D01*
X114140938Y-85616686D01*
X114105612Y-85615072D01*
X114092475Y-85613292D01*
X114079714Y-85599471D01*
X114078645Y-85572352D01*
X114089777Y-85529726D01*
X114113619Y-85469387D01*
X114138133Y-85415449D01*
X114167083Y-85354146D01*
X114190978Y-85308479D01*
X114214130Y-85276073D01*
X114240849Y-85254555D01*
X114275447Y-85241550D01*
X114322233Y-85234684D01*
X114385519Y-85231583D01*
X114469616Y-85229874D01*
X114475302Y-85229766D01*
X114555701Y-85228459D01*
X114614735Y-85228292D01*
X114656427Y-85229578D01*
G36*
X114656427Y-85229578D02*
G01*
X114684796Y-85232633D01*
X114703865Y-85237771D01*
X114717656Y-85245308D01*
X114722677Y-85249132D01*
X114742179Y-85268883D01*
X114743319Y-85288808D01*
X114735991Y-85307291D01*
X114715588Y-85334378D01*
X114685200Y-85341900D01*
X114651343Y-85344638D01*
X114630088Y-85349608D01*
X114613109Y-85348429D01*
X114610000Y-85336908D01*
X114606929Y-85328181D01*
X114595030Y-85322317D01*
X114570273Y-85318777D01*
X114528628Y-85317019D01*
X114466064Y-85316504D01*
X114457741Y-85316500D01*
X114305483Y-85316500D01*
X114254541Y-85417818D01*
X114231907Y-85463530D01*
X114214439Y-85500132D01*
X114204738Y-85522111D01*
X114203600Y-85525768D01*
X114215492Y-85528295D01*
X114247944Y-85530379D01*
X114296114Y-85531814D01*
X114355164Y-85532396D01*
X114360311Y-85532400D01*
X114425692Y-85532227D01*
X114470240Y-85531144D01*
X114498521Y-85528303D01*
X114515103Y-85522859D01*
X114524552Y-85513963D01*
X114531435Y-85500768D01*
X114531489Y-85500650D01*
X114545955Y-85468900D01*
X114463677Y-85468900D01*
X114421710Y-85468090D01*
X114392065Y-85465971D01*
X114381400Y-85463147D01*
X114386105Y-85448616D01*
X114396138Y-85425047D01*
X114403404Y-85411095D01*
X114413239Y-85401872D01*
X114430450Y-85396399D01*
X114459843Y-85393698D01*
X114506225Y-85392791D01*
X114555048Y-85392700D01*
X114699219Y-85392700D01*
X114656010Y-85478425D01*
X114632539Y-85524471D01*
X114612303Y-85558793D01*
X114591189Y-85583161D01*
X114565084Y-85599341D01*
X114529875Y-85609104D01*
X114481446Y-85614218D01*
X114415685Y-85616450D01*
X114332477Y-85617525D01*
X114258808Y-85617991D01*
X114193483Y-85617685D01*
X114140938Y-85616686D01*
X114105612Y-85615072D01*
X114092475Y-85613292D01*
X114079714Y-85599471D01*
X114078645Y-85572352D01*
X114089777Y-85529726D01*
X114113619Y-85469387D01*
X114138133Y-85415449D01*
X114167083Y-85354146D01*
X114190978Y-85308479D01*
X114214130Y-85276073D01*
X114240849Y-85254555D01*
X114275447Y-85241550D01*
X114322233Y-85234684D01*
X114385519Y-85231583D01*
X114469616Y-85229874D01*
X114475302Y-85229766D01*
X114555701Y-85228459D01*
X114614735Y-85228292D01*
X114656427Y-85229578D01*
G37*
X113974756Y-82554978D02*
X114036913Y-82557347D01*
X114084143Y-82561887D01*
X114121667Y-82569064D01*
X114148708Y-82577191D01*
X114235702Y-82617893D01*
X114302876Y-82671434D01*
X114349054Y-82735979D01*
X114373059Y-82809692D01*
X114373715Y-82890738D01*
X114368341Y-82919935D01*
X114361061Y-82940045D01*
X114344104Y-82980645D01*
X114318399Y-83039730D01*
X114284874Y-83115294D01*
X114244459Y-83205331D01*
X114198082Y-83307837D01*
X114146673Y-83420804D01*
X114091159Y-83542227D01*
X114032472Y-83670101D01*
X113971538Y-83802420D01*
X113909287Y-83937178D01*
X113846649Y-84072369D01*
X113784552Y-84205989D01*
X113723925Y-84336030D01*
X113665696Y-84460488D01*
X113610796Y-84577356D01*
X113560152Y-84684629D01*
X113514695Y-84780302D01*
X113475352Y-84862368D01*
X113443052Y-84928822D01*
X113418726Y-84977658D01*
X113403301Y-85006870D01*
X113398155Y-85014680D01*
X113381005Y-85018151D01*
X113344428Y-85020821D01*
X113293669Y-85022686D01*
X113233975Y-85023744D01*
X113170591Y-85023994D01*
X113108765Y-85023431D01*
X113053743Y-85022055D01*
X113010770Y-85019862D01*
X112985094Y-85016850D01*
X112980263Y-85014875D01*
X112984685Y-85002220D01*
X112999143Y-84968219D01*
X113022883Y-84914518D01*
X113055153Y-84842764D01*
X113095198Y-84754606D01*
X113142265Y-84651690D01*
X113195600Y-84535665D01*
X113254451Y-84408177D01*
X113318065Y-84270874D01*
X113385686Y-84125403D01*
X113455052Y-83976650D01*
X113935475Y-82947950D01*
X113820312Y-82944277D01*
X113724053Y-82946435D01*
X113647525Y-82960335D01*
X113587497Y-82986859D01*
X113548425Y-83018540D01*
X113535445Y-83038116D01*
X113512227Y-83080496D01*
X113478947Y-83145319D01*
X113435781Y-83232221D01*
X113382905Y-83340840D01*
X113320496Y-83470813D01*
X113248729Y-83621779D01*
X113167781Y-83793375D01*
X113077827Y-83985238D01*
X113053463Y-84037375D01*
X112595476Y-85018050D01*
X112383538Y-85021532D01*
X112297306Y-85022329D01*
X112234796Y-85021426D01*
X112194381Y-85018740D01*
X112174435Y-85014190D01*
X112171600Y-85010811D01*
X112176901Y-84996178D01*
X112192186Y-84960589D01*
X112216524Y-84906026D01*
X112248984Y-84834470D01*
X112288637Y-84747901D01*
X112334553Y-84648302D01*
X112385800Y-84537652D01*
X112441450Y-84417933D01*
X112500571Y-84291125D01*
X112562234Y-84159210D01*
X112625508Y-84024168D01*
X112689464Y-83887981D01*
X112753170Y-83752629D01*
X112815697Y-83620093D01*
X112876115Y-83492355D01*
X112933493Y-83371395D01*
X112986901Y-83259193D01*
X113035409Y-83157732D01*
X113078087Y-83068992D01*
X113114005Y-82994954D01*
X113142232Y-82937598D01*
X113161838Y-82898907D01*
X113171499Y-82881440D01*
X113247208Y-82789008D01*
X113344347Y-82708453D01*
X113461366Y-82640835D01*
X113596714Y-82587213D01*
X113606700Y-82584054D01*
X113648854Y-82571983D01*
X113688677Y-82563636D01*
X113732450Y-82558360D01*
X113786451Y-82555500D01*
X113856960Y-82554404D01*
X113892450Y-82554312D01*
X113974756Y-82554978D01*
G36*
X113974756Y-82554978D02*
G01*
X114036913Y-82557347D01*
X114084143Y-82561887D01*
X114121667Y-82569064D01*
X114148708Y-82577191D01*
X114235702Y-82617893D01*
X114302876Y-82671434D01*
X114349054Y-82735979D01*
X114373059Y-82809692D01*
X114373715Y-82890738D01*
X114368341Y-82919935D01*
X114361061Y-82940045D01*
X114344104Y-82980645D01*
X114318399Y-83039730D01*
X114284874Y-83115294D01*
X114244459Y-83205331D01*
X114198082Y-83307837D01*
X114146673Y-83420804D01*
X114091159Y-83542227D01*
X114032472Y-83670101D01*
X113971538Y-83802420D01*
X113909287Y-83937178D01*
X113846649Y-84072369D01*
X113784552Y-84205989D01*
X113723925Y-84336030D01*
X113665696Y-84460488D01*
X113610796Y-84577356D01*
X113560152Y-84684629D01*
X113514695Y-84780302D01*
X113475352Y-84862368D01*
X113443052Y-84928822D01*
X113418726Y-84977658D01*
X113403301Y-85006870D01*
X113398155Y-85014680D01*
X113381005Y-85018151D01*
X113344428Y-85020821D01*
X113293669Y-85022686D01*
X113233975Y-85023744D01*
X113170591Y-85023994D01*
X113108765Y-85023431D01*
X113053743Y-85022055D01*
X113010770Y-85019862D01*
X112985094Y-85016850D01*
X112980263Y-85014875D01*
X112984685Y-85002220D01*
X112999143Y-84968219D01*
X113022883Y-84914518D01*
X113055153Y-84842764D01*
X113095198Y-84754606D01*
X113142265Y-84651690D01*
X113195600Y-84535665D01*
X113254451Y-84408177D01*
X113318065Y-84270874D01*
X113385686Y-84125403D01*
X113455052Y-83976650D01*
X113935475Y-82947950D01*
X113820312Y-82944277D01*
X113724053Y-82946435D01*
X113647525Y-82960335D01*
X113587497Y-82986859D01*
X113548425Y-83018540D01*
X113535445Y-83038116D01*
X113512227Y-83080496D01*
X113478947Y-83145319D01*
X113435781Y-83232221D01*
X113382905Y-83340840D01*
X113320496Y-83470813D01*
X113248729Y-83621779D01*
X113167781Y-83793375D01*
X113077827Y-83985238D01*
X113053463Y-84037375D01*
X112595476Y-85018050D01*
X112383538Y-85021532D01*
X112297306Y-85022329D01*
X112234796Y-85021426D01*
X112194381Y-85018740D01*
X112174435Y-85014190D01*
X112171600Y-85010811D01*
X112176901Y-84996178D01*
X112192186Y-84960589D01*
X112216524Y-84906026D01*
X112248984Y-84834470D01*
X112288637Y-84747901D01*
X112334553Y-84648302D01*
X112385800Y-84537652D01*
X112441450Y-84417933D01*
X112500571Y-84291125D01*
X112562234Y-84159210D01*
X112625508Y-84024168D01*
X112689464Y-83887981D01*
X112753170Y-83752629D01*
X112815697Y-83620093D01*
X112876115Y-83492355D01*
X112933493Y-83371395D01*
X112986901Y-83259193D01*
X113035409Y-83157732D01*
X113078087Y-83068992D01*
X113114005Y-82994954D01*
X113142232Y-82937598D01*
X113161838Y-82898907D01*
X113171499Y-82881440D01*
X113247208Y-82789008D01*
X113344347Y-82708453D01*
X113461366Y-82640835D01*
X113596714Y-82587213D01*
X113606700Y-82584054D01*
X113648854Y-82571983D01*
X113688677Y-82563636D01*
X113732450Y-82558360D01*
X113786451Y-82555500D01*
X113856960Y-82554404D01*
X113892450Y-82554312D01*
X113974756Y-82554978D01*
G37*
X115881168Y-82548386D02*
X115940786Y-82549730D01*
X115986357Y-82551763D01*
X116013680Y-82554314D01*
X116019700Y-82556324D01*
X116014329Y-82569370D01*
X115998318Y-82605080D01*
X115971822Y-82663123D01*
X115934992Y-82743169D01*
X115887983Y-82844888D01*
X115830947Y-82967952D01*
X115764037Y-83112029D01*
X115687407Y-83276790D01*
X115601210Y-83461904D01*
X115505599Y-83667043D01*
X115400728Y-83891877D01*
X115286749Y-84136074D01*
X115163816Y-84399307D01*
X115154696Y-84418830D01*
X115118949Y-84493226D01*
X115082465Y-84565437D01*
X115048176Y-84629915D01*
X115019017Y-84681111D01*
X115001615Y-84708404D01*
X114923554Y-84798202D01*
X114826414Y-84874369D01*
X114713164Y-84935886D01*
X114586773Y-84981734D01*
X114450210Y-85010892D01*
X114306444Y-85022341D01*
X114158445Y-85015061D01*
X114122342Y-85010372D01*
X114028250Y-84986894D01*
X113947902Y-84947236D01*
X113883723Y-84893725D01*
X113838139Y-84828689D01*
X113813573Y-84754454D01*
X113809900Y-84710589D01*
X113810315Y-84698633D01*
X113811902Y-84685223D01*
X113815167Y-84669224D01*
X113820619Y-84649500D01*
X113828765Y-84624915D01*
X113840114Y-84594334D01*
X113855173Y-84556621D01*
X113874451Y-84510641D01*
X113898456Y-84455258D01*
X113927695Y-84389336D01*
X113962677Y-84311740D01*
X114003909Y-84221333D01*
X114051900Y-84116981D01*
X114107158Y-83997548D01*
X114170191Y-83861899D01*
X114241506Y-83708896D01*
X114321612Y-83537406D01*
X114411017Y-83346292D01*
X114510228Y-83134419D01*
X114615443Y-82909850D01*
X114782078Y-82554250D01*
X114994489Y-82550767D01*
X115078427Y-82549915D01*
X115139316Y-82550594D01*
X115179467Y-82552932D01*
X115201190Y-82557052D01*
X115206900Y-82562248D01*
X115201643Y-82575744D01*
X115186387Y-82610565D01*
X115161904Y-82665035D01*
X115128964Y-82737476D01*
X115088339Y-82826212D01*
X115040800Y-82929563D01*
X114987119Y-83045854D01*
X114928067Y-83173406D01*
X114864415Y-83310543D01*
X114796935Y-83455586D01*
X114736401Y-83585425D01*
X114666122Y-83736061D01*
X114598861Y-83880301D01*
X114535401Y-84016456D01*
X114476529Y-84142843D01*
X114423028Y-84257772D01*
X114375683Y-84359560D01*
X114335278Y-84446518D01*
X114302598Y-84516961D01*
X114278427Y-84569203D01*
X114263549Y-84601556D01*
X114258793Y-84612170D01*
X114266156Y-84621760D01*
X114293230Y-84628053D01*
X114334544Y-84631068D01*
X114384625Y-84630828D01*
X114438003Y-84627352D01*
X114489205Y-84620662D01*
X114531592Y-84611128D01*
X114572500Y-84596144D01*
X114607667Y-84575556D01*
X114639677Y-84546141D01*
X114671116Y-84504673D01*
X114704568Y-84447931D01*
X114742618Y-84372691D01*
X114770886Y-84312669D01*
X114796280Y-84257895D01*
X114830719Y-84183789D01*
X114872489Y-84094027D01*
X114919878Y-83992288D01*
X114971172Y-83882247D01*
X115024658Y-83767582D01*
X115078625Y-83651969D01*
X115098996Y-83608350D01*
X115154291Y-83489947D01*
X115211122Y-83368209D01*
X115267528Y-83247340D01*
X115321548Y-83131544D01*
X115371222Y-83025024D01*
X115414589Y-82931983D01*
X115449687Y-82856625D01*
X115457424Y-82840000D01*
X115492953Y-82764119D01*
X115525490Y-82695529D01*
X115553329Y-82637749D01*
X115574769Y-82594300D01*
X115588105Y-82568701D01*
X115591137Y-82563775D01*
X115604564Y-82557287D01*
X115634625Y-82552637D01*
X115683721Y-82549650D01*
X115754251Y-82548154D01*
X115811705Y-82547900D01*
X115881168Y-82548386D01*
G36*
X115881168Y-82548386D02*
G01*
X115940786Y-82549730D01*
X115986357Y-82551763D01*
X116013680Y-82554314D01*
X116019700Y-82556324D01*
X116014329Y-82569370D01*
X115998318Y-82605080D01*
X115971822Y-82663123D01*
X115934992Y-82743169D01*
X115887983Y-82844888D01*
X115830947Y-82967952D01*
X115764037Y-83112029D01*
X115687407Y-83276790D01*
X115601210Y-83461904D01*
X115505599Y-83667043D01*
X115400728Y-83891877D01*
X115286749Y-84136074D01*
X115163816Y-84399307D01*
X115154696Y-84418830D01*
X115118949Y-84493226D01*
X115082465Y-84565437D01*
X115048176Y-84629915D01*
X115019017Y-84681111D01*
X115001615Y-84708404D01*
X114923554Y-84798202D01*
X114826414Y-84874369D01*
X114713164Y-84935886D01*
X114586773Y-84981734D01*
X114450210Y-85010892D01*
X114306444Y-85022341D01*
X114158445Y-85015061D01*
X114122342Y-85010372D01*
X114028250Y-84986894D01*
X113947902Y-84947236D01*
X113883723Y-84893725D01*
X113838139Y-84828689D01*
X113813573Y-84754454D01*
X113809900Y-84710589D01*
X113810315Y-84698633D01*
X113811902Y-84685223D01*
X113815167Y-84669224D01*
X113820619Y-84649500D01*
X113828765Y-84624915D01*
X113840114Y-84594334D01*
X113855173Y-84556621D01*
X113874451Y-84510641D01*
X113898456Y-84455258D01*
X113927695Y-84389336D01*
X113962677Y-84311740D01*
X114003909Y-84221333D01*
X114051900Y-84116981D01*
X114107158Y-83997548D01*
X114170191Y-83861899D01*
X114241506Y-83708896D01*
X114321612Y-83537406D01*
X114411017Y-83346292D01*
X114510228Y-83134419D01*
X114615443Y-82909850D01*
X114782078Y-82554250D01*
X114994489Y-82550767D01*
X115078427Y-82549915D01*
X115139316Y-82550594D01*
X115179467Y-82552932D01*
X115201190Y-82557052D01*
X115206900Y-82562248D01*
X115201643Y-82575744D01*
X115186387Y-82610565D01*
X115161904Y-82665035D01*
X115128964Y-82737476D01*
X115088339Y-82826212D01*
X115040800Y-82929563D01*
X114987119Y-83045854D01*
X114928067Y-83173406D01*
X114864415Y-83310543D01*
X114796935Y-83455586D01*
X114736401Y-83585425D01*
X114666122Y-83736061D01*
X114598861Y-83880301D01*
X114535401Y-84016456D01*
X114476529Y-84142843D01*
X114423028Y-84257772D01*
X114375683Y-84359560D01*
X114335278Y-84446518D01*
X114302598Y-84516961D01*
X114278427Y-84569203D01*
X114263549Y-84601556D01*
X114258793Y-84612170D01*
X114266156Y-84621760D01*
X114293230Y-84628053D01*
X114334544Y-84631068D01*
X114384625Y-84630828D01*
X114438003Y-84627352D01*
X114489205Y-84620662D01*
X114531592Y-84611128D01*
X114572500Y-84596144D01*
X114607667Y-84575556D01*
X114639677Y-84546141D01*
X114671116Y-84504673D01*
X114704568Y-84447931D01*
X114742618Y-84372691D01*
X114770886Y-84312669D01*
X114796280Y-84257895D01*
X114830719Y-84183789D01*
X114872489Y-84094027D01*
X114919878Y-83992288D01*
X114971172Y-83882247D01*
X115024658Y-83767582D01*
X115078625Y-83651969D01*
X115098996Y-83608350D01*
X115154291Y-83489947D01*
X115211122Y-83368209D01*
X115267528Y-83247340D01*
X115321548Y-83131544D01*
X115371222Y-83025024D01*
X115414589Y-82931983D01*
X115449687Y-82856625D01*
X115457424Y-82840000D01*
X115492953Y-82764119D01*
X115525490Y-82695529D01*
X115553329Y-82637749D01*
X115574769Y-82594300D01*
X115588105Y-82568701D01*
X115591137Y-82563775D01*
X115604564Y-82557287D01*
X115634625Y-82552637D01*
X115683721Y-82549650D01*
X115754251Y-82548154D01*
X115811705Y-82547900D01*
X115881168Y-82548386D01*
G37*
X111638238Y-81946329D02*
X111653408Y-81990532D01*
X111666574Y-82024983D01*
X111675055Y-82042708D01*
X111675442Y-82043185D01*
X111683911Y-82037002D01*
X111698698Y-82012034D01*
X111717005Y-81973205D01*
X111722333Y-81960635D01*
X111760525Y-81868450D01*
X111846202Y-81864676D01*
X111899555Y-81864679D01*
X111962528Y-81868310D01*
X112029793Y-81874821D01*
X112096019Y-81883464D01*
X112155878Y-81893493D01*
X112204040Y-81904159D01*
X112235175Y-81914716D01*
X112243225Y-81920351D01*
X112252678Y-81942984D01*
X112261685Y-81981160D01*
X112266392Y-82011838D01*
X112273916Y-82071921D01*
X112280915Y-82107965D01*
X112290086Y-82121128D01*
X112304130Y-82112567D01*
X112325744Y-82083439D01*
X112349439Y-82047425D01*
X112378025Y-82004729D01*
X112402148Y-81970694D01*
X112417989Y-81950630D01*
X112421174Y-81947691D01*
X112437402Y-81948465D01*
X112472731Y-81955733D01*
X112522129Y-81968071D01*
X112580563Y-81984057D01*
X112643000Y-82002266D01*
X112704407Y-82021275D01*
X112759751Y-82039660D01*
X112803756Y-82055901D01*
X112876450Y-82085001D01*
X112872930Y-82211675D01*
X112869410Y-82338350D01*
X112963823Y-82244591D01*
X113058236Y-82150833D01*
X113208643Y-82229606D01*
X113315124Y-82286681D01*
X113406014Y-82338077D01*
X113480190Y-82383013D01*
X113536532Y-82420708D01*
X113573918Y-82450382D01*
X113591228Y-82471256D01*
X113587339Y-82482548D01*
X113574671Y-82484400D01*
X113546676Y-82490804D01*
X113503389Y-82508018D01*
X113450835Y-82533046D01*
X113395042Y-82562890D01*
X113342036Y-82594553D01*
X113310201Y-82615920D01*
X113236543Y-82673335D01*
X113172097Y-82735093D01*
X113113809Y-82805291D01*
X113058628Y-82888029D01*
X113003499Y-82987406D01*
X112947475Y-83102956D01*
X112912479Y-83178542D01*
X112873799Y-83261663D01*
X112836317Y-83341847D01*
X112806982Y-83404250D01*
X112741460Y-83543050D01*
X112710183Y-83490600D01*
X112665472Y-83439367D01*
X112600445Y-83398321D01*
X112518205Y-83367813D01*
X112421855Y-83348197D01*
X112314497Y-83339823D01*
X112199235Y-83343044D01*
X112079172Y-83358212D01*
X111957410Y-83385680D01*
X111910155Y-83399795D01*
X111846462Y-83421364D01*
X111805225Y-83437949D01*
X111786942Y-83449209D01*
X111792112Y-83454802D01*
X111821233Y-83454387D01*
X111832105Y-83453327D01*
X111876811Y-83451512D01*
X111938027Y-83453063D01*
X112009182Y-83457377D01*
X112083704Y-83463853D01*
X112155023Y-83471888D01*
X112216565Y-83480882D01*
X112261760Y-83490231D01*
X112273200Y-83493723D01*
X112353112Y-83531039D01*
X112412914Y-83579934D01*
X112456484Y-83643642D01*
X112458942Y-83648567D01*
X112480034Y-83705105D01*
X112486804Y-83763209D01*
X112478880Y-83828102D01*
X112455892Y-83905010D01*
X112437375Y-83952668D01*
X112394876Y-84045215D01*
X112345584Y-84130132D01*
X112285619Y-84212870D01*
X112211096Y-84298881D01*
X112135296Y-84376770D01*
X112004771Y-84497474D01*
X111870886Y-84603611D01*
X111725683Y-84701103D01*
X111602657Y-84773173D01*
X111496718Y-84833209D01*
X111409614Y-84885397D01*
X111337146Y-84932594D01*
X111275115Y-84977656D01*
X111219321Y-85023439D01*
X111173959Y-85064775D01*
X111065084Y-85177826D01*
X110976724Y-85292258D01*
X110904504Y-85414521D01*
X110844052Y-85551065D01*
X110843904Y-85551450D01*
X110820522Y-85606215D01*
X110795365Y-85647629D01*
X110763651Y-85679601D01*
X110720601Y-85706039D01*
X110661432Y-85730852D01*
X110597837Y-85752628D01*
X110502333Y-85780327D01*
X110424320Y-85795006D01*
X110359769Y-85797142D01*
X110304700Y-85787223D01*
X110261722Y-85770883D01*
X110218295Y-85749276D01*
X110181704Y-85726587D01*
X110159234Y-85707004D01*
X110156119Y-85701835D01*
X110156482Y-85679247D01*
X110165953Y-85643998D01*
X110174132Y-85623033D01*
X110182143Y-85605480D01*
X110200087Y-85566707D01*
X110225878Y-85511191D01*
X110375151Y-85511191D01*
X110375905Y-85542387D01*
X110377922Y-85582621D01*
X110380719Y-85624286D01*
X110383817Y-85659776D01*
X110386735Y-85681483D01*
X110388034Y-85684800D01*
X110396248Y-85674584D01*
X110411253Y-85648717D01*
X110419500Y-85633018D01*
X110445917Y-85581237D01*
X110412126Y-85536934D01*
X110391368Y-85511112D01*
X110378199Y-85497362D01*
X110376141Y-85496640D01*
X110375151Y-85511191D01*
X110225878Y-85511191D01*
X110227129Y-85508500D01*
X110262436Y-85432643D01*
X110305174Y-85340924D01*
X110354508Y-85235126D01*
X110409604Y-85117035D01*
X110469628Y-84988436D01*
X110533745Y-84851115D01*
X110601121Y-84706857D01*
X110670923Y-84557448D01*
X110742316Y-84404672D01*
X110814465Y-84250316D01*
X110886537Y-84096163D01*
X110957698Y-83944001D01*
X110994867Y-83864543D01*
X111257435Y-83864543D01*
X111260690Y-83864990D01*
X111271360Y-83858774D01*
X111292364Y-83843898D01*
X111326617Y-83818365D01*
X111377035Y-83780178D01*
X111401034Y-83761937D01*
X111442595Y-83728649D01*
X111474453Y-83699886D01*
X111492440Y-83679599D01*
X111494809Y-83673037D01*
X111489098Y-83654482D01*
X111478777Y-83619056D01*
X111466058Y-83574355D01*
X111465796Y-83573425D01*
X111453040Y-83531185D01*
X111442177Y-83500690D01*
X111435425Y-83488124D01*
X111435158Y-83488076D01*
X111428510Y-83498938D01*
X111413476Y-83528217D01*
X111392271Y-83571246D01*
X111367114Y-83623361D01*
X111340221Y-83679898D01*
X111313808Y-83736191D01*
X111290093Y-83787576D01*
X111271293Y-83829387D01*
X111259623Y-83856961D01*
X111258681Y-83859431D01*
X111257435Y-83864543D01*
X110994867Y-83864543D01*
X111027112Y-83795613D01*
X111093946Y-83652786D01*
X111157366Y-83517305D01*
X111216538Y-83390954D01*
X111270627Y-83275520D01*
X111318798Y-83172788D01*
X111360219Y-83084543D01*
X111368341Y-83067254D01*
X111431630Y-82932559D01*
X110907307Y-82523006D01*
X111879802Y-82523006D01*
X111882605Y-82571778D01*
X111890451Y-82625848D01*
X111901923Y-82680066D01*
X111915607Y-82729283D01*
X111930084Y-82768347D01*
X111943939Y-82792111D01*
X111954899Y-82796044D01*
X111957558Y-82780710D01*
X111951039Y-82748037D01*
X111940822Y-82715905D01*
X111928245Y-82669434D01*
X111923921Y-82643150D01*
X112133500Y-82643150D01*
X112139850Y-82649500D01*
X112146200Y-82643150D01*
X112139850Y-82636800D01*
X112133500Y-82643150D01*
X111923921Y-82643150D01*
X111919040Y-82613486D01*
X111913540Y-82554554D01*
X111912076Y-82499133D01*
X111914981Y-82453718D01*
X111922587Y-82424803D01*
X111925716Y-82420434D01*
X111938358Y-82417646D01*
X111959464Y-82429572D01*
X111992129Y-82458257D01*
X112011062Y-82476814D01*
X112048267Y-82516454D01*
X112080381Y-82554989D01*
X112101026Y-82584709D01*
X112102306Y-82587076D01*
X112117361Y-82611347D01*
X112128188Y-82620365D01*
X112129308Y-82619825D01*
X112127120Y-82606195D01*
X112115057Y-82576722D01*
X112095706Y-82537699D01*
X112095016Y-82536403D01*
X112067304Y-82490573D01*
X112033976Y-82444581D01*
X111998747Y-82402466D01*
X111965335Y-82368268D01*
X111937454Y-82346028D01*
X111918821Y-82339784D01*
X111915735Y-82341484D01*
X111901713Y-82367813D01*
X111890141Y-82412612D01*
X111882386Y-82468976D01*
X111879802Y-82523006D01*
X110907307Y-82523006D01*
X110881579Y-82502910D01*
X110778826Y-82422389D01*
X110682535Y-82346427D01*
X110594494Y-82276469D01*
X110516492Y-82213962D01*
X110450318Y-82160350D01*
X110397759Y-82117079D01*
X110360604Y-82085595D01*
X110340642Y-82067342D01*
X110337674Y-82063319D01*
X110352996Y-82054476D01*
X110388448Y-82040964D01*
X110439482Y-82024136D01*
X110501554Y-82005350D01*
X110570116Y-81985960D01*
X110640624Y-81967322D01*
X110708531Y-81950790D01*
X110735131Y-81944813D01*
X110812208Y-81927717D01*
X110868463Y-81915736D01*
X110908104Y-81909670D01*
X110935338Y-81910319D01*
X110954375Y-81918484D01*
X110969423Y-81934963D01*
X110984690Y-81960557D01*
X111004342Y-81995992D01*
X111029637Y-82038737D01*
X111050594Y-82071451D01*
X111063880Y-82089039D01*
X111066273Y-82090700D01*
X111072224Y-82079195D01*
X111081356Y-82048540D01*
X111092021Y-82004519D01*
X111095837Y-81986903D01*
X111106624Y-81938485D01*
X111116268Y-81900312D01*
X111123136Y-81878684D01*
X111124513Y-81876253D01*
X111138783Y-81873842D01*
X111174383Y-81871243D01*
X111227242Y-81868654D01*
X111293294Y-81866273D01*
X111368469Y-81864299D01*
X111370550Y-81864254D01*
X111609733Y-81859109D01*
X111638238Y-81946329D01*
G36*
X111638238Y-81946329D02*
G01*
X111653408Y-81990532D01*
X111666574Y-82024983D01*
X111675055Y-82042708D01*
X111675442Y-82043185D01*
X111683911Y-82037002D01*
X111698698Y-82012034D01*
X111717005Y-81973205D01*
X111722333Y-81960635D01*
X111760525Y-81868450D01*
X111846202Y-81864676D01*
X111899555Y-81864679D01*
X111962528Y-81868310D01*
X112029793Y-81874821D01*
X112096019Y-81883464D01*
X112155878Y-81893493D01*
X112204040Y-81904159D01*
X112235175Y-81914716D01*
X112243225Y-81920351D01*
X112252678Y-81942984D01*
X112261685Y-81981160D01*
X112266392Y-82011838D01*
X112273916Y-82071921D01*
X112280915Y-82107965D01*
X112290086Y-82121128D01*
X112304130Y-82112567D01*
X112325744Y-82083439D01*
X112349439Y-82047425D01*
X112378025Y-82004729D01*
X112402148Y-81970694D01*
X112417989Y-81950630D01*
X112421174Y-81947691D01*
X112437402Y-81948465D01*
X112472731Y-81955733D01*
X112522129Y-81968071D01*
X112580563Y-81984057D01*
X112643000Y-82002266D01*
X112704407Y-82021275D01*
X112759751Y-82039660D01*
X112803756Y-82055901D01*
X112876450Y-82085001D01*
X112872930Y-82211675D01*
X112869410Y-82338350D01*
X112963823Y-82244591D01*
X113058236Y-82150833D01*
X113208643Y-82229606D01*
X113315124Y-82286681D01*
X113406014Y-82338077D01*
X113480190Y-82383013D01*
X113536532Y-82420708D01*
X113573918Y-82450382D01*
X113591228Y-82471256D01*
X113587339Y-82482548D01*
X113574671Y-82484400D01*
X113546676Y-82490804D01*
X113503389Y-82508018D01*
X113450835Y-82533046D01*
X113395042Y-82562890D01*
X113342036Y-82594553D01*
X113310201Y-82615920D01*
X113236543Y-82673335D01*
X113172097Y-82735093D01*
X113113809Y-82805291D01*
X113058628Y-82888029D01*
X113003499Y-82987406D01*
X112947475Y-83102956D01*
X112912479Y-83178542D01*
X112873799Y-83261663D01*
X112836317Y-83341847D01*
X112806982Y-83404250D01*
X112741460Y-83543050D01*
X112710183Y-83490600D01*
X112665472Y-83439367D01*
X112600445Y-83398321D01*
X112518205Y-83367813D01*
X112421855Y-83348197D01*
X112314497Y-83339823D01*
X112199235Y-83343044D01*
X112079172Y-83358212D01*
X111957410Y-83385680D01*
X111910155Y-83399795D01*
X111846462Y-83421364D01*
X111805225Y-83437949D01*
X111786942Y-83449209D01*
X111792112Y-83454802D01*
X111821233Y-83454387D01*
X111832105Y-83453327D01*
X111876811Y-83451512D01*
X111938027Y-83453063D01*
X112009182Y-83457377D01*
X112083704Y-83463853D01*
X112155023Y-83471888D01*
X112216565Y-83480882D01*
X112261760Y-83490231D01*
X112273200Y-83493723D01*
X112353112Y-83531039D01*
X112412914Y-83579934D01*
X112456484Y-83643642D01*
X112458942Y-83648567D01*
X112480034Y-83705105D01*
X112486804Y-83763209D01*
X112478880Y-83828102D01*
X112455892Y-83905010D01*
X112437375Y-83952668D01*
X112394876Y-84045215D01*
X112345584Y-84130132D01*
X112285619Y-84212870D01*
X112211096Y-84298881D01*
X112135296Y-84376770D01*
X112004771Y-84497474D01*
X111870886Y-84603611D01*
X111725683Y-84701103D01*
X111602657Y-84773173D01*
X111496718Y-84833209D01*
X111409614Y-84885397D01*
X111337146Y-84932594D01*
X111275115Y-84977656D01*
X111219321Y-85023439D01*
X111173959Y-85064775D01*
X111065084Y-85177826D01*
X110976724Y-85292258D01*
X110904504Y-85414521D01*
X110844052Y-85551065D01*
X110843904Y-85551450D01*
X110820522Y-85606215D01*
X110795365Y-85647629D01*
X110763651Y-85679601D01*
X110720601Y-85706039D01*
X110661432Y-85730852D01*
X110597837Y-85752628D01*
X110502333Y-85780327D01*
X110424320Y-85795006D01*
X110359769Y-85797142D01*
X110304700Y-85787223D01*
X110261722Y-85770883D01*
X110218295Y-85749276D01*
X110181704Y-85726587D01*
X110159234Y-85707004D01*
X110156119Y-85701835D01*
X110156482Y-85679247D01*
X110165953Y-85643998D01*
X110174132Y-85623033D01*
X110182143Y-85605480D01*
X110200087Y-85566707D01*
X110225878Y-85511191D01*
X110375151Y-85511191D01*
X110375905Y-85542387D01*
X110377922Y-85582621D01*
X110380719Y-85624286D01*
X110383817Y-85659776D01*
X110386735Y-85681483D01*
X110388034Y-85684800D01*
X110396248Y-85674584D01*
X110411253Y-85648717D01*
X110419500Y-85633018D01*
X110445917Y-85581237D01*
X110412126Y-85536934D01*
X110391368Y-85511112D01*
X110378199Y-85497362D01*
X110376141Y-85496640D01*
X110375151Y-85511191D01*
X110225878Y-85511191D01*
X110227129Y-85508500D01*
X110262436Y-85432643D01*
X110305174Y-85340924D01*
X110354508Y-85235126D01*
X110409604Y-85117035D01*
X110469628Y-84988436D01*
X110533745Y-84851115D01*
X110601121Y-84706857D01*
X110670923Y-84557448D01*
X110742316Y-84404672D01*
X110814465Y-84250316D01*
X110886537Y-84096163D01*
X110957698Y-83944001D01*
X110994867Y-83864543D01*
X111257435Y-83864543D01*
X111260690Y-83864990D01*
X111271360Y-83858774D01*
X111292364Y-83843898D01*
X111326617Y-83818365D01*
X111377035Y-83780178D01*
X111401034Y-83761937D01*
X111442595Y-83728649D01*
X111474453Y-83699886D01*
X111492440Y-83679599D01*
X111494809Y-83673037D01*
X111489098Y-83654482D01*
X111478777Y-83619056D01*
X111466058Y-83574355D01*
X111465796Y-83573425D01*
X111453040Y-83531185D01*
X111442177Y-83500690D01*
X111435425Y-83488124D01*
X111435158Y-83488076D01*
X111428510Y-83498938D01*
X111413476Y-83528217D01*
X111392271Y-83571246D01*
X111367114Y-83623361D01*
X111340221Y-83679898D01*
X111313808Y-83736191D01*
X111290093Y-83787576D01*
X111271293Y-83829387D01*
X111259623Y-83856961D01*
X111258681Y-83859431D01*
X111257435Y-83864543D01*
X110994867Y-83864543D01*
X111027112Y-83795613D01*
X111093946Y-83652786D01*
X111157366Y-83517305D01*
X111216538Y-83390954D01*
X111270627Y-83275520D01*
X111318798Y-83172788D01*
X111360219Y-83084543D01*
X111368341Y-83067254D01*
X111431630Y-82932559D01*
X110907307Y-82523006D01*
X111879802Y-82523006D01*
X111882605Y-82571778D01*
X111890451Y-82625848D01*
X111901923Y-82680066D01*
X111915607Y-82729283D01*
X111930084Y-82768347D01*
X111943939Y-82792111D01*
X111954899Y-82796044D01*
X111957558Y-82780710D01*
X111951039Y-82748037D01*
X111940822Y-82715905D01*
X111928245Y-82669434D01*
X111923921Y-82643150D01*
X112133500Y-82643150D01*
X112139850Y-82649500D01*
X112146200Y-82643150D01*
X112139850Y-82636800D01*
X112133500Y-82643150D01*
X111923921Y-82643150D01*
X111919040Y-82613486D01*
X111913540Y-82554554D01*
X111912076Y-82499133D01*
X111914981Y-82453718D01*
X111922587Y-82424803D01*
X111925716Y-82420434D01*
X111938358Y-82417646D01*
X111959464Y-82429572D01*
X111992129Y-82458257D01*
X112011062Y-82476814D01*
X112048267Y-82516454D01*
X112080381Y-82554989D01*
X112101026Y-82584709D01*
X112102306Y-82587076D01*
X112117361Y-82611347D01*
X112128188Y-82620365D01*
X112129308Y-82619825D01*
X112127120Y-82606195D01*
X112115057Y-82576722D01*
X112095706Y-82537699D01*
X112095016Y-82536403D01*
X112067304Y-82490573D01*
X112033976Y-82444581D01*
X111998747Y-82402466D01*
X111965335Y-82368268D01*
X111937454Y-82346028D01*
X111918821Y-82339784D01*
X111915735Y-82341484D01*
X111901713Y-82367813D01*
X111890141Y-82412612D01*
X111882386Y-82468976D01*
X111879802Y-82523006D01*
X110907307Y-82523006D01*
X110881579Y-82502910D01*
X110778826Y-82422389D01*
X110682535Y-82346427D01*
X110594494Y-82276469D01*
X110516492Y-82213962D01*
X110450318Y-82160350D01*
X110397759Y-82117079D01*
X110360604Y-82085595D01*
X110340642Y-82067342D01*
X110337674Y-82063319D01*
X110352996Y-82054476D01*
X110388448Y-82040964D01*
X110439482Y-82024136D01*
X110501554Y-82005350D01*
X110570116Y-81985960D01*
X110640624Y-81967322D01*
X110708531Y-81950790D01*
X110735131Y-81944813D01*
X110812208Y-81927717D01*
X110868463Y-81915736D01*
X110908104Y-81909670D01*
X110935338Y-81910319D01*
X110954375Y-81918484D01*
X110969423Y-81934963D01*
X110984690Y-81960557D01*
X111004342Y-81995992D01*
X111029637Y-82038737D01*
X111050594Y-82071451D01*
X111063880Y-82089039D01*
X111066273Y-82090700D01*
X111072224Y-82079195D01*
X111081356Y-82048540D01*
X111092021Y-82004519D01*
X111095837Y-81986903D01*
X111106624Y-81938485D01*
X111116268Y-81900312D01*
X111123136Y-81878684D01*
X111124513Y-81876253D01*
X111138783Y-81873842D01*
X111174383Y-81871243D01*
X111227242Y-81868654D01*
X111293294Y-81866273D01*
X111368469Y-81864299D01*
X111370550Y-81864254D01*
X111609733Y-81859109D01*
X111638238Y-81946329D01*
G37*
X66586921Y-77020993D02*
X66701631Y-77024495D01*
X66792856Y-77029259D01*
X66847452Y-77034501D01*
X66856944Y-77037092D01*
X66850418Y-77065233D01*
X66827031Y-77140236D01*
X66788907Y-77255809D01*
X66738170Y-77405656D01*
X66676944Y-77583485D01*
X66607352Y-77783002D01*
X66557414Y-77924797D01*
X66483047Y-78135632D01*
X66415081Y-78329216D01*
X66355721Y-78499200D01*
X66307172Y-78639230D01*
X66271639Y-78742955D01*
X66251329Y-78804026D01*
X66247333Y-78817877D01*
X66270135Y-78809322D01*
X66333385Y-78775722D01*
X66429353Y-78721436D01*
X66550308Y-78650824D01*
X66666566Y-78581478D01*
X66806595Y-78497718D01*
X66931854Y-78423769D01*
X67033503Y-78364772D01*
X67102705Y-78325868D01*
X67128593Y-78312732D01*
X67136790Y-78324721D01*
X67131109Y-78374151D01*
X67110765Y-78464097D01*
X67074973Y-78597631D01*
X67022947Y-78777827D01*
X66953903Y-79007757D01*
X66935842Y-79066988D01*
X66875136Y-79266685D01*
X66820181Y-79449522D01*
X66773078Y-79608344D01*
X66735929Y-79735992D01*
X66710834Y-79825310D01*
X66699896Y-79869142D01*
X66699593Y-79871655D01*
X66726609Y-79893925D01*
X66806804Y-79908895D01*
X66877116Y-79913988D01*
X67055343Y-79922333D01*
X66781730Y-80311701D01*
X66690425Y-80441301D01*
X66610373Y-80554301D01*
X66547207Y-80642798D01*
X66506563Y-80698889D01*
X66494251Y-80714934D01*
X66478799Y-80695446D01*
X66445304Y-80632577D01*
X66397953Y-80534832D01*
X66340930Y-80410713D01*
X66307415Y-80335321D01*
X66247422Y-80197799D01*
X66196461Y-80078980D01*
X66158474Y-79988217D01*
X66137405Y-79934864D01*
X66134444Y-79925032D01*
X66159932Y-79915700D01*
X66225490Y-79909597D01*
X66284912Y-79908222D01*
X66435379Y-79908222D01*
X66506858Y-79435500D01*
X66530184Y-79279900D01*
X66549939Y-79145551D01*
X66564812Y-79041593D01*
X66573489Y-78977164D01*
X66575113Y-78960230D01*
X66550419Y-78971940D01*
X66483655Y-79006049D01*
X66382615Y-79058508D01*
X66255097Y-79125269D01*
X66108894Y-79202285D01*
X66106222Y-79203697D01*
X65959519Y-79280715D01*
X65831040Y-79347239D01*
X65728652Y-79399273D01*
X65660220Y-79432819D01*
X65633613Y-79443880D01*
X65633571Y-79443853D01*
X65634425Y-79434984D01*
X65640546Y-79408680D01*
X65652862Y-79361693D01*
X65672297Y-79290774D01*
X65699779Y-79192676D01*
X65736234Y-79064150D01*
X65782588Y-78901948D01*
X65839766Y-78702822D01*
X65908697Y-78463524D01*
X65990305Y-78180805D01*
X66085517Y-77851417D01*
X66195259Y-77472113D01*
X66233498Y-77340000D01*
X66327448Y-77015445D01*
X66586921Y-77020993D01*
G36*
X66586921Y-77020993D02*
G01*
X66701631Y-77024495D01*
X66792856Y-77029259D01*
X66847452Y-77034501D01*
X66856944Y-77037092D01*
X66850418Y-77065233D01*
X66827031Y-77140236D01*
X66788907Y-77255809D01*
X66738170Y-77405656D01*
X66676944Y-77583485D01*
X66607352Y-77783002D01*
X66557414Y-77924797D01*
X66483047Y-78135632D01*
X66415081Y-78329216D01*
X66355721Y-78499200D01*
X66307172Y-78639230D01*
X66271639Y-78742955D01*
X66251329Y-78804026D01*
X66247333Y-78817877D01*
X66270135Y-78809322D01*
X66333385Y-78775722D01*
X66429353Y-78721436D01*
X66550308Y-78650824D01*
X66666566Y-78581478D01*
X66806595Y-78497718D01*
X66931854Y-78423769D01*
X67033503Y-78364772D01*
X67102705Y-78325868D01*
X67128593Y-78312732D01*
X67136790Y-78324721D01*
X67131109Y-78374151D01*
X67110765Y-78464097D01*
X67074973Y-78597631D01*
X67022947Y-78777827D01*
X66953903Y-79007757D01*
X66935842Y-79066988D01*
X66875136Y-79266685D01*
X66820181Y-79449522D01*
X66773078Y-79608344D01*
X66735929Y-79735992D01*
X66710834Y-79825310D01*
X66699896Y-79869142D01*
X66699593Y-79871655D01*
X66726609Y-79893925D01*
X66806804Y-79908895D01*
X66877116Y-79913988D01*
X67055343Y-79922333D01*
X66781730Y-80311701D01*
X66690425Y-80441301D01*
X66610373Y-80554301D01*
X66547207Y-80642798D01*
X66506563Y-80698889D01*
X66494251Y-80714934D01*
X66478799Y-80695446D01*
X66445304Y-80632577D01*
X66397953Y-80534832D01*
X66340930Y-80410713D01*
X66307415Y-80335321D01*
X66247422Y-80197799D01*
X66196461Y-80078980D01*
X66158474Y-79988217D01*
X66137405Y-79934864D01*
X66134444Y-79925032D01*
X66159932Y-79915700D01*
X66225490Y-79909597D01*
X66284912Y-79908222D01*
X66435379Y-79908222D01*
X66506858Y-79435500D01*
X66530184Y-79279900D01*
X66549939Y-79145551D01*
X66564812Y-79041593D01*
X66573489Y-78977164D01*
X66575113Y-78960230D01*
X66550419Y-78971940D01*
X66483655Y-79006049D01*
X66382615Y-79058508D01*
X66255097Y-79125269D01*
X66108894Y-79202285D01*
X66106222Y-79203697D01*
X65959519Y-79280715D01*
X65831040Y-79347239D01*
X65728652Y-79399273D01*
X65660220Y-79432819D01*
X65633613Y-79443880D01*
X65633571Y-79443853D01*
X65634425Y-79434984D01*
X65640546Y-79408680D01*
X65652862Y-79361693D01*
X65672297Y-79290774D01*
X65699779Y-79192676D01*
X65736234Y-79064150D01*
X65782588Y-78901948D01*
X65839766Y-78702822D01*
X65908697Y-78463524D01*
X65990305Y-78180805D01*
X66085517Y-77851417D01*
X66195259Y-77472113D01*
X66233498Y-77340000D01*
X66327448Y-77015445D01*
X66586921Y-77020993D01*
G37*
X66693054Y-75382270D02*
X66780373Y-75441832D01*
X66795857Y-75456167D01*
X66828971Y-75499105D01*
X66888005Y-75588705D01*
X66971388Y-75722332D01*
X67077550Y-75897349D01*
X67204919Y-76111123D01*
X67351925Y-76361016D01*
X67516997Y-76644394D01*
X67698564Y-76958621D01*
X67885040Y-77283556D01*
X68067408Y-77602270D01*
X68255299Y-77930577D01*
X68444618Y-78261323D01*
X68631271Y-78587359D01*
X68811162Y-78901534D01*
X68980197Y-79196694D01*
X69134282Y-79465691D01*
X69269321Y-79701372D01*
X69381220Y-79896586D01*
X69399780Y-79928953D01*
X69560128Y-80210800D01*
X69691183Y-80446103D01*
X69793621Y-80636151D01*
X69868119Y-80782231D01*
X69915351Y-80885632D01*
X69935995Y-80947640D01*
X69936605Y-80951476D01*
X69933739Y-81092441D01*
X69883382Y-81203045D01*
X69785689Y-81282986D01*
X69763150Y-81294067D01*
X69743046Y-81302301D01*
X69718912Y-81309624D01*
X69687505Y-81316091D01*
X69645582Y-81321755D01*
X69589901Y-81326670D01*
X69517217Y-81330891D01*
X69424289Y-81334471D01*
X69307873Y-81337464D01*
X69164726Y-81339925D01*
X68991605Y-81341906D01*
X68785267Y-81343462D01*
X68542469Y-81344648D01*
X68259969Y-81345516D01*
X67934522Y-81346121D01*
X67562886Y-81346517D01*
X67141818Y-81346758D01*
X66668075Y-81346897D01*
X66586000Y-81346914D01*
X66104390Y-81346993D01*
X65675974Y-81346992D01*
X65297503Y-81346852D01*
X64965729Y-81346515D01*
X64677400Y-81345922D01*
X64429267Y-81345015D01*
X64218081Y-81343734D01*
X64040592Y-81342021D01*
X63893550Y-81339817D01*
X63773707Y-81337064D01*
X63677811Y-81333704D01*
X63602614Y-81329676D01*
X63544866Y-81324923D01*
X63501317Y-81319386D01*
X63468717Y-81313006D01*
X63443818Y-81305725D01*
X63423369Y-81297484D01*
X63406714Y-81289510D01*
X63300221Y-81212318D01*
X63242780Y-81108800D01*
X63232729Y-80975660D01*
X63235568Y-80950185D01*
X63257948Y-80876224D01*
X63310537Y-80758087D01*
X63325037Y-80729677D01*
X63876667Y-80729677D01*
X63895630Y-80789088D01*
X63921016Y-80823429D01*
X63932910Y-80830999D01*
X63954758Y-80837667D01*
X63989927Y-80843489D01*
X64041785Y-80848521D01*
X64113699Y-80852819D01*
X64209035Y-80856439D01*
X64331163Y-80859438D01*
X64483448Y-80861871D01*
X64669259Y-80863794D01*
X64891963Y-80865264D01*
X65154927Y-80866337D01*
X65461519Y-80867068D01*
X65815105Y-80867514D01*
X66219054Y-80867731D01*
X66583642Y-80867778D01*
X67026858Y-80867762D01*
X67417082Y-80867664D01*
X67757764Y-80867410D01*
X68052356Y-80866924D01*
X68304309Y-80866133D01*
X68517075Y-80864960D01*
X68694105Y-80863332D01*
X68838851Y-80861173D01*
X68954764Y-80858410D01*
X69045295Y-80854966D01*
X69113897Y-80850767D01*
X69164020Y-80845739D01*
X69199115Y-80839807D01*
X69222635Y-80832896D01*
X69238031Y-80824931D01*
X69248754Y-80815837D01*
X69254280Y-80809919D01*
X69289080Y-80756142D01*
X69285148Y-80697328D01*
X69276545Y-80672330D01*
X69269373Y-80655657D01*
X69256622Y-80629681D01*
X69236917Y-80591987D01*
X69208881Y-80540157D01*
X69171141Y-80471775D01*
X69122318Y-80384425D01*
X69061039Y-80275690D01*
X68985928Y-80143153D01*
X68895608Y-79984398D01*
X68788704Y-79797009D01*
X68663841Y-79578568D01*
X68519642Y-79326660D01*
X68354732Y-79038869D01*
X68167736Y-78712776D01*
X67957277Y-78345967D01*
X67721980Y-77936024D01*
X67460470Y-77480532D01*
X67348499Y-77285529D01*
X67215991Y-77055867D01*
X67090765Y-76840932D01*
X66975849Y-76645774D01*
X66874274Y-76475441D01*
X66789069Y-76334985D01*
X66723263Y-76229453D01*
X66679887Y-76163896D01*
X66663353Y-76143613D01*
X66634731Y-76127741D01*
X66607021Y-76120151D01*
X66577769Y-76124309D01*
X66544518Y-76143678D01*
X66504816Y-76181724D01*
X66456206Y-76241913D01*
X66396234Y-76327708D01*
X66322445Y-76442576D01*
X66232385Y-76589980D01*
X66123599Y-76773387D01*
X65993631Y-76996261D01*
X65840028Y-77262066D01*
X65705799Y-77495222D01*
X65438670Y-77959669D01*
X65198369Y-78377659D01*
X64983518Y-78751627D01*
X64792741Y-79084010D01*
X64624660Y-79377241D01*
X64477898Y-79633757D01*
X64351078Y-79855992D01*
X64242823Y-80046382D01*
X64151755Y-80207363D01*
X64076498Y-80341370D01*
X64015673Y-80450837D01*
X63967904Y-80538201D01*
X63931814Y-80605897D01*
X63906026Y-80656359D01*
X63889161Y-80692024D01*
X63879843Y-80715326D01*
X63876695Y-80728702D01*
X63876667Y-80729677D01*
X63325037Y-80729677D01*
X63392028Y-80598427D01*
X63501114Y-80399895D01*
X63544965Y-80322773D01*
X63661854Y-80118841D01*
X63797407Y-79882501D01*
X63948637Y-79618955D01*
X64112555Y-79333401D01*
X64286172Y-79031039D01*
X64466501Y-78717070D01*
X64650553Y-78396692D01*
X64835340Y-78075105D01*
X65017873Y-77757509D01*
X65195164Y-77449104D01*
X65364226Y-77155089D01*
X65522068Y-76880664D01*
X65665704Y-76631029D01*
X65792145Y-76411383D01*
X65898403Y-76226926D01*
X65981488Y-76082857D01*
X66021525Y-76013556D01*
X66139055Y-75813599D01*
X66235598Y-75658431D01*
X66316004Y-75542655D01*
X66385119Y-75460875D01*
X66447792Y-75407695D01*
X66508871Y-75377719D01*
X66573205Y-75365549D01*
X66604699Y-75364445D01*
X66693054Y-75382270D01*
G36*
X66693054Y-75382270D02*
G01*
X66780373Y-75441832D01*
X66795857Y-75456167D01*
X66828971Y-75499105D01*
X66888005Y-75588705D01*
X66971388Y-75722332D01*
X67077550Y-75897349D01*
X67204919Y-76111123D01*
X67351925Y-76361016D01*
X67516997Y-76644394D01*
X67698564Y-76958621D01*
X67885040Y-77283556D01*
X68067408Y-77602270D01*
X68255299Y-77930577D01*
X68444618Y-78261323D01*
X68631271Y-78587359D01*
X68811162Y-78901534D01*
X68980197Y-79196694D01*
X69134282Y-79465691D01*
X69269321Y-79701372D01*
X69381220Y-79896586D01*
X69399780Y-79928953D01*
X69560128Y-80210800D01*
X69691183Y-80446103D01*
X69793621Y-80636151D01*
X69868119Y-80782231D01*
X69915351Y-80885632D01*
X69935995Y-80947640D01*
X69936605Y-80951476D01*
X69933739Y-81092441D01*
X69883382Y-81203045D01*
X69785689Y-81282986D01*
X69763150Y-81294067D01*
X69743046Y-81302301D01*
X69718912Y-81309624D01*
X69687505Y-81316091D01*
X69645582Y-81321755D01*
X69589901Y-81326670D01*
X69517217Y-81330891D01*
X69424289Y-81334471D01*
X69307873Y-81337464D01*
X69164726Y-81339925D01*
X68991605Y-81341906D01*
X68785267Y-81343462D01*
X68542469Y-81344648D01*
X68259969Y-81345516D01*
X67934522Y-81346121D01*
X67562886Y-81346517D01*
X67141818Y-81346758D01*
X66668075Y-81346897D01*
X66586000Y-81346914D01*
X66104390Y-81346993D01*
X65675974Y-81346992D01*
X65297503Y-81346852D01*
X64965729Y-81346515D01*
X64677400Y-81345922D01*
X64429267Y-81345015D01*
X64218081Y-81343734D01*
X64040592Y-81342021D01*
X63893550Y-81339817D01*
X63773707Y-81337064D01*
X63677811Y-81333704D01*
X63602614Y-81329676D01*
X63544866Y-81324923D01*
X63501317Y-81319386D01*
X63468717Y-81313006D01*
X63443818Y-81305725D01*
X63423369Y-81297484D01*
X63406714Y-81289510D01*
X63300221Y-81212318D01*
X63242780Y-81108800D01*
X63232729Y-80975660D01*
X63235568Y-80950185D01*
X63257948Y-80876224D01*
X63310537Y-80758087D01*
X63325037Y-80729677D01*
X63876667Y-80729677D01*
X63895630Y-80789088D01*
X63921016Y-80823429D01*
X63932910Y-80830999D01*
X63954758Y-80837667D01*
X63989927Y-80843489D01*
X64041785Y-80848521D01*
X64113699Y-80852819D01*
X64209035Y-80856439D01*
X64331163Y-80859438D01*
X64483448Y-80861871D01*
X64669259Y-80863794D01*
X64891963Y-80865264D01*
X65154927Y-80866337D01*
X65461519Y-80867068D01*
X65815105Y-80867514D01*
X66219054Y-80867731D01*
X66583642Y-80867778D01*
X67026858Y-80867762D01*
X67417082Y-80867664D01*
X67757764Y-80867410D01*
X68052356Y-80866924D01*
X68304309Y-80866133D01*
X68517075Y-80864960D01*
X68694105Y-80863332D01*
X68838851Y-80861173D01*
X68954764Y-80858410D01*
X69045295Y-80854966D01*
X69113897Y-80850767D01*
X69164020Y-80845739D01*
X69199115Y-80839807D01*
X69222635Y-80832896D01*
X69238031Y-80824931D01*
X69248754Y-80815837D01*
X69254280Y-80809919D01*
X69289080Y-80756142D01*
X69285148Y-80697328D01*
X69276545Y-80672330D01*
X69269373Y-80655657D01*
X69256622Y-80629681D01*
X69236917Y-80591987D01*
X69208881Y-80540157D01*
X69171141Y-80471775D01*
X69122318Y-80384425D01*
X69061039Y-80275690D01*
X68985928Y-80143153D01*
X68895608Y-79984398D01*
X68788704Y-79797009D01*
X68663841Y-79578568D01*
X68519642Y-79326660D01*
X68354732Y-79038869D01*
X68167736Y-78712776D01*
X67957277Y-78345967D01*
X67721980Y-77936024D01*
X67460470Y-77480532D01*
X67348499Y-77285529D01*
X67215991Y-77055867D01*
X67090765Y-76840932D01*
X66975849Y-76645774D01*
X66874274Y-76475441D01*
X66789069Y-76334985D01*
X66723263Y-76229453D01*
X66679887Y-76163896D01*
X66663353Y-76143613D01*
X66634731Y-76127741D01*
X66607021Y-76120151D01*
X66577769Y-76124309D01*
X66544518Y-76143678D01*
X66504816Y-76181724D01*
X66456206Y-76241913D01*
X66396234Y-76327708D01*
X66322445Y-76442576D01*
X66232385Y-76589980D01*
X66123599Y-76773387D01*
X65993631Y-76996261D01*
X65840028Y-77262066D01*
X65705799Y-77495222D01*
X65438670Y-77959669D01*
X65198369Y-78377659D01*
X64983518Y-78751627D01*
X64792741Y-79084010D01*
X64624660Y-79377241D01*
X64477898Y-79633757D01*
X64351078Y-79855992D01*
X64242823Y-80046382D01*
X64151755Y-80207363D01*
X64076498Y-80341370D01*
X64015673Y-80450837D01*
X63967904Y-80538201D01*
X63931814Y-80605897D01*
X63906026Y-80656359D01*
X63889161Y-80692024D01*
X63879843Y-80715326D01*
X63876695Y-80728702D01*
X63876667Y-80729677D01*
X63325037Y-80729677D01*
X63392028Y-80598427D01*
X63501114Y-80399895D01*
X63544965Y-80322773D01*
X63661854Y-80118841D01*
X63797407Y-79882501D01*
X63948637Y-79618955D01*
X64112555Y-79333401D01*
X64286172Y-79031039D01*
X64466501Y-78717070D01*
X64650553Y-78396692D01*
X64835340Y-78075105D01*
X65017873Y-77757509D01*
X65195164Y-77449104D01*
X65364226Y-77155089D01*
X65522068Y-76880664D01*
X65665704Y-76631029D01*
X65792145Y-76411383D01*
X65898403Y-76226926D01*
X65981488Y-76082857D01*
X66021525Y-76013556D01*
X66139055Y-75813599D01*
X66235598Y-75658431D01*
X66316004Y-75542655D01*
X66385119Y-75460875D01*
X66447792Y-75407695D01*
X66508871Y-75377719D01*
X66573205Y-75365549D01*
X66604699Y-75364445D01*
X66693054Y-75382270D01*
G37*
M02*
