G04 #@! TF.GenerationSoftware,KiCad,Pcbnew,7.0.7*
G04 #@! TF.CreationDate,2023-10-01T09:25:35+02:00*
G04 #@! TF.ProjectId,TSALv3,5453414c-7633-42e6-9b69-6361645f7063,rev?*
G04 #@! TF.SameCoordinates,Original*
G04 #@! TF.FileFunction,Legend,Bot*
G04 #@! TF.FilePolarity,Positive*
%FSLAX46Y46*%
G04 Gerber Fmt 4.6, Leading zero omitted, Abs format (unit mm)*
G04 Created by KiCad (PCBNEW 7.0.7) date 2023-10-01 09:25:35*
%MOMM*%
%LPD*%
G01*
G04 APERTURE LIST*
%ADD10C,0.250000*%
G04 APERTURE END LIST*
D10*
X109878570Y-66446619D02*
X109878570Y-65446619D01*
X109878570Y-65446619D02*
X109640475Y-65446619D01*
X109640475Y-65446619D02*
X109497618Y-65494238D01*
X109497618Y-65494238D02*
X109402380Y-65589476D01*
X109402380Y-65589476D02*
X109354761Y-65684714D01*
X109354761Y-65684714D02*
X109307142Y-65875190D01*
X109307142Y-65875190D02*
X109307142Y-66018047D01*
X109307142Y-66018047D02*
X109354761Y-66208523D01*
X109354761Y-66208523D02*
X109402380Y-66303761D01*
X109402380Y-66303761D02*
X109497618Y-66399000D01*
X109497618Y-66399000D02*
X109640475Y-66446619D01*
X109640475Y-66446619D02*
X109878570Y-66446619D01*
X108688094Y-65446619D02*
X108497618Y-65446619D01*
X108497618Y-65446619D02*
X108402380Y-65494238D01*
X108402380Y-65494238D02*
X108307142Y-65589476D01*
X108307142Y-65589476D02*
X108259523Y-65779952D01*
X108259523Y-65779952D02*
X108259523Y-66113285D01*
X108259523Y-66113285D02*
X108307142Y-66303761D01*
X108307142Y-66303761D02*
X108402380Y-66399000D01*
X108402380Y-66399000D02*
X108497618Y-66446619D01*
X108497618Y-66446619D02*
X108688094Y-66446619D01*
X108688094Y-66446619D02*
X108783332Y-66399000D01*
X108783332Y-66399000D02*
X108878570Y-66303761D01*
X108878570Y-66303761D02*
X108926189Y-66113285D01*
X108926189Y-66113285D02*
X108926189Y-65779952D01*
X108926189Y-65779952D02*
X108878570Y-65589476D01*
X108878570Y-65589476D02*
X108783332Y-65494238D01*
X108783332Y-65494238D02*
X108688094Y-65446619D01*
X107830951Y-66446619D02*
X107830951Y-65446619D01*
X107830951Y-65446619D02*
X107259523Y-66446619D01*
X107259523Y-66446619D02*
X107259523Y-65446619D01*
X106735713Y-65446619D02*
X106830951Y-65637095D01*
X106449999Y-65446619D02*
X105878571Y-65446619D01*
X106164285Y-66446619D02*
X106164285Y-65446619D01*
X109902380Y-68056619D02*
X109902380Y-67056619D01*
X109902380Y-67056619D02*
X109521428Y-67056619D01*
X109521428Y-67056619D02*
X109426190Y-67104238D01*
X109426190Y-67104238D02*
X109378571Y-67151857D01*
X109378571Y-67151857D02*
X109330952Y-67247095D01*
X109330952Y-67247095D02*
X109330952Y-67389952D01*
X109330952Y-67389952D02*
X109378571Y-67485190D01*
X109378571Y-67485190D02*
X109426190Y-67532809D01*
X109426190Y-67532809D02*
X109521428Y-67580428D01*
X109521428Y-67580428D02*
X109902380Y-67580428D01*
X108949999Y-67770904D02*
X108473809Y-67770904D01*
X109045237Y-68056619D02*
X108711904Y-67056619D01*
X108711904Y-67056619D02*
X108378571Y-68056619D01*
X108045237Y-68056619D02*
X108045237Y-67056619D01*
X108045237Y-67056619D02*
X107473809Y-68056619D01*
X107473809Y-68056619D02*
X107473809Y-67056619D01*
X106997618Y-68056619D02*
X106997618Y-67056619D01*
X105950000Y-67961380D02*
X105997619Y-68009000D01*
X105997619Y-68009000D02*
X106140476Y-68056619D01*
X106140476Y-68056619D02*
X106235714Y-68056619D01*
X106235714Y-68056619D02*
X106378571Y-68009000D01*
X106378571Y-68009000D02*
X106473809Y-67913761D01*
X106473809Y-67913761D02*
X106521428Y-67818523D01*
X106521428Y-67818523D02*
X106569047Y-67628047D01*
X106569047Y-67628047D02*
X106569047Y-67485190D01*
X106569047Y-67485190D02*
X106521428Y-67294714D01*
X106521428Y-67294714D02*
X106473809Y-67199476D01*
X106473809Y-67199476D02*
X106378571Y-67104238D01*
X106378571Y-67104238D02*
X106235714Y-67056619D01*
X106235714Y-67056619D02*
X106140476Y-67056619D01*
X106140476Y-67056619D02*
X105997619Y-67104238D01*
X105997619Y-67104238D02*
X105950000Y-67151857D01*
M02*
