M48
; DRILL file {KiCad 7.0.7} date Sun Oct  1 09:25:40 2023
; FORMAT={-:-/ absolute / inch / decimal}
; #@! TF.CreationDate,2023-10-01T09:25:40+02:00
; #@! TF.GenerationSoftware,Kicad,Pcbnew,7.0.7
; #@! TF.FileFunction,Plated,1,2,PTH
FMAT,2
INCH
; #@! TA.AperFunction,Plated,PTH,ViaDrill
T1C0.0157
; #@! TA.AperFunction,Plated,PTH,ComponentDrill
T2C0.0300
; #@! TA.AperFunction,Plated,PTH,ComponentDrill
T3C0.0315
; #@! TA.AperFunction,Plated,PTH,ComponentDrill
T4C0.0394
; #@! TA.AperFunction,Plated,PTH,ComponentDrill
T5C0.0551
%
G90
G05
T1
X2.8Y-3.12
X2.92Y-3.04
X2.93Y-3.3
X2.95Y-3.46
X3.06Y-3.26
X3.79Y-2.74
X3.83Y-2.74
X3.87Y-2.49
X3.87Y-2.6
X4.0422Y-2.6765
X4.11Y-3.27
X4.386Y-2.386
T2
X2.82Y-2.2966
X2.92Y-2.2966
X3.02Y-2.2966
X3.12Y-2.2966
X3.32Y-2.2966
X3.42Y-2.2966
X3.52Y-2.2966
T3
X2.06Y-3.14
X2.36Y-3.14
X3.07Y-2.51
X3.07Y-2.61
X3.07Y-2.71
X3.37Y-2.51
X3.37Y-2.61
X3.37Y-2.71
T4
X4.4559Y-2.76
X4.4559Y-2.8781
X4.4559Y-2.9962
X4.574Y-2.76
X4.574Y-2.8781
X4.574Y-2.9962
T5
X2.0835Y-2.42
X2.3Y-2.42
T0
M30
